<?xml version="1.0" encoding="utf-8"?>
<!-- Generator: Adobe Illustrator 26.0.2, SVG Export Plug-In . SVG Version: 6.00 Build 0)  -->
<svg xmlns:xlink="http://www.w3.org/1999/xlink" version="1.1" id="Layer_1" xmlns="http://www.w3.org/2000/svg" x="0px" y="0px"
	 viewBox="0 0 425.2 164.41" style="enable-background:new 0 0 425.2 164.41;" xml:space="preserve">
<style type="text/css">
	.st0{fill:none;}
	.st1{fill:#034EA2;}
	.st2{fill:#00B39A;}
</style>
<g>
	<rect class="st0" width="425.2" height="164.41"/>
	<g>
		<g>
			<path class="st1" d="M173.28,101.73c0-0.4,0.04-0.91,0.51-1.31c0.46-0.4,1.01-0.44,1.5-0.44h5.05c0.76,0,1.83,0.02,2.53,0.8
				c0.55,0.63,0.59,1.54,0.59,2.06c0,0.59-0.06,1.35-0.51,1.85c-0.29,0.34-0.78,0.59-1.33,0.65v0.04c0.65,0.08,1.14,0.42,1.39,0.74
				c0.44,0.55,0.48,1.26,0.48,1.85s-0.04,1.75-0.76,2.46c-0.67,0.67-1.6,0.7-2.25,0.7h-5.31c-0.46,0-1.1-0.04-1.47-0.4
				c-0.38-0.34-0.42-0.88-0.42-1.24V101.73z M179.56,104.42c0.32,0,0.74-0.04,1.03-0.34c0.27-0.27,0.32-0.63,0.32-0.93
				c0-0.34-0.02-0.74-0.34-1.01c-0.27-0.25-0.63-0.27-0.97-0.27h-3.24c-0.15,0-0.32,0-0.46,0.13c-0.15,0.13-0.15,0.3-0.15,0.42v2
				H179.56z M175.74,108.57c0,0.17,0.04,0.38,0.13,0.51c0.15,0.17,0.34,0.17,0.53,0.17h3.07c0.36,0,0.84-0.04,1.14-0.34
				c0.32-0.32,0.34-0.82,0.34-1.18c0-0.34-0.02-0.76-0.3-1.05c-0.32-0.34-0.78-0.36-1.05-0.36h-3.85V108.57z"/>
			<path class="st1" d="M199.14,99.98c0.57,0,1.12,0.04,1.54,0.55c0.34,0.4,0.36,0.82,0.36,1.31v9.31h-2.46v-8.61
				c0-0.15,0-0.4-0.15-0.53c-0.11-0.08-0.32-0.13-0.44-0.13h-4.17c-0.21,0-0.36,0.06-0.42,0.13c-0.11,0.11-0.17,0.34-0.17,0.53v8.61
				h-2.46v-9.31c0-0.4-0.02-0.84,0.38-1.31c0.48-0.55,1.03-0.55,1.52-0.55H199.14z"/>
			<path class="st1" d="M205.66,114.72h-2.46v-13.01c0-0.74,0.36-1.16,0.63-1.37c0.42-0.32,0.97-0.36,1.39-0.36h3.9
				c0.72,0,2.21,0.11,3.28,1.22c1.14,1.18,1.18,2.91,1.18,4.13c0,1.47-0.08,3.07-0.88,4.21c-1.05,1.52-2.78,1.6-3.92,1.6h-3.12
				V114.72z M208.46,109.24c1.22,0,1.83-0.59,2.11-1.03c0.23-0.34,0.46-1.01,0.46-2.67c0-1.52-0.17-2.11-0.3-2.4
				c-0.32-0.72-1.05-1.26-2.15-1.26h-2.42c-0.1,0-0.25,0.08-0.34,0.15c-0.13,0.13-0.17,0.25-0.17,0.38v6.84H208.46z"/>
			<path class="st1" d="M225.6,101.03c1.29,1.2,1.43,3.31,1.43,4.49c0,2.36-0.61,3.77-1.43,4.55c-1.2,1.12-3.22,1.2-4.51,1.2
				c-1.33,0-3.29-0.08-4.51-1.2c-1.33-1.22-1.43-3.33-1.43-4.46c0-1.26,0.15-3.37,1.43-4.57c1.22-1.14,3.18-1.18,4.51-1.18
				C222.42,99.85,224.38,99.9,225.6,101.03z M218.42,108.44c0.72,0.82,1.79,0.93,2.67,0.93c0.93,0,1.92-0.1,2.65-0.93
				c0.74-0.82,0.74-1.9,0.74-2.86c0-0.82,0.06-2.09-0.72-2.95c-0.72-0.8-1.79-0.88-2.67-0.88c-0.8,0-2,0.08-2.7,0.88
				c-0.7,0.8-0.7,2.23-0.7,2.95C217.71,106.51,217.73,107.64,218.42,108.44z"/>
			<path class="st1" d="M237.29,110.34c-0.17,0.44-0.55,0.93-1.43,0.93c-0.89,0-1.26-0.48-1.43-0.93l-2.86-7.24
				c-0.02-0.06-0.08-0.23-0.17-0.23c-0.13,0-0.13,0.13-0.13,0.19l0.1,8.09h-2.46v-9.69c0-1.1,0.91-1.6,1.92-1.6
				c0.93,0,1.54,0.3,1.89,1.2l2.82,7.1c0.04,0.1,0.21,0.44,0.32,0.44c0.1,0,0.27-0.34,0.32-0.44l2.82-7.1
				c0.36-0.91,0.97-1.2,1.9-1.2c1.01,0,1.92,0.51,1.92,1.6v9.69h-2.46l0.1-8.09c0-0.13-0.08-0.21-0.13-0.21
				c-0.06,0-0.15,0.17-0.19,0.25L237.29,110.34z"/>
			<path class="st1" d="M247.43,99.98v4.23h5.03c0.7,0,1.47,0.15,2.09,0.84c0.67,0.78,0.74,1.85,0.74,2.74
				c0,0.74-0.04,2.04-0.84,2.76c-0.63,0.57-1.45,0.59-2.15,0.59h-5.66c-0.38,0-0.84-0.02-1.24-0.4c-0.42-0.4-0.42-0.86-0.42-1.31
				v-9.46H247.43z M247.43,108.47c0,0.17-0.02,0.44,0.15,0.61c0.15,0.15,0.36,0.17,0.55,0.17h3.22c0.36,0,0.8-0.02,1.1-0.36
				c0.27-0.32,0.29-0.84,0.29-1.24c0-0.32,0.02-0.84-0.29-1.18c-0.3-0.34-0.74-0.36-1.01-0.36h-4V108.47z M256.61,99.98h2.46v11.16
				h-2.46V99.98z"/>
			<path class="st1" d="M270.26,99.98v9.27h3.52c0.13,0,0.34-0.02,0.46-0.19c0.11-0.15,0.11-0.36,0.11-0.55v-8.53h2.46v9.48
				c0,0.51,0,0.89-0.4,1.26c-0.46,0.42-0.99,0.42-1.56,0.42H263.2c-0.55,0-1.14,0-1.56-0.42c-0.36-0.36-0.4-0.8-0.4-1.26v-9.48h2.46
				v8.53c0,0.19,0,0.4,0.11,0.55c0.13,0.17,0.34,0.19,0.48,0.19h3.5v-9.27H270.26z"/>
			<path class="st1" d="M282.45,100.78c0.29-0.65,0.97-0.93,1.64-0.93c0.67,0,1.35,0.27,1.64,0.93l4.53,10.36h-2.53l-3.43-8.61
				c-0.04-0.11-0.11-0.32-0.21-0.32c-0.1,0-0.17,0.21-0.21,0.32l-3.43,8.61h-2.53L282.45,100.78z"/>
			<path class="st1" d="M295.29,111.14c-1.14,0-2.49-0.11-3.41-1.41c-0.74-1.05-0.8-2.59-0.8-4.06c0-2.09,0.1-3.62,1.33-4.67
				c1.22-1.05,3.12-1.05,4.17-1.05c1.31,0,2.65,0.06,3.69,0.72c1.31,0.82,1.58,2.21,1.58,3.62c0,0.57-0.06,1.22-0.53,1.68
				c-0.34,0.34-0.76,0.42-1.2,0.42h-6.49c0,0.48,0.06,1.2,0.15,1.54c0.32,1.2,1.35,1.33,2.25,1.33h5.45v1.9H295.29z M298.74,104.49
				c0.48,0,0.55-0.36,0.55-0.65c0-0.7-0.36-1.22-0.72-1.5c-0.61-0.46-1.41-0.51-2.11-0.51c-0.65,0-1.66-0.02-2.34,0.74
				c-0.51,0.57-0.48,1.18-0.51,1.92H298.74z"/>
			<path class="st1" d="M311.5,111.14v-4.8h-5.33v4.8h-2.46V99.98h2.46v4.46h5.33v-4.46h2.46v11.16H311.5z"/>
			<path class="st1" d="M323.92,111.14v-4.8h-5.33v4.8h-2.46V99.98h2.46v4.46h5.33v-4.46h2.46v11.16H323.92z"/>
			<path class="st1" d="M338.7,101.03c1.29,1.2,1.43,3.31,1.43,4.49c0,2.36-0.61,3.77-1.43,4.55c-1.2,1.12-3.22,1.2-4.51,1.2
				c-1.33,0-3.29-0.08-4.51-1.2c-1.33-1.22-1.43-3.33-1.43-4.46c0-1.26,0.15-3.37,1.43-4.57c1.22-1.14,3.18-1.18,4.51-1.18
				C335.52,99.85,337.48,99.9,338.7,101.03z M331.52,108.44c0.72,0.82,1.79,0.93,2.67,0.93c0.93,0,1.92-0.1,2.65-0.93
				c0.74-0.82,0.74-1.9,0.74-2.86c0-0.82,0.06-2.09-0.72-2.95c-0.72-0.8-1.79-0.88-2.67-0.88c-0.8,0-2,0.08-2.7,0.88
				c-0.7,0.8-0.7,2.23-0.7,2.95C330.81,106.51,330.83,107.64,331.52,108.44z"/>
			<path class="st1" d="M346.05,111.14c-0.84,0-2.32-0.17-3.33-1.37c-0.93-1.09-1.01-2.48-1.01-4.06c0-1.33,0.02-3.24,1.26-4.53
				c0.46-0.46,1.41-1.2,3.41-1.2h4.78v1.9h-3.98c-1.66,0-2.46,0.82-2.74,1.77c-0.17,0.59-0.19,1.77-0.19,2.11
				c0,0.65,0.06,1.73,0.36,2.32c0.55,1.07,1.77,1.18,2.8,1.18h4v1.9H346.05z"/>
			<path class="st1" d="M356.64,111.14v-9.27h-4.19v-1.9h10.84v1.9h-4.19v9.27H356.64z"/>
			<path class="st1" d="M373.08,111.14l0.08-7.94c0-0.17,0.04-0.3-0.13-0.3c-0.04,0-0.13,0.04-0.3,0.3l-4.91,7.18
				c-0.4,0.59-0.76,0.88-1.6,0.88c-1.45,0-1.62-0.99-1.62-1.58v-9.71h2.46l-0.1,7.94c0,0.19,0,0.29,0.17,0.29
				c0.13,0,0.21-0.17,0.29-0.29l4.97-7.31c0.44-0.63,1.01-0.76,1.52-0.76c0.34,0,1.62,0.04,1.62,1.71v9.58H373.08z"/>
		</g>
		<g>
			<path class="st1" d="M183.6,58.43V47.74c0-0.08,0-0.34-0.17-0.34c-0.15,0-0.3,0.29-0.42,0.49l-6.11,9.64
				c-0.34,0.53-0.61,1.03-1.34,1.03c-0.95,0-1-0.91-1-1.37V46.58h0.91v10.52c0,0.24-0.05,0.51,0.2,0.51c0.15,0,0.24-0.22,0.32-0.34
				l6.01-9.57c0.47-0.75,0.73-1.25,1.49-1.25c1.02,0,1.02,1.17,1.02,1.47v10.52H183.6z"/>
			<path class="st1" d="M190.05,58.43c-1.27,0-2.12-0.51-2.64-1.13c-0.71-0.85-0.81-1.91-0.81-3.24c0-1.22,0.07-2.64,1.02-3.61
				c0.53-0.53,1.39-1,2.8-1h3.03v0.8h-3.13c-1.44,0-2.32,0.76-2.59,1.83c-0.12,0.49-0.17,1.66-0.17,2.1c0,0.59,0.08,1.61,0.3,2.12
				c0.53,1.19,1.83,1.34,2.64,1.34h3.15v0.8H190.05z"/>
			<path class="st1" d="M198.5,58.43c-1.27,0-2.12-0.51-2.64-1.13c-0.71-0.85-0.81-1.91-0.81-3.24c0-1.22,0.07-2.64,1.02-3.61
				c0.53-0.53,1.39-1,2.8-1h3.03v0.8h-3.13c-1.44,0-2.32,0.76-2.59,1.83c-0.12,0.49-0.17,1.66-0.17,2.1c0,0.59,0.08,1.61,0.3,2.12
				c0.53,1.19,1.83,1.34,2.64,1.34h3.15v0.8H198.5z"/>
			<path class="st1" d="M206.19,50.07c0.27-0.66,0.71-0.71,0.88-0.71s0.61,0.05,0.88,0.71l3.37,8.37h-1l-3.08-7.86
				c-0.03-0.1-0.08-0.27-0.17-0.27c-0.09,0-0.14,0.17-0.17,0.27l-3.08,7.86h-1L206.19,50.07z"/>
			<path class="st1" d="M215.15,58.43c-0.73,0-1.68-0.19-2.37-1.1c-0.69-0.9-0.73-2.03-0.73-3.35c0-1.25,0.07-2.78,1.2-3.73
				c0.81-0.68,1.91-0.8,2.81-0.8c0.63,0,1.56,0.08,2.29,0.51c0.36,0.22,1.44,0.97,1.44,2.85c0,0.25-0.02,0.86-0.37,1.17
				c-0.27,0.24-0.69,0.27-0.95,0.27H213c-0.02,0.53,0.02,1.36,0.15,1.83c0.2,0.73,0.81,1.56,2,1.56h4.4v0.8H215.15z M218.47,53.45
				c0.39,0,0.37-0.47,0.37-0.59c0-0.88-0.3-1.47-0.61-1.83c-0.64-0.76-1.52-0.78-2.32-0.78c-0.9,0-1.86,0.03-2.49,1.08
				c-0.36,0.59-0.41,1.24-0.42,2.12H218.47z"/>
			<path class="st1" d="M224.15,50.13c0.12-0.32,0.37-0.78,0.97-0.78c0.59,0,0.85,0.46,0.97,0.78l2.9,7.5h0.73v0.8h-9.18v-0.8h0.73
				L224.15,50.13z M222.18,57.64h5.86l-2.73-7.13c-0.03-0.08-0.12-0.25-0.2-0.25c-0.09,0-0.17,0.17-0.2,0.25L222.18,57.64z"/>
			<path class="st1" d="M231.55,50.34c0.88-0.86,2.19-0.98,3.32-0.98c1.14,0,2.44,0.12,3.32,0.98c0.98,0.97,1.12,2.56,1.12,3.56
				c0,1.95-0.54,3.05-1.12,3.62c-0.98,0.97-2.52,1.02-3.32,1.02c-0.8,0-2.34-0.05-3.32-1.02c-0.58-0.58-1.12-1.68-1.12-3.62
				C230.43,52.89,230.57,51.3,231.55,50.34z M232.11,56.88c0.71,0.78,1.85,0.86,2.76,0.86c0.91,0,2.05-0.09,2.76-0.86
				c0.74-0.81,0.73-2.17,0.73-2.9c0-0.78,0-2.2-0.71-3c-0.69-0.76-1.93-0.83-2.78-0.83c-0.85,0-2.08,0.07-2.78,0.83
				c-0.71,0.8-0.71,2.22-0.71,3C231.38,54.71,231.36,56.06,232.11,56.88z"/>
			<path class="st1" d="M241.05,50.52c0-0.31,0.12-0.59,0.29-0.76c0.19-0.19,0.49-0.3,0.76-0.3h3.91c0.37,0,1.17,0.05,1.66,0.66
				c0.39,0.47,0.46,1.2,0.46,1.74c0,0.46-0.02,0.95-0.34,1.36c-0.15,0.2-0.42,0.46-0.9,0.53v0.03c0.44,0.08,0.75,0.32,0.93,0.58
				c0.3,0.41,0.3,0.9,0.3,1.36c0,0.74-0.03,1.56-0.59,2.17c-0.44,0.47-0.95,0.56-1.36,0.56h-4.17c-0.3,0-0.59-0.12-0.74-0.29
				c-0.2-0.22-0.22-0.51-0.22-0.78V50.52z M245.86,53.35c0.37,0,0.69-0.03,0.98-0.37c0.32-0.36,0.34-0.81,0.34-1.22
				c0-0.34,0-0.86-0.37-1.2c-0.31-0.29-0.69-0.3-0.95-0.3h-3.57c-0.07,0-0.22,0.03-0.27,0.08c-0.05,0.05-0.08,0.17-0.08,0.24v2.78
				H245.86z M241.93,57.08c0,0.15,0.02,0.32,0.1,0.42c0.12,0.14,0.27,0.14,0.44,0.14h3.2c0.49,0,0.88-0.02,1.19-0.39
				c0.32-0.39,0.32-0.93,0.32-1.39c0-0.39,0-0.91-0.32-1.3c-0.29-0.34-0.64-0.41-1-0.41h-3.93V57.08z"/>
			<path class="st1" d="M254.62,49.46c0.61,0,1.22,0.24,1.58,0.63c0.47,0.51,0.54,1.25,0.54,1.8v5.37c0,0.24-0.02,0.66-0.3,0.93
				c-0.27,0.25-0.71,0.25-1.02,0.25h-3.46c-0.51,0-1.14-0.02-1.63-0.41c-0.75-0.61-0.8-1.83-0.8-2.37c0-0.73,0.1-1.57,0.74-2.12
				c0.49-0.41,1.17-0.47,1.68-0.47h3.9v-1.34c0-0.29-0.12-0.8-0.34-1.07c-0.19-0.22-0.53-0.41-0.95-0.41h-4.35v-0.8H254.62z
				 M251.76,53.86c-0.53,0-0.85,0.25-0.98,0.44c-0.22,0.29-0.29,0.76-0.29,1.39c0,0.54,0.05,1.19,0.36,1.56
				c0.19,0.22,0.51,0.39,0.88,0.39h3.63c0.1,0,0.27,0,0.39-0.1c0.12-0.1,0.12-0.19,0.12-0.3v-3.37H251.76z"/>
			<path class="st1" d="M261.19,58.43v-8.18h-3.39v-0.8h7.66v0.8h-3.39v8.18H261.19z"/>
			<path class="st1" d="M269.29,58.43c-0.73,0-1.68-0.19-2.37-1.1c-0.69-0.9-0.73-2.03-0.73-3.35c0-1.25,0.07-2.78,1.2-3.73
				c0.81-0.68,1.91-0.8,2.81-0.8c0.63,0,1.56,0.08,2.29,0.51c0.36,0.22,1.44,0.97,1.44,2.85c0,0.25-0.02,0.86-0.37,1.17
				c-0.27,0.24-0.69,0.27-0.95,0.27h-5.47c-0.02,0.53,0.02,1.36,0.15,1.83c0.2,0.73,0.81,1.56,2,1.56h4.4v0.8H269.29z M272.61,53.45
				c0.39,0,0.37-0.47,0.37-0.59c0-0.88-0.3-1.47-0.61-1.83c-0.64-0.76-1.52-0.78-2.32-0.78c-0.9,0-1.86,0.03-2.49,1.08
				c-0.36,0.59-0.41,1.24-0.42,2.12H272.61z"/>
			<path class="st1" d="M278.03,50.07c0.27-0.66,0.71-0.71,0.88-0.71s0.61,0.05,0.88,0.71l3.37,8.37h-1l-3.08-7.86
				c-0.03-0.1-0.08-0.27-0.17-0.27c-0.09,0-0.14,0.17-0.17,0.27l-3.08,7.86h-1L278.03,50.07z"/>
			<path class="st1" d="M285.11,49.46v3.84h4.15c0.39,0,1.03,0.05,1.53,0.53c0.56,0.54,0.63,1.36,0.63,1.95
				c0,0.53-0.05,1.64-0.66,2.22c-0.47,0.44-1.05,0.44-1.66,0.44h-3.9c-0.25,0-0.54,0-0.74-0.2c-0.22-0.22-0.22-0.54-0.22-0.83v-7.94
				H285.11z M285.11,57.11c0,0.09,0.02,0.34,0.05,0.41c0.09,0.14,0.25,0.12,0.37,0.12h3.73c0.29,0,0.64-0.03,0.91-0.42
				c0.15-0.2,0.29-0.58,0.29-1.46c0-0.32-0.02-0.9-0.3-1.27c-0.29-0.36-0.68-0.39-0.9-0.39h-4.15V57.11z"/>
			<path class="st1" d="M296.27,58.43c-1.27,0-2.12-0.51-2.64-1.13c-0.71-0.85-0.81-1.91-0.81-3.24c0-1.22,0.07-2.64,1.02-3.61
				c0.53-0.53,1.39-1,2.8-1h3.03v0.8h-3.13c-1.44,0-2.32,0.76-2.59,1.83c-0.12,0.49-0.17,1.66-0.17,2.1c0,0.59,0.08,1.61,0.3,2.12
				c0.53,1.19,1.83,1.34,2.64,1.34h3.15v0.8H296.27z"/>
			<path class="st1" d="M301.61,58.43v-8.98h0.88v8.98H301.61z M307.27,58.43l-3.78-3.56c-0.46-0.42-0.58-0.8-0.58-1.07
				c0-0.42,0.41-0.9,0.69-1.17l3.42-3.18h1.2l-4,3.78c-0.12,0.12-0.37,0.36-0.37,0.58c0,0.15,0.17,0.39,0.27,0.49l4.39,4.13H307.27z
				"/>
			<path class="st1" d="M316.21,58.43v-7.81c0-0.1,0.02-0.2-0.09-0.2c-0.02,0-0.07,0.02-0.19,0.2l-4.57,7.27
				c-0.29,0.44-0.52,0.64-0.97,0.64c-0.51,0-0.81-0.34-0.81-0.93v-8.15h0.88v7.81c0,0.09,0,0.22,0.1,0.22c0.07,0,0.12-0.1,0.19-0.22
				l4.62-7.37c0.22-0.36,0.53-0.54,0.93-0.54c0.76,0,0.78,0.78,0.78,1.03v8.05H316.21z"/>
			<path class="st1" d="M325.8,58.43v-7.81c0-0.1,0.02-0.2-0.08-0.2c-0.02,0-0.07,0.02-0.19,0.2l-4.57,7.27
				c-0.29,0.44-0.53,0.64-0.97,0.64c-0.51,0-0.81-0.34-0.81-0.93v-8.15h0.88v7.81c0,0.09,0,0.22,0.1,0.22c0.07,0,0.12-0.1,0.19-0.22
				l4.62-7.37c0.22-0.36,0.53-0.54,0.93-0.54c0.76,0,0.78,0.78,0.78,1.03v8.05H325.8z M324.09,47.81c0.17-0.15,0.36-0.46,0.44-0.73
				h1.02c-0.14,0.44-0.42,1-0.83,1.34c-0.49,0.42-1.12,0.54-1.73,0.54c-0.61,0-1.24-0.12-1.73-0.54c-0.41-0.34-0.69-0.9-0.83-1.34
				h1.02c0.09,0.27,0.27,0.58,0.44,0.73c0.22,0.2,0.59,0.34,1.1,0.34C323.49,48.15,323.87,48.02,324.09,47.81z"/>
			<path class="st1" d="M334.39,58.43c-0.24,0-0.69-0.02-0.97-0.24c-0.31-0.25-0.32-0.73-0.32-0.91v-7.83h0.88v7.57
				c0,0.1,0,0.37,0.12,0.49c0.1,0.1,0.36,0.12,0.51,0.12h4.71v-8.18h0.88v8.18h1.17v0.8H334.39z"/>
			<path class="st1" d="M345.19,58.43c-0.73,0-1.68-0.19-2.37-1.1c-0.69-0.9-0.73-2.03-0.73-3.35c0-1.25,0.07-2.78,1.2-3.73
				c0.81-0.68,1.91-0.8,2.81-0.8c0.63,0,1.56,0.08,2.29,0.51c0.36,0.22,1.44,0.97,1.44,2.85c0,0.25-0.02,0.86-0.37,1.17
				c-0.27,0.24-0.69,0.27-0.95,0.27h-5.47c-0.02,0.53,0.02,1.36,0.15,1.83c0.2,0.73,0.81,1.56,2,1.56h4.4v0.8H345.19z M348.51,53.45
				c0.39,0,0.37-0.47,0.37-0.59c0-0.88-0.3-1.47-0.61-1.83c-0.64-0.76-1.52-0.78-2.32-0.78c-0.9,0-1.86,0.03-2.49,1.08
				c-0.36,0.59-0.41,1.24-0.42,2.12H348.51z"/>
			<path class="st1" d="M357.85,58.43V54.2h-5.39v4.23h-0.88v-8.98h0.88v3.95h5.39v-3.95h0.88v8.98H357.85z"/>
			<path class="st1" d="M363.18,58.43v-8.18h-3.39v-0.8h7.66v0.8h-3.39v8.18H363.18z"/>
			<path class="st1" d="M369.4,61.31h-0.88V50.57c0-0.47,0.29-0.74,0.42-0.85c0.34-0.25,0.75-0.27,1-0.27h2.27
				c0.59,0,1.8,0.08,2.68,1.03c0.91,0.97,0.95,2.25,0.95,3.32c0,1.13-0.07,2.3-0.71,3.29c-0.71,1.07-1.73,1.34-3.18,1.34h-2.54
				V61.31z M372.3,57.64c0.81,0,1.63-0.32,2.08-1.02c0.41-0.63,0.51-1.53,0.51-2.69c0-1.24-0.12-1.91-0.32-2.37
				c-0.42-0.95-1.36-1.3-2.17-1.3h-2.59c-0.09,0-0.2,0.07-0.27,0.12c-0.12,0.1-0.14,0.2-0.14,0.32v6.94H372.3z"/>
		</g>
		<g>
			<path class="st1" d="M178.66,84.68c-0.16-0.31-0.44-0.98-0.44-3c0-0.88,0.08-2.35,0.59-3.26c0.8-1.45,2.22-1.42,4.13-1.42h4.83
				v-4.49h-7.65c-2.04,0-4.68,0.23-6.33,2.35c-1.29,1.63-1.58,3.9-1.58,6.92c0,3.46,0.57,5.24,1.65,6.59
				c1.47,1.83,3.36,2.22,6.17,2.22h8.01V86.1h-5.01C181.11,86.1,179.43,86.1,178.66,84.68z"/>
			<path class="st1" d="M205.66,72.31c-1.06,0-2.76,0.1-3.9,2.12l-4.99,8.71c-0.23,0.41-0.36,0.65-0.52,0.65
				c-0.31,0-0.31-0.39-0.31-0.62c0-0.1,0-0.18,0-0.29l0.26-10.36h-5.94v13.95c0,2.17,0.47,4.34,4.03,4.34c2.51,0,3.41-0.98,3.9-1.83
				l5.14-8.78c0.36-0.59,0.52-0.88,0.67-0.88c0.26,0,0.26,0.34,0.26,0.67L204,90.6h5.94V76.78
				C209.94,75.3,209.79,72.31,205.66,72.31z"/>
			<path class="st1" d="M221.7,72.31c-1.11,0-3.15,0.1-3.9,1.86l-6.95,16.43h6.2l4.37-11.96c0.05-0.1,0.16-0.44,0.28-0.44
				s0.23,0.34,0.28,0.44l4.37,11.96h6.2l-6.95-16.43C224.86,72.41,222.82,72.31,221.7,72.31z"/>
			<path class="st1" d="M247.41,79.05h-8.11v-6.54h-5.84v14.67c0,0.83,0.1,1.78,0.75,2.53c0.39,0.44,1.06,0.88,1.83,0.88h11.21
				c1.94,0,3.13-1.03,3.62-1.76c0.72-1.08,0.85-2.66,0.85-3.93c0-1.29-0.1-2.56-0.7-3.8C250.1,79.18,248.47,79.05,247.41,79.05z
				 M245.14,85.95c-0.34,0.21-0.8,0.16-1.71,0.16h-3.02c-0.34,0-0.75,0-0.96-0.29c-0.16-0.21-0.16-0.54-0.16-0.8v-1.89h4.24
				c0.7,0,1.14-0.03,1.5,0.1c0.65,0.26,0.7,0.8,0.7,1.27C245.73,85.35,245.42,85.79,245.14,85.95z"/>
			<polygon class="st1" points="266.59,78.92 260.03,78.92 260.03,72.51 254.19,72.51 254.19,90.6 260.03,90.6 260.03,83.42 
				266.59,83.42 266.59,90.6 272.42,90.6 272.42,72.51 266.59,72.51 			"/>
			<path class="st1" d="M289.35,79.05h-8.11v-6.54h-5.84v14.67c0,0.83,0.1,1.78,0.75,2.53c0.39,0.44,1.06,0.88,1.83,0.88h11.21
				c1.94,0,3.13-1.03,3.62-1.76c0.72-1.08,0.85-2.66,0.85-3.93c0-1.29-0.1-2.56-0.7-3.8C292.04,79.18,290.41,79.05,289.35,79.05z
				 M287.08,85.95c-0.34,0.21-0.8,0.16-1.71,0.16h-3.02c-0.34,0-0.75,0-0.96-0.29c-0.16-0.21-0.16-0.54-0.16-0.8v-1.89h4.24
				c0.7,0,1.14-0.03,1.5,0.1c0.65,0.26,0.7,0.8,0.7,1.27C287.67,85.35,287.36,85.79,287.08,85.95z"/>
			<rect x="295.32" y="72.51" class="st1" width="5.84" height="18.08"/>
			<path class="st1" d="M319.53,72.31c-1.06,0-2.76,0.1-3.9,2.12l-4.99,8.71c-0.23,0.41-0.36,0.65-0.52,0.65
				c-0.34,0-0.31-0.47-0.31-0.9l0.26-10.36h-5.94v13.95c0,2.17,0.47,4.34,4.03,4.34c2.51,0,3.41-0.98,3.9-1.83l5.14-8.78
				c0.36-0.59,0.52-0.88,0.67-0.88c0.26,0,0.26,0.34,0.26,0.67l-0.26,10.62h5.94V76.78C323.82,75.3,323.66,72.31,319.53,72.31z"/>
			<path class="st1" d="M348.6,72.31c-1.06,0-2.76,0.1-3.9,2.12l-4.99,8.71c-0.23,0.41-0.36,0.65-0.52,0.65
				c-0.31,0-0.31-0.39-0.31-0.62c0-0.1,0-0.18,0-0.29l0.26-10.36h-5.94v13.95c0,2.17,0.47,4.34,4.03,4.34c2.51,0,3.41-0.98,3.9-1.83
				l5.14-8.78c0.36-0.59,0.52-0.88,0.67-0.88c0.26,0,0.26,0.34,0.26,0.67l-0.26,10.62h5.94V76.78
				C352.89,75.3,352.73,72.31,348.6,72.31z"/>
			<path class="st1" d="M371.26,72.31c-1.06,0-2.76,0.1-3.9,2.12l-4.99,8.71c-0.23,0.41-0.36,0.65-0.52,0.65
				c-0.31,0-0.31-0.39-0.31-0.62c0-0.1,0-0.18,0-0.29l0.26-10.36h-5.94v13.95c0,2.17,0.47,4.34,4.03,4.34c2.51,0,3.41-0.98,3.9-1.83
				l5.14-8.78c0.36-0.59,0.52-0.88,0.67-0.88c0.26,0,0.26,0.34,0.26,0.67l-0.26,10.62h5.94V76.78
				C375.55,75.3,375.39,72.31,371.26,72.31z"/>
			<path class="st1" d="M307.73,68.88c0.45,0.84,1.07,1.67,1.75,2.18c1.14,0.85,2.84,1.24,4.42,1.24c1.58,0,3.28-0.39,4.42-1.24
				c0.69-0.52,1.3-1.35,1.75-2.18H307.73z"/>
		</g>
	</g>
	<g>
		<path class="st1" d="M123.39,99.77c-0.01,0.01-0.01,0.03-0.02,0.04l-11.84-7.16h0c-4.07,6.87-11.56,11.48-20.13,11.48
			c-12.92,0-23.39-10.47-23.39-23.39c0-12.92,10.47-23.39,23.39-23.39c0.02,0,0.03,0,0.05,0V43.52c0,0,0.01,0,0.01,0v-7.51
			c-0.02,0-0.04,0-0.05,0c-24.7,0-44.73,20.03-44.73,44.73c0,24.7,20.03,44.73,44.73,44.73c16.33,0,30.61-8.75,38.42-21.82
			L123.39,99.77z"/>
		<path class="st2" d="M114.78,80.74h21.34c0-11.45-4.37-22.9-13.1-31.63c-2.67-2.67-5.61-4.92-8.71-6.77l-10.93,18.32
			c1.62,0.97,3.16,2.14,4.56,3.54C112.5,68.76,114.78,74.75,114.78,80.74z"/>
	</g>
</g>
</svg>
