<?xml version="1.0" encoding="utf-8" standalone="no"?>
<!DOCTYPE svg PUBLIC "-//W3C//DTD SVG 1.1//EN"
  "http://www.w3.org/Graphics/SVG/1.1/DTD/svg11.dtd">
<svg xmlns:xlink="http://www.w3.org/1999/xlink" width="1080pt" height="216pt" viewBox="0 0 1080 216" xmlns="http://www.w3.org/2000/svg" version="1.1">
 <metadata>
  <rdf:RDF xmlns:dc="http://purl.org/dc/elements/1.1/" xmlns:cc="http://creativecommons.org/ns#" xmlns:rdf="http://www.w3.org/1999/02/22-rdf-syntax-ns#">
   <cc:Work>
    <dc:type rdf:resource="http://purl.org/dc/dcmitype/StillImage"/>
    <dc:date>2023-11-03T13:50:53.243197</dc:date>
    <dc:format>image/svg+xml</dc:format>
    <dc:creator>
     <cc:Agent>
      <dc:title>Matplotlib v3.7.1, https://matplotlib.org/</dc:title>
     </cc:Agent>
    </dc:creator>
   </cc:Work>
  </rdf:RDF>
 </metadata>
 <defs>
  <style type="text/css">*{stroke-linejoin: round; stroke-linecap: butt}</style>
 </defs>
 <g id="figure_1">
  <g id="patch_1">
   <path d="M 0 216 
L 1080 216 
L 1080 0 
L 0 0 
z
" style="fill: #ffffff"/>
  </g>
  <g id="axes_1">
   <g id="patch_2">
    <path d="M 44.57 174.04 
L 522.679873 174.04 
L 522.679873 10.8 
L 44.57 10.8 
z
" style="fill: #ffffff"/>
   </g>
   <g id="matplotlib.axis_1">
    <g id="xtick_1">
     <g id="line2d_1">
      <defs>
       <path id="m7d50e15d4f" d="M 0 0 
L 0 3.5 
" style="stroke: #000000; stroke-width: 0.8"/>
      </defs>
      <g>
       <use xlink:href="#m7d50e15d4f" x="66.302267" y="174.04" style="stroke: #000000; stroke-width: 0.8"/>
      </g>
     </g>
     <g id="text_1">
      <!-- 0 -->
      <g transform="translate(63.121017 188.638438) scale(0.1 -0.1)">
       <defs>
        <path id="DejaVuSans-30" d="M 2034 4250 
Q 1547 4250 1301 3770 
Q 1056 3291 1056 2328 
Q 1056 1369 1301 889 
Q 1547 409 2034 409 
Q 2525 409 2770 889 
Q 3016 1369 3016 2328 
Q 3016 3291 2770 3770 
Q 2525 4250 2034 4250 
z
M 2034 4750 
Q 2819 4750 3233 4129 
Q 3647 3509 3647 2328 
Q 3647 1150 3233 529 
Q 2819 -91 2034 -91 
Q 1250 -91 836 529 
Q 422 1150 422 2328 
Q 422 3509 836 4129 
Q 1250 4750 2034 4750 
z
" transform="scale(0.015625)"/>
       </defs>
       <use xlink:href="#DejaVuSans-30"/>
      </g>
     </g>
    </g>
    <g id="xtick_2">
     <g id="line2d_2">
      <g>
       <use xlink:href="#m7d50e15d4f" x="131.368934" y="174.04" style="stroke: #000000; stroke-width: 0.8"/>
      </g>
     </g>
     <g id="text_2">
      <!-- 25 -->
      <g transform="translate(125.006434 188.638438) scale(0.1 -0.1)">
       <defs>
        <path id="DejaVuSans-32" d="M 1228 531 
L 3431 531 
L 3431 0 
L 469 0 
L 469 531 
Q 828 903 1448 1529 
Q 2069 2156 2228 2338 
Q 2531 2678 2651 2914 
Q 2772 3150 2772 3378 
Q 2772 3750 2511 3984 
Q 2250 4219 1831 4219 
Q 1534 4219 1204 4116 
Q 875 4013 500 3803 
L 500 4441 
Q 881 4594 1212 4672 
Q 1544 4750 1819 4750 
Q 2544 4750 2975 4387 
Q 3406 4025 3406 3419 
Q 3406 3131 3298 2873 
Q 3191 2616 2906 2266 
Q 2828 2175 2409 1742 
Q 1991 1309 1228 531 
z
" transform="scale(0.015625)"/>
        <path id="DejaVuSans-35" d="M 691 4666 
L 3169 4666 
L 3169 4134 
L 1269 4134 
L 1269 2991 
Q 1406 3038 1543 3061 
Q 1681 3084 1819 3084 
Q 2600 3084 3056 2656 
Q 3513 2228 3513 1497 
Q 3513 744 3044 326 
Q 2575 -91 1722 -91 
Q 1428 -91 1123 -41 
Q 819 9 494 109 
L 494 744 
Q 775 591 1075 516 
Q 1375 441 1709 441 
Q 2250 441 2565 725 
Q 2881 1009 2881 1497 
Q 2881 1984 2565 2268 
Q 2250 2553 1709 2553 
Q 1456 2553 1204 2497 
Q 953 2441 691 2322 
L 691 4666 
z
" transform="scale(0.015625)"/>
       </defs>
       <use xlink:href="#DejaVuSans-32"/>
       <use xlink:href="#DejaVuSans-35" x="63.623047"/>
      </g>
     </g>
    </g>
    <g id="xtick_3">
     <g id="line2d_3">
      <g>
       <use xlink:href="#m7d50e15d4f" x="196.435602" y="174.04" style="stroke: #000000; stroke-width: 0.8"/>
      </g>
     </g>
     <g id="text_3">
      <!-- 50 -->
      <g transform="translate(190.073102 188.638438) scale(0.1 -0.1)">
       <use xlink:href="#DejaVuSans-35"/>
       <use xlink:href="#DejaVuSans-30" x="63.623047"/>
      </g>
     </g>
    </g>
    <g id="xtick_4">
     <g id="line2d_4">
      <g>
       <use xlink:href="#m7d50e15d4f" x="261.502269" y="174.04" style="stroke: #000000; stroke-width: 0.8"/>
      </g>
     </g>
     <g id="text_4">
      <!-- 75 -->
      <g transform="translate(255.139769 188.638438) scale(0.1 -0.1)">
       <defs>
        <path id="DejaVuSans-37" d="M 525 4666 
L 3525 4666 
L 3525 4397 
L 1831 0 
L 1172 0 
L 2766 4134 
L 525 4134 
L 525 4666 
z
" transform="scale(0.015625)"/>
       </defs>
       <use xlink:href="#DejaVuSans-37"/>
       <use xlink:href="#DejaVuSans-35" x="63.623047"/>
      </g>
     </g>
    </g>
    <g id="xtick_5">
     <g id="line2d_5">
      <g>
       <use xlink:href="#m7d50e15d4f" x="326.568937" y="174.04" style="stroke: #000000; stroke-width: 0.8"/>
      </g>
     </g>
     <g id="text_5">
      <!-- 100 -->
      <g transform="translate(317.025187 188.638438) scale(0.1 -0.1)">
       <defs>
        <path id="DejaVuSans-31" d="M 794 531 
L 1825 531 
L 1825 4091 
L 703 3866 
L 703 4441 
L 1819 4666 
L 2450 4666 
L 2450 531 
L 3481 531 
L 3481 0 
L 794 0 
L 794 531 
z
" transform="scale(0.015625)"/>
       </defs>
       <use xlink:href="#DejaVuSans-31"/>
       <use xlink:href="#DejaVuSans-30" x="63.623047"/>
       <use xlink:href="#DejaVuSans-30" x="127.246094"/>
      </g>
     </g>
    </g>
    <g id="xtick_6">
     <g id="line2d_6">
      <g>
       <use xlink:href="#m7d50e15d4f" x="391.635604" y="174.04" style="stroke: #000000; stroke-width: 0.8"/>
      </g>
     </g>
     <g id="text_6">
      <!-- 125 -->
      <g transform="translate(382.091854 188.638438) scale(0.1 -0.1)">
       <use xlink:href="#DejaVuSans-31"/>
       <use xlink:href="#DejaVuSans-32" x="63.623047"/>
       <use xlink:href="#DejaVuSans-35" x="127.246094"/>
      </g>
     </g>
    </g>
    <g id="xtick_7">
     <g id="line2d_7">
      <g>
       <use xlink:href="#m7d50e15d4f" x="456.702272" y="174.04" style="stroke: #000000; stroke-width: 0.8"/>
      </g>
     </g>
     <g id="text_7">
      <!-- 150 -->
      <g transform="translate(447.158522 188.638438) scale(0.1 -0.1)">
       <use xlink:href="#DejaVuSans-31"/>
       <use xlink:href="#DejaVuSans-35" x="63.623047"/>
       <use xlink:href="#DejaVuSans-30" x="127.246094"/>
      </g>
     </g>
    </g>
    <g id="xtick_8">
     <g id="line2d_8">
      <g>
       <use xlink:href="#m7d50e15d4f" x="521.768939" y="174.04" style="stroke: #000000; stroke-width: 0.8"/>
      </g>
     </g>
     <g id="text_8">
      <!-- 175 -->
      <g transform="translate(512.225189 188.638438) scale(0.1 -0.1)">
       <use xlink:href="#DejaVuSans-31"/>
       <use xlink:href="#DejaVuSans-37" x="63.623047"/>
       <use xlink:href="#DejaVuSans-35" x="127.246094"/>
      </g>
     </g>
    </g>
    <g id="text_9">
     <!-- Time -->
     <g transform="translate(271.391343 202.316563) scale(0.1 -0.1)">
      <defs>
       <path id="DejaVuSans-54" d="M -19 4666 
L 3928 4666 
L 3928 4134 
L 2272 4134 
L 2272 0 
L 1638 0 
L 1638 4134 
L -19 4134 
L -19 4666 
z
" transform="scale(0.015625)"/>
       <path id="DejaVuSans-69" d="M 603 3500 
L 1178 3500 
L 1178 0 
L 603 0 
L 603 3500 
z
M 603 4863 
L 1178 4863 
L 1178 4134 
L 603 4134 
L 603 4863 
z
" transform="scale(0.015625)"/>
       <path id="DejaVuSans-6d" d="M 3328 2828 
Q 3544 3216 3844 3400 
Q 4144 3584 4550 3584 
Q 5097 3584 5394 3201 
Q 5691 2819 5691 2113 
L 5691 0 
L 5113 0 
L 5113 2094 
Q 5113 2597 4934 2840 
Q 4756 3084 4391 3084 
Q 3944 3084 3684 2787 
Q 3425 2491 3425 1978 
L 3425 0 
L 2847 0 
L 2847 2094 
Q 2847 2600 2669 2842 
Q 2491 3084 2119 3084 
Q 1678 3084 1418 2786 
Q 1159 2488 1159 1978 
L 1159 0 
L 581 0 
L 581 3500 
L 1159 3500 
L 1159 2956 
Q 1356 3278 1631 3431 
Q 1906 3584 2284 3584 
Q 2666 3584 2933 3390 
Q 3200 3197 3328 2828 
z
" transform="scale(0.015625)"/>
       <path id="DejaVuSans-65" d="M 3597 1894 
L 3597 1613 
L 953 1613 
Q 991 1019 1311 708 
Q 1631 397 2203 397 
Q 2534 397 2845 478 
Q 3156 559 3463 722 
L 3463 178 
Q 3153 47 2828 -22 
Q 2503 -91 2169 -91 
Q 1331 -91 842 396 
Q 353 884 353 1716 
Q 353 2575 817 3079 
Q 1281 3584 2069 3584 
Q 2775 3584 3186 3129 
Q 3597 2675 3597 1894 
z
M 3022 2063 
Q 3016 2534 2758 2815 
Q 2500 3097 2075 3097 
Q 1594 3097 1305 2825 
Q 1016 2553 972 2059 
L 3022 2063 
z
" transform="scale(0.015625)"/>
      </defs>
      <use xlink:href="#DejaVuSans-54"/>
      <use xlink:href="#DejaVuSans-69" x="57.958984"/>
      <use xlink:href="#DejaVuSans-6d" x="85.742188"/>
      <use xlink:href="#DejaVuSans-65" x="183.154297"/>
     </g>
    </g>
   </g>
   <g id="matplotlib.axis_2">
    <g id="ytick_1">
     <g id="line2d_9">
      <defs>
       <path id="m9392203be2" d="M 0 0 
L -3.5 0 
" style="stroke: #000000; stroke-width: 0.8"/>
      </defs>
      <g>
       <use xlink:href="#m9392203be2" x="44.57" y="166.62" style="stroke: #000000; stroke-width: 0.8"/>
      </g>
     </g>
     <g id="text_10">
      <!-- 0 -->
      <g transform="translate(31.2075 170.419219) scale(0.1 -0.1)">
       <use xlink:href="#DejaVuSans-30"/>
      </g>
     </g>
    </g>
    <g id="ytick_2">
     <g id="line2d_10">
      <g>
       <use xlink:href="#m9392203be2" x="44.57" y="126.727527" style="stroke: #000000; stroke-width: 0.8"/>
      </g>
     </g>
     <g id="text_11">
      <!-- 10 -->
      <g transform="translate(24.845 130.526746) scale(0.1 -0.1)">
       <use xlink:href="#DejaVuSans-31"/>
       <use xlink:href="#DejaVuSans-30" x="63.623047"/>
      </g>
     </g>
    </g>
    <g id="ytick_3">
     <g id="line2d_11">
      <g>
       <use xlink:href="#m9392203be2" x="44.57" y="86.835054" style="stroke: #000000; stroke-width: 0.8"/>
      </g>
     </g>
     <g id="text_12">
      <!-- 20 -->
      <g transform="translate(24.845 90.634273) scale(0.1 -0.1)">
       <use xlink:href="#DejaVuSans-32"/>
       <use xlink:href="#DejaVuSans-30" x="63.623047"/>
      </g>
     </g>
    </g>
    <g id="ytick_4">
     <g id="line2d_12">
      <g>
       <use xlink:href="#m9392203be2" x="44.57" y="46.942581" style="stroke: #000000; stroke-width: 0.8"/>
      </g>
     </g>
     <g id="text_13">
      <!-- 30 -->
      <g transform="translate(24.845 50.741799) scale(0.1 -0.1)">
       <defs>
        <path id="DejaVuSans-33" d="M 2597 2516 
Q 3050 2419 3304 2112 
Q 3559 1806 3559 1356 
Q 3559 666 3084 287 
Q 2609 -91 1734 -91 
Q 1441 -91 1130 -33 
Q 819 25 488 141 
L 488 750 
Q 750 597 1062 519 
Q 1375 441 1716 441 
Q 2309 441 2620 675 
Q 2931 909 2931 1356 
Q 2931 1769 2642 2001 
Q 2353 2234 1838 2234 
L 1294 2234 
L 1294 2753 
L 1863 2753 
Q 2328 2753 2575 2939 
Q 2822 3125 2822 3475 
Q 2822 3834 2567 4026 
Q 2313 4219 1838 4219 
Q 1578 4219 1281 4162 
Q 984 4106 628 3988 
L 628 4550 
Q 988 4650 1302 4700 
Q 1616 4750 1894 4750 
Q 2613 4750 3031 4423 
Q 3450 4097 3450 3541 
Q 3450 3153 3228 2886 
Q 3006 2619 2597 2516 
z
" transform="scale(0.015625)"/>
       </defs>
       <use xlink:href="#DejaVuSans-33"/>
       <use xlink:href="#DejaVuSans-30" x="63.623047"/>
      </g>
     </g>
    </g>
    <g id="text_14">
     <!-- Value -->
     <g transform="translate(18.765313 106.15125) rotate(-90) scale(0.1 -0.1)">
      <defs>
       <path id="DejaVuSans-56" d="M 1831 0 
L 50 4666 
L 709 4666 
L 2188 738 
L 3669 4666 
L 4325 4666 
L 2547 0 
L 1831 0 
z
" transform="scale(0.015625)"/>
       <path id="DejaVuSans-61" d="M 2194 1759 
Q 1497 1759 1228 1600 
Q 959 1441 959 1056 
Q 959 750 1161 570 
Q 1363 391 1709 391 
Q 2188 391 2477 730 
Q 2766 1069 2766 1631 
L 2766 1759 
L 2194 1759 
z
M 3341 1997 
L 3341 0 
L 2766 0 
L 2766 531 
Q 2569 213 2275 61 
Q 1981 -91 1556 -91 
Q 1019 -91 701 211 
Q 384 513 384 1019 
Q 384 1609 779 1909 
Q 1175 2209 1959 2209 
L 2766 2209 
L 2766 2266 
Q 2766 2663 2505 2880 
Q 2244 3097 1772 3097 
Q 1472 3097 1187 3025 
Q 903 2953 641 2809 
L 641 3341 
Q 956 3463 1253 3523 
Q 1550 3584 1831 3584 
Q 2591 3584 2966 3190 
Q 3341 2797 3341 1997 
z
" transform="scale(0.015625)"/>
       <path id="DejaVuSans-6c" d="M 603 4863 
L 1178 4863 
L 1178 0 
L 603 0 
L 603 4863 
z
" transform="scale(0.015625)"/>
       <path id="DejaVuSans-75" d="M 544 1381 
L 544 3500 
L 1119 3500 
L 1119 1403 
Q 1119 906 1312 657 
Q 1506 409 1894 409 
Q 2359 409 2629 706 
Q 2900 1003 2900 1516 
L 2900 3500 
L 3475 3500 
L 3475 0 
L 2900 0 
L 2900 538 
Q 2691 219 2414 64 
Q 2138 -91 1772 -91 
Q 1169 -91 856 284 
Q 544 659 544 1381 
z
M 1991 3584 
L 1991 3584 
z
" transform="scale(0.015625)"/>
      </defs>
      <use xlink:href="#DejaVuSans-56"/>
      <use xlink:href="#DejaVuSans-61" x="60.658203"/>
      <use xlink:href="#DejaVuSans-6c" x="121.9375"/>
      <use xlink:href="#DejaVuSans-75" x="149.720703"/>
      <use xlink:href="#DejaVuSans-65" x="213.099609"/>
     </g>
    </g>
   </g>
   <g id="line2d_13">
    <path d="M 66.302267 40.16086 
L 68.904934 42.554409 
L 71.5076 51.330753 
L 74.110267 51.330753 
L 76.712934 55.718925 
L 79.3156 55.718925 
L 81.918267 58.112473 
L 84.520934 58.112473 
L 87.123601 60.107097 
L 89.726267 66.888817 
L 92.328934 66.888817 
L 94.931601 73.670538 
L 97.534267 75.665161 
L 100.136934 78.05871 
L 102.739601 75.665161 
L 105.342267 71.276989 
L 107.944934 62.500645 
L 110.547601 58.112473 
L 113.150268 49.336129 
L 115.752934 44.549032 
L 118.355601 38.166237 
L 120.958268 38.166237 
L 123.560934 33.778065 
L 126.163601 35.772688 
L 128.766268 38.166237 
L 131.368934 42.554409 
L 133.971601 44.549032 
L 136.574268 49.336129 
L 139.176935 60.107097 
L 141.779601 60.107097 
L 144.382268 64.495269 
L 146.984935 64.495269 
L 152.190268 78.05871 
L 154.792935 80.053333 
L 157.395601 78.05871 
L 159.998268 80.053333 
L 162.600935 84.441505 
L 165.203601 84.441505 
L 167.806268 73.670538 
L 170.408935 64.495269 
L 173.011602 58.112473 
L 175.614268 49.336129 
L 180.819602 35.772688 
L 186.024935 26.996344 
L 188.627602 29.389892 
L 191.230268 26.996344 
L 193.832935 33.778065 
L 199.038269 42.554409 
L 201.640935 53.724301 
L 204.243602 60.107097 
L 206.846269 64.495269 
L 212.051602 64.495269 
L 214.654269 71.276989 
L 217.256935 73.670538 
L 219.859602 69.282366 
L 222.462269 75.665161 
L 225.064936 73.670538 
L 227.667602 73.670538 
L 230.270269 69.282366 
L 235.475602 51.330753 
L 238.078269 40.16086 
L 243.283602 31.384516 
L 245.886269 22.608172 
L 248.488936 18.22 
L 251.091603 18.22 
L 253.694269 20.214624 
L 256.296936 24.602796 
L 258.899603 38.166237 
L 261.502269 44.549032 
L 264.104936 51.330753 
L 266.707603 53.724301 
L 269.310269 53.724301 
L 271.912936 51.330753 
L 274.515603 62.500645 
L 277.11827 60.107097 
L 279.720936 60.107097 
L 282.323603 64.495269 
L 284.92627 66.888817 
L 287.528936 64.495269 
L 290.131603 69.282366 
L 292.73427 64.495269 
L 295.336936 55.718925 
L 297.939603 49.336129 
L 300.54227 46.942581 
L 303.144937 42.554409 
L 305.747603 40.16086 
L 308.35027 38.166237 
L 310.952937 33.778065 
L 313.555603 38.166237 
L 316.15827 38.166237 
L 318.760937 40.16086 
L 321.363603 42.554409 
L 323.96627 49.336129 
L 326.568937 58.112473 
L 329.171604 60.107097 
L 331.77427 64.495269 
L 336.979604 69.282366 
L 339.58227 73.670538 
L 342.184937 75.665161 
L 344.787604 80.053333 
L 347.39027 82.446882 
L 349.992937 84.441505 
L 352.595604 84.441505 
L 355.198271 78.05871 
L 357.800937 64.495269 
L 360.403604 58.112473 
L 363.006271 51.330753 
L 365.608937 40.16086 
L 370.814271 31.384516 
L 373.416937 29.389892 
L 378.622271 29.389892 
L 381.224937 35.772688 
L 383.827604 38.166237 
L 386.430271 40.16086 
L 389.032938 51.330753 
L 391.635604 60.107097 
L 394.238271 64.495269 
L 396.840938 64.495269 
L 399.443604 69.282366 
L 402.046271 73.670538 
L 404.648938 75.665161 
L 407.251604 78.05871 
L 409.854271 75.665161 
L 412.456938 78.05871 
L 415.059605 80.053333 
L 417.662271 75.665161 
L 420.264938 69.282366 
L 422.867605 58.112473 
L 425.470271 53.724301 
L 428.072938 46.942581 
L 430.675605 38.166237 
L 433.278271 35.772688 
L 435.880938 33.778065 
L 438.483605 35.772688 
L 441.086272 38.166237 
L 443.688938 40.16086 
L 446.291605 42.554409 
L 448.894272 51.330753 
L 451.496938 55.718925 
L 454.099605 64.495269 
L 456.702272 64.495269 
L 459.304938 55.718925 
L 461.907605 69.282366 
L 467.112939 78.05871 
L 469.715605 80.053333 
L 472.318272 84.441505 
L 474.920939 84.441505 
L 477.523605 86.835054 
L 480.126272 82.446882 
L 482.728939 71.276989 
L 485.331605 66.888817 
L 487.934272 58.112473 
L 490.536939 55.718925 
L 493.139606 51.330753 
L 495.742272 51.330753 
L 498.344939 49.336129 
L 500.947606 51.330753 
L 500.947606 51.330753 
" clip-path="url(#p5eb65d6eee)" style="fill: none; stroke: #1f77b4; stroke-width: 1.5; stroke-linecap: square"/>
   </g>
   <g id="line2d_14">
    <path d="M 66.302267 124.333978 
L 68.904934 126.727527 
L 71.5076 122.339355 
L 81.918267 122.339355 
L 84.520934 119.945806 
L 87.123601 119.945806 
L 89.726267 115.557634 
L 92.328934 113.563011 
L 94.931601 113.563011 
L 97.534267 109.174839 
L 100.136934 111.169462 
L 107.944934 111.169462 
L 110.547601 113.563011 
L 113.150268 113.563011 
L 115.752934 115.557634 
L 118.355601 117.951183 
L 120.958268 122.339355 
L 123.560934 122.339355 
L 126.163601 126.727527 
L 131.368934 126.727527 
L 133.971601 122.339355 
L 136.574268 119.945806 
L 144.382268 119.945806 
L 146.984935 117.951183 
L 154.792935 117.951183 
L 157.395601 119.945806 
L 159.998268 122.339355 
L 162.600935 124.333978 
L 167.806268 124.333978 
L 173.011602 129.121075 
L 175.614268 129.121075 
L 178.216935 126.727527 
L 180.819602 129.121075 
L 186.024935 129.121075 
L 188.627602 139.892043 
L 191.230268 137.897419 
L 193.832935 135.503871 
L 196.435602 133.509247 
L 199.038269 133.509247 
L 201.640935 126.727527 
L 206.846269 126.727527 
L 209.448935 129.121075 
L 212.051602 131.115699 
L 214.654269 129.121075 
L 219.859602 129.121075 
L 222.462269 133.509247 
L 225.064936 135.503871 
L 227.667602 133.509247 
L 230.270269 135.503871 
L 232.872936 131.115699 
L 238.078269 139.892043 
L 240.680936 139.892043 
L 243.283602 135.503871 
L 245.886269 137.897419 
L 248.488936 142.285591 
L 251.091603 142.285591 
L 253.694269 144.280215 
L 256.296936 142.285591 
L 258.899603 135.503871 
L 261.502269 131.115699 
L 264.104936 131.115699 
L 266.707603 133.509247 
L 269.310269 133.509247 
L 271.912936 129.121075 
L 274.515603 129.121075 
L 277.11827 133.509247 
L 279.720936 131.115699 
L 282.323603 126.727527 
L 287.528936 126.727527 
L 290.131603 124.333978 
L 292.73427 124.333978 
L 295.336936 131.115699 
L 300.54227 131.115699 
L 303.144937 129.121075 
L 305.747603 131.115699 
L 308.35027 133.509247 
L 310.952937 135.503871 
L 313.555603 137.897419 
L 316.15827 137.897419 
L 318.760937 146.673763 
L 321.363603 146.673763 
L 323.96627 144.280215 
L 326.568937 139.892043 
L 329.171604 139.892043 
L 331.77427 135.503871 
L 334.376937 137.897419 
L 336.979604 133.509247 
L 339.58227 135.503871 
L 347.39027 135.503871 
L 349.992937 133.509247 
L 352.595604 133.509247 
L 355.198271 137.897419 
L 357.800937 137.897419 
L 360.403604 139.892043 
L 363.006271 135.503871 
L 365.608937 137.897419 
L 368.211604 137.897419 
L 370.814271 139.892043 
L 373.416937 142.285591 
L 376.019604 139.892043 
L 378.622271 142.285591 
L 381.224937 139.892043 
L 383.827604 139.892043 
L 386.430271 137.897419 
L 389.032938 135.503871 
L 391.635604 133.509247 
L 394.238271 129.121075 
L 396.840938 133.509247 
L 399.443604 133.509247 
L 402.046271 131.115699 
L 404.648938 135.503871 
L 407.251604 137.897419 
L 409.854271 142.285591 
L 412.456938 139.892043 
L 415.059605 139.892043 
L 417.662271 142.285591 
L 420.264938 137.897419 
L 422.867605 135.503871 
L 425.470271 139.892043 
L 428.072938 135.503871 
L 430.675605 137.897419 
L 433.278271 137.897419 
L 435.880938 135.503871 
L 438.483605 137.897419 
L 441.086272 133.509247 
L 446.291605 133.509247 
L 448.894272 131.115699 
L 451.496938 131.115699 
L 454.099605 129.121075 
L 459.304938 137.897419 
L 461.907605 135.503871 
L 464.510272 126.727527 
L 467.112939 129.121075 
L 469.715605 131.115699 
L 472.318272 133.509247 
L 474.920939 135.503871 
L 477.523605 135.503871 
L 480.126272 133.509247 
L 482.728939 137.897419 
L 485.331605 137.897419 
L 487.934272 135.503871 
L 490.536939 133.509247 
L 493.139606 131.115699 
L 495.742272 129.121075 
L 498.344939 124.333978 
L 500.947606 119.945806 
L 500.947606 119.945806 
" clip-path="url(#p5eb65d6eee)" style="fill: none; stroke: #ff7f0e; stroke-width: 1.5; stroke-linecap: square"/>
   </g>
   <g id="line2d_15">
    <path d="M 66.302267 156.247957 
L 68.904934 158.242581 
L 71.5076 158.242581 
L 74.110267 160.636129 
L 76.712934 160.636129 
L 79.3156 154.253333 
L 81.918267 166.62 
L 84.520934 152.25871 
L 87.123601 166.62 
L 89.726267 158.242581 
L 92.328934 160.636129 
L 94.931601 166.62 
L 100.136934 166.62 
L 102.739601 160.636129 
L 105.342267 156.247957 
L 107.944934 148.269462 
L 110.547601 154.253333 
L 113.150268 154.253333 
L 115.752934 158.242581 
L 118.355601 158.242581 
L 120.958268 166.62 
L 123.560934 160.636129 
L 126.163601 156.247957 
L 131.368934 152.25871 
L 136.574268 156.247957 
L 139.176935 156.247957 
L 141.779601 166.62 
L 144.382268 158.242581 
L 146.984935 166.62 
L 149.587601 166.62 
L 152.190268 158.242581 
L 154.792935 160.636129 
L 157.395601 166.62 
L 159.998268 158.242581 
L 162.600935 158.242581 
L 167.806268 154.253333 
L 170.408935 148.269462 
L 173.011602 148.269462 
L 175.614268 156.247957 
L 178.216935 158.242581 
L 180.819602 166.62 
L 183.422268 160.636129 
L 186.024935 166.62 
L 188.627602 160.636129 
L 191.230268 156.247957 
L 193.832935 152.25871 
L 196.435602 152.25871 
L 199.038269 154.253333 
L 201.640935 160.636129 
L 204.243602 156.247957 
L 206.846269 156.247957 
L 209.448935 158.242581 
L 212.051602 156.247957 
L 214.654269 166.62 
L 217.256935 158.242581 
L 219.859602 160.636129 
L 222.462269 152.25871 
L 225.064936 158.242581 
L 227.667602 166.62 
L 230.270269 154.253333 
L 232.872936 156.247957 
L 235.475602 154.253333 
L 238.078269 158.242581 
L 240.680936 158.242581 
L 243.283602 166.62 
L 245.886269 158.242581 
L 248.488936 154.253333 
L 251.091603 158.242581 
L 253.694269 158.242581 
L 256.296936 166.62 
L 258.899603 152.25871 
L 261.502269 152.25871 
L 264.104936 154.253333 
L 266.707603 158.242581 
L 269.310269 160.636129 
L 271.912936 160.636129 
L 274.515603 156.247957 
L 277.11827 158.242581 
L 279.720936 158.242581 
L 282.323603 156.247957 
L 284.92627 166.62 
L 287.528936 154.253333 
L 290.131603 166.62 
L 292.73427 150.264086 
L 295.336936 146.274839 
L 297.939603 148.269462 
L 300.54227 156.247957 
L 303.144937 158.242581 
L 308.35027 158.242581 
L 310.952937 156.247957 
L 313.555603 148.269462 
L 316.15827 150.264086 
L 318.760937 148.269462 
L 321.363603 160.636129 
L 323.96627 166.62 
L 329.171604 166.62 
L 331.77427 158.242581 
L 334.376937 154.253333 
L 336.979604 160.636129 
L 339.58227 156.247957 
L 347.39027 150.264086 
L 349.992937 150.264086 
L 357.800937 156.247957 
L 360.403604 152.25871 
L 363.006271 158.242581 
L 365.608937 154.253333 
L 368.211604 158.242581 
L 370.814271 154.253333 
L 373.416937 166.62 
L 376.019604 158.242581 
L 378.622271 166.62 
L 381.224937 154.253333 
L 383.827604 156.247957 
L 386.430271 154.253333 
L 389.032938 166.62 
L 391.635604 166.62 
L 394.238271 160.636129 
L 399.443604 160.636129 
L 402.046271 166.62 
L 404.648938 158.242581 
L 407.251604 160.636129 
L 409.854271 156.247957 
L 412.456938 160.636129 
L 415.059605 152.25871 
L 417.662271 150.264086 
L 420.264938 150.264086 
L 422.867605 154.253333 
L 425.470271 160.636129 
L 428.072938 160.636129 
L 430.675605 166.62 
L 433.278271 156.247957 
L 435.880938 160.636129 
L 438.483605 156.247957 
L 441.086272 154.253333 
L 443.688938 158.242581 
L 446.291605 160.636129 
L 448.894272 166.62 
L 451.496938 166.62 
L 454.099605 160.636129 
L 456.702272 166.62 
L 459.304938 148.269462 
L 461.907605 156.247957 
L 464.510272 152.25871 
L 467.112939 156.247957 
L 469.715605 156.247957 
L 472.318272 150.264086 
L 474.920939 152.25871 
L 477.523605 152.25871 
L 480.126272 156.247957 
L 482.728939 154.253333 
L 485.331605 156.247957 
L 487.934272 160.636129 
L 490.536939 166.62 
L 493.139606 166.62 
L 495.742272 160.636129 
L 498.344939 158.242581 
L 500.947606 148.269462 
L 500.947606 148.269462 
" clip-path="url(#p5eb65d6eee)" style="fill: none; stroke: #2ca02c; stroke-width: 1.5; stroke-linecap: square"/>
   </g>
   <g id="patch_3">
    <path d="M 44.57 174.04 
L 44.57 10.8 
" style="fill: none; stroke: #000000; stroke-width: 0.8; stroke-linejoin: miter; stroke-linecap: square"/>
   </g>
   <g id="patch_4">
    <path d="M 522.679873 174.04 
L 522.679873 10.8 
" style="fill: none; stroke: #000000; stroke-width: 0.8; stroke-linejoin: miter; stroke-linecap: square"/>
   </g>
   <g id="patch_5">
    <path d="M 44.57 174.04 
L 522.679873 174.04 
" style="fill: none; stroke: #000000; stroke-width: 0.8; stroke-linejoin: miter; stroke-linecap: square"/>
   </g>
   <g id="patch_6">
    <path d="M 44.57 10.8 
L 522.679873 10.8 
" style="fill: none; stroke: #000000; stroke-width: 0.8; stroke-linejoin: miter; stroke-linecap: square"/>
   </g>
   <g id="legend_1">
    <g id="patch_7">
     <path d="M 396.970498 62.834375 
L 515.679873 62.834375 
Q 517.679873 62.834375 517.679873 60.834375 
L 517.679873 17.8 
Q 517.679873 15.8 515.679873 15.8 
L 396.970498 15.8 
Q 394.970498 15.8 394.970498 17.8 
L 394.970498 60.834375 
Q 394.970498 62.834375 396.970498 62.834375 
z
" style="fill: #ffffff; opacity: 0.8; stroke: #cccccc; stroke-linejoin: miter"/>
    </g>
    <g id="line2d_16">
     <path d="M 398.970498 23.898438 
L 408.970498 23.898438 
L 418.970498 23.898438 
" style="fill: none; stroke: #1f77b4; stroke-width: 1.5; stroke-linecap: square"/>
    </g>
    <g id="text_15">
     <!-- air temperature -->
     <g transform="translate(426.970498 27.398438) scale(0.1 -0.1)">
      <defs>
       <path id="DejaVuSans-72" d="M 2631 2963 
Q 2534 3019 2420 3045 
Q 2306 3072 2169 3072 
Q 1681 3072 1420 2755 
Q 1159 2438 1159 1844 
L 1159 0 
L 581 0 
L 581 3500 
L 1159 3500 
L 1159 2956 
Q 1341 3275 1631 3429 
Q 1922 3584 2338 3584 
Q 2397 3584 2469 3576 
Q 2541 3569 2628 3553 
L 2631 2963 
z
" transform="scale(0.015625)"/>
       <path id="DejaVuSans-20" transform="scale(0.015625)"/>
       <path id="DejaVuSans-74" d="M 1172 4494 
L 1172 3500 
L 2356 3500 
L 2356 3053 
L 1172 3053 
L 1172 1153 
Q 1172 725 1289 603 
Q 1406 481 1766 481 
L 2356 481 
L 2356 0 
L 1766 0 
Q 1100 0 847 248 
Q 594 497 594 1153 
L 594 3053 
L 172 3053 
L 172 3500 
L 594 3500 
L 594 4494 
L 1172 4494 
z
" transform="scale(0.015625)"/>
       <path id="DejaVuSans-70" d="M 1159 525 
L 1159 -1331 
L 581 -1331 
L 581 3500 
L 1159 3500 
L 1159 2969 
Q 1341 3281 1617 3432 
Q 1894 3584 2278 3584 
Q 2916 3584 3314 3078 
Q 3713 2572 3713 1747 
Q 3713 922 3314 415 
Q 2916 -91 2278 -91 
Q 1894 -91 1617 61 
Q 1341 213 1159 525 
z
M 3116 1747 
Q 3116 2381 2855 2742 
Q 2594 3103 2138 3103 
Q 1681 3103 1420 2742 
Q 1159 2381 1159 1747 
Q 1159 1113 1420 752 
Q 1681 391 2138 391 
Q 2594 391 2855 752 
Q 3116 1113 3116 1747 
z
" transform="scale(0.015625)"/>
      </defs>
      <use xlink:href="#DejaVuSans-61"/>
      <use xlink:href="#DejaVuSans-69" x="61.279297"/>
      <use xlink:href="#DejaVuSans-72" x="89.0625"/>
      <use xlink:href="#DejaVuSans-20" x="130.175781"/>
      <use xlink:href="#DejaVuSans-74" x="161.962891"/>
      <use xlink:href="#DejaVuSans-65" x="201.171875"/>
      <use xlink:href="#DejaVuSans-6d" x="262.695312"/>
      <use xlink:href="#DejaVuSans-70" x="360.107422"/>
      <use xlink:href="#DejaVuSans-65" x="423.583984"/>
      <use xlink:href="#DejaVuSans-72" x="485.107422"/>
      <use xlink:href="#DejaVuSans-61" x="526.220703"/>
      <use xlink:href="#DejaVuSans-74" x="587.5"/>
      <use xlink:href="#DejaVuSans-75" x="626.708984"/>
      <use xlink:href="#DejaVuSans-72" x="690.087891"/>
      <use xlink:href="#DejaVuSans-65" x="728.951172"/>
     </g>
    </g>
    <g id="line2d_17">
     <path d="M 398.970498 38.576563 
L 408.970498 38.576563 
L 418.970498 38.576563 
" style="fill: none; stroke: #ff7f0e; stroke-width: 1.5; stroke-linecap: square"/>
    </g>
    <g id="text_16">
     <!-- dew temperature -->
     <g transform="translate(426.970498 42.076563) scale(0.1 -0.1)">
      <defs>
       <path id="DejaVuSans-64" d="M 2906 2969 
L 2906 4863 
L 3481 4863 
L 3481 0 
L 2906 0 
L 2906 525 
Q 2725 213 2448 61 
Q 2172 -91 1784 -91 
Q 1150 -91 751 415 
Q 353 922 353 1747 
Q 353 2572 751 3078 
Q 1150 3584 1784 3584 
Q 2172 3584 2448 3432 
Q 2725 3281 2906 2969 
z
M 947 1747 
Q 947 1113 1208 752 
Q 1469 391 1925 391 
Q 2381 391 2643 752 
Q 2906 1113 2906 1747 
Q 2906 2381 2643 2742 
Q 2381 3103 1925 3103 
Q 1469 3103 1208 2742 
Q 947 2381 947 1747 
z
" transform="scale(0.015625)"/>
       <path id="DejaVuSans-77" d="M 269 3500 
L 844 3500 
L 1563 769 
L 2278 3500 
L 2956 3500 
L 3675 769 
L 4391 3500 
L 4966 3500 
L 4050 0 
L 3372 0 
L 2619 2869 
L 1863 0 
L 1184 0 
L 269 3500 
z
" transform="scale(0.015625)"/>
      </defs>
      <use xlink:href="#DejaVuSans-64"/>
      <use xlink:href="#DejaVuSans-65" x="63.476562"/>
      <use xlink:href="#DejaVuSans-77" x="125"/>
      <use xlink:href="#DejaVuSans-20" x="206.787109"/>
      <use xlink:href="#DejaVuSans-74" x="238.574219"/>
      <use xlink:href="#DejaVuSans-65" x="277.783203"/>
      <use xlink:href="#DejaVuSans-6d" x="339.306641"/>
      <use xlink:href="#DejaVuSans-70" x="436.71875"/>
      <use xlink:href="#DejaVuSans-65" x="500.195312"/>
      <use xlink:href="#DejaVuSans-72" x="561.71875"/>
      <use xlink:href="#DejaVuSans-61" x="602.832031"/>
      <use xlink:href="#DejaVuSans-74" x="664.111328"/>
      <use xlink:href="#DejaVuSans-75" x="703.320312"/>
      <use xlink:href="#DejaVuSans-72" x="766.699219"/>
      <use xlink:href="#DejaVuSans-65" x="805.5625"/>
     </g>
    </g>
    <g id="line2d_18">
     <path d="M 398.970498 53.254688 
L 408.970498 53.254688 
L 418.970498 53.254688 
" style="fill: none; stroke: #2ca02c; stroke-width: 1.5; stroke-linecap: square"/>
    </g>
    <g id="text_17">
     <!-- wind speed -->
     <g transform="translate(426.970498 56.754688) scale(0.1 -0.1)">
      <defs>
       <path id="DejaVuSans-6e" d="M 3513 2113 
L 3513 0 
L 2938 0 
L 2938 2094 
Q 2938 2591 2744 2837 
Q 2550 3084 2163 3084 
Q 1697 3084 1428 2787 
Q 1159 2491 1159 1978 
L 1159 0 
L 581 0 
L 581 3500 
L 1159 3500 
L 1159 2956 
Q 1366 3272 1645 3428 
Q 1925 3584 2291 3584 
Q 2894 3584 3203 3211 
Q 3513 2838 3513 2113 
z
" transform="scale(0.015625)"/>
       <path id="DejaVuSans-73" d="M 2834 3397 
L 2834 2853 
Q 2591 2978 2328 3040 
Q 2066 3103 1784 3103 
Q 1356 3103 1142 2972 
Q 928 2841 928 2578 
Q 928 2378 1081 2264 
Q 1234 2150 1697 2047 
L 1894 2003 
Q 2506 1872 2764 1633 
Q 3022 1394 3022 966 
Q 3022 478 2636 193 
Q 2250 -91 1575 -91 
Q 1294 -91 989 -36 
Q 684 19 347 128 
L 347 722 
Q 666 556 975 473 
Q 1284 391 1588 391 
Q 1994 391 2212 530 
Q 2431 669 2431 922 
Q 2431 1156 2273 1281 
Q 2116 1406 1581 1522 
L 1381 1569 
Q 847 1681 609 1914 
Q 372 2147 372 2553 
Q 372 3047 722 3315 
Q 1072 3584 1716 3584 
Q 2034 3584 2315 3537 
Q 2597 3491 2834 3397 
z
" transform="scale(0.015625)"/>
      </defs>
      <use xlink:href="#DejaVuSans-77"/>
      <use xlink:href="#DejaVuSans-69" x="81.787109"/>
      <use xlink:href="#DejaVuSans-6e" x="109.570312"/>
      <use xlink:href="#DejaVuSans-64" x="172.949219"/>
      <use xlink:href="#DejaVuSans-20" x="236.425781"/>
      <use xlink:href="#DejaVuSans-73" x="268.212891"/>
      <use xlink:href="#DejaVuSans-70" x="320.3125"/>
      <use xlink:href="#DejaVuSans-65" x="383.789062"/>
      <use xlink:href="#DejaVuSans-65" x="445.3125"/>
      <use xlink:href="#DejaVuSans-64" x="506.835938"/>
     </g>
    </g>
   </g>
  </g>
  <g id="axes_2">
   <g id="patch_8">
    <path d="M 582.32 174.04 
L 1060.429873 174.04 
L 1060.429873 10.8 
L 582.32 10.8 
z
" style="fill: #ffffff"/>
   </g>
   <g id="matplotlib.axis_3">
    <g id="xtick_9">
     <g id="line2d_19">
      <g>
       <use xlink:href="#m7d50e15d4f" x="604.052267" y="174.04" style="stroke: #000000; stroke-width: 0.8"/>
      </g>
     </g>
     <g id="text_18">
      <!-- 0 -->
      <g transform="translate(600.871017 188.638438) scale(0.1 -0.1)">
       <use xlink:href="#DejaVuSans-30"/>
      </g>
     </g>
    </g>
    <g id="xtick_10">
     <g id="line2d_20">
      <g>
       <use xlink:href="#m7d50e15d4f" x="669.118934" y="174.04" style="stroke: #000000; stroke-width: 0.8"/>
      </g>
     </g>
     <g id="text_19">
      <!-- 25 -->
      <g transform="translate(662.756434 188.638438) scale(0.1 -0.1)">
       <use xlink:href="#DejaVuSans-32"/>
       <use xlink:href="#DejaVuSans-35" x="63.623047"/>
      </g>
     </g>
    </g>
    <g id="xtick_11">
     <g id="line2d_21">
      <g>
       <use xlink:href="#m7d50e15d4f" x="734.185602" y="174.04" style="stroke: #000000; stroke-width: 0.8"/>
      </g>
     </g>
     <g id="text_20">
      <!-- 50 -->
      <g transform="translate(727.823102 188.638438) scale(0.1 -0.1)">
       <use xlink:href="#DejaVuSans-35"/>
       <use xlink:href="#DejaVuSans-30" x="63.623047"/>
      </g>
     </g>
    </g>
    <g id="xtick_12">
     <g id="line2d_22">
      <g>
       <use xlink:href="#m7d50e15d4f" x="799.252269" y="174.04" style="stroke: #000000; stroke-width: 0.8"/>
      </g>
     </g>
     <g id="text_21">
      <!-- 75 -->
      <g transform="translate(792.889769 188.638438) scale(0.1 -0.1)">
       <use xlink:href="#DejaVuSans-37"/>
       <use xlink:href="#DejaVuSans-35" x="63.623047"/>
      </g>
     </g>
    </g>
    <g id="xtick_13">
     <g id="line2d_23">
      <g>
       <use xlink:href="#m7d50e15d4f" x="864.318937" y="174.04" style="stroke: #000000; stroke-width: 0.8"/>
      </g>
     </g>
     <g id="text_22">
      <!-- 100 -->
      <g transform="translate(854.775187 188.638438) scale(0.1 -0.1)">
       <use xlink:href="#DejaVuSans-31"/>
       <use xlink:href="#DejaVuSans-30" x="63.623047"/>
       <use xlink:href="#DejaVuSans-30" x="127.246094"/>
      </g>
     </g>
    </g>
    <g id="xtick_14">
     <g id="line2d_24">
      <g>
       <use xlink:href="#m7d50e15d4f" x="929.385604" y="174.04" style="stroke: #000000; stroke-width: 0.8"/>
      </g>
     </g>
     <g id="text_23">
      <!-- 125 -->
      <g transform="translate(919.841854 188.638438) scale(0.1 -0.1)">
       <use xlink:href="#DejaVuSans-31"/>
       <use xlink:href="#DejaVuSans-32" x="63.623047"/>
       <use xlink:href="#DejaVuSans-35" x="127.246094"/>
      </g>
     </g>
    </g>
    <g id="xtick_15">
     <g id="line2d_25">
      <g>
       <use xlink:href="#m7d50e15d4f" x="994.452272" y="174.04" style="stroke: #000000; stroke-width: 0.8"/>
      </g>
     </g>
     <g id="text_24">
      <!-- 150 -->
      <g transform="translate(984.908522 188.638438) scale(0.1 -0.1)">
       <use xlink:href="#DejaVuSans-31"/>
       <use xlink:href="#DejaVuSans-35" x="63.623047"/>
       <use xlink:href="#DejaVuSans-30" x="127.246094"/>
      </g>
     </g>
    </g>
    <g id="xtick_16">
     <g id="line2d_26">
      <g>
       <use xlink:href="#m7d50e15d4f" x="1059.518939" y="174.04" style="stroke: #000000; stroke-width: 0.8"/>
      </g>
     </g>
     <g id="text_25">
      <!-- 175 -->
      <g transform="translate(1049.975189 188.638438) scale(0.1 -0.1)">
       <use xlink:href="#DejaVuSans-31"/>
       <use xlink:href="#DejaVuSans-37" x="63.623047"/>
       <use xlink:href="#DejaVuSans-35" x="127.246094"/>
      </g>
     </g>
    </g>
    <g id="text_26">
     <!-- Time -->
     <g transform="translate(809.141343 202.316563) scale(0.1 -0.1)">
      <use xlink:href="#DejaVuSans-54"/>
      <use xlink:href="#DejaVuSans-69" x="57.958984"/>
      <use xlink:href="#DejaVuSans-6d" x="85.742188"/>
      <use xlink:href="#DejaVuSans-65" x="183.154297"/>
     </g>
    </g>
   </g>
   <g id="matplotlib.axis_4">
    <g id="ytick_5">
     <g id="line2d_27">
      <g>
       <use xlink:href="#m9392203be2" x="582.32" y="166.62" style="stroke: #000000; stroke-width: 0.8"/>
      </g>
     </g>
     <g id="text_27">
      <!-- 0 -->
      <g transform="translate(568.9575 170.419219) scale(0.1 -0.1)">
       <use xlink:href="#DejaVuSans-30"/>
      </g>
     </g>
    </g>
    <g id="ytick_6">
     <g id="line2d_28">
      <g>
       <use xlink:href="#m9392203be2" x="582.32" y="146.008889" style="stroke: #000000; stroke-width: 0.8"/>
      </g>
     </g>
     <g id="text_28">
      <!-- 50 -->
      <g transform="translate(562.595 149.808108) scale(0.1 -0.1)">
       <use xlink:href="#DejaVuSans-35"/>
       <use xlink:href="#DejaVuSans-30" x="63.623047"/>
      </g>
     </g>
    </g>
    <g id="ytick_7">
     <g id="line2d_29">
      <g>
       <use xlink:href="#m9392203be2" x="582.32" y="125.397778" style="stroke: #000000; stroke-width: 0.8"/>
      </g>
     </g>
     <g id="text_29">
      <!-- 100 -->
      <g transform="translate(556.2325 129.196997) scale(0.1 -0.1)">
       <use xlink:href="#DejaVuSans-31"/>
       <use xlink:href="#DejaVuSans-30" x="63.623047"/>
       <use xlink:href="#DejaVuSans-30" x="127.246094"/>
      </g>
     </g>
    </g>
    <g id="ytick_8">
     <g id="line2d_30">
      <g>
       <use xlink:href="#m9392203be2" x="582.32" y="104.786667" style="stroke: #000000; stroke-width: 0.8"/>
      </g>
     </g>
     <g id="text_30">
      <!-- 150 -->
      <g transform="translate(556.2325 108.585885) scale(0.1 -0.1)">
       <use xlink:href="#DejaVuSans-31"/>
       <use xlink:href="#DejaVuSans-35" x="63.623047"/>
       <use xlink:href="#DejaVuSans-30" x="127.246094"/>
      </g>
     </g>
    </g>
    <g id="ytick_9">
     <g id="line2d_31">
      <g>
       <use xlink:href="#m9392203be2" x="582.32" y="84.175556" style="stroke: #000000; stroke-width: 0.8"/>
      </g>
     </g>
     <g id="text_31">
      <!-- 200 -->
      <g transform="translate(556.2325 87.974774) scale(0.1 -0.1)">
       <use xlink:href="#DejaVuSans-32"/>
       <use xlink:href="#DejaVuSans-30" x="63.623047"/>
       <use xlink:href="#DejaVuSans-30" x="127.246094"/>
      </g>
     </g>
    </g>
    <g id="ytick_10">
     <g id="line2d_32">
      <g>
       <use xlink:href="#m9392203be2" x="582.32" y="63.564444" style="stroke: #000000; stroke-width: 0.8"/>
      </g>
     </g>
     <g id="text_32">
      <!-- 250 -->
      <g transform="translate(556.2325 67.363663) scale(0.1 -0.1)">
       <use xlink:href="#DejaVuSans-32"/>
       <use xlink:href="#DejaVuSans-35" x="63.623047"/>
       <use xlink:href="#DejaVuSans-30" x="127.246094"/>
      </g>
     </g>
    </g>
    <g id="ytick_11">
     <g id="line2d_33">
      <g>
       <use xlink:href="#m9392203be2" x="582.32" y="42.953333" style="stroke: #000000; stroke-width: 0.8"/>
      </g>
     </g>
     <g id="text_33">
      <!-- 300 -->
      <g transform="translate(556.2325 46.752552) scale(0.1 -0.1)">
       <use xlink:href="#DejaVuSans-33"/>
       <use xlink:href="#DejaVuSans-30" x="63.623047"/>
       <use xlink:href="#DejaVuSans-30" x="127.246094"/>
      </g>
     </g>
    </g>
    <g id="ytick_12">
     <g id="line2d_34">
      <g>
       <use xlink:href="#m9392203be2" x="582.32" y="22.342222" style="stroke: #000000; stroke-width: 0.8"/>
      </g>
     </g>
     <g id="text_34">
      <!-- 350 -->
      <g transform="translate(556.2325 26.141441) scale(0.1 -0.1)">
       <use xlink:href="#DejaVuSans-33"/>
       <use xlink:href="#DejaVuSans-35" x="63.623047"/>
       <use xlink:href="#DejaVuSans-30" x="127.246094"/>
      </g>
     </g>
    </g>
    <g id="text_35">
     <!-- Value -->
     <g transform="translate(550.152813 106.15125) rotate(-90) scale(0.1 -0.1)">
      <use xlink:href="#DejaVuSans-56"/>
      <use xlink:href="#DejaVuSans-61" x="60.658203"/>
      <use xlink:href="#DejaVuSans-6c" x="121.9375"/>
      <use xlink:href="#DejaVuSans-75" x="149.720703"/>
      <use xlink:href="#DejaVuSans-65" x="213.099609"/>
     </g>
    </g>
   </g>
   <g id="line2d_35">
    <path d="M 604.052267 150.131111 
L 606.654934 162.497778 
L 609.2576 75.931111 
L 614.462934 67.686667 
L 617.0656 67.686667 
L 619.668267 166.62 
L 622.270934 137.764444 
L 624.873601 166.62 
L 627.476267 59.442222 
L 630.078934 42.953333 
L 632.681601 166.62 
L 637.886934 166.62 
L 640.489601 133.642222 
L 643.092267 121.275556 
L 645.694934 133.642222 
L 650.900268 125.397778 
L 653.502934 113.031111 
L 656.105601 110.581837 
L 658.708268 166.62 
L 661.310934 104.786667 
L 663.913601 71.808889 
L 666.516268 125.397778 
L 669.118934 18.22 
L 671.721601 26.464444 
L 674.324268 30.586667 
L 676.926935 71.808889 
L 679.529601 166.62 
L 682.132268 51.197778 
L 684.734935 166.62 
L 687.337601 166.62 
L 689.940268 71.808889 
L 692.542935 80.053333 
L 695.145601 166.62 
L 697.748268 125.397778 
L 700.350935 125.397778 
L 702.953601 129.52 
L 705.556268 121.275556 
L 710.761602 129.52 
L 713.364268 125.397778 
L 718.569602 166.62 
L 721.172268 112.321377 
L 723.774935 166.62 
L 726.377602 42.953333 
L 728.980268 63.564444 
L 731.582935 30.586667 
L 734.185602 26.464444 
L 736.788269 47.075556 
L 739.390935 63.564444 
L 744.596269 63.564444 
L 747.198935 59.442222 
L 749.801602 63.564444 
L 752.404269 166.62 
L 755.006935 129.52 
L 760.212269 129.52 
L 762.814936 113.031111 
L 765.417602 166.62 
L 768.020269 125.397778 
L 773.225602 108.908889 
L 775.828269 113.031111 
L 778.430936 133.642222 
L 781.033602 166.62 
L 783.636269 102.64731 
L 786.238936 91.179601 
L 788.841603 113.031111 
L 791.444269 100.664444 
L 794.046936 166.62 
L 796.649603 71.808889 
L 799.252269 67.686667 
L 804.457603 67.686667 
L 809.662936 51.197778 
L 812.265603 80.053333 
L 814.86827 80.053333 
L 817.470936 146.008889 
L 820.073603 121.275556 
L 822.67627 166.62 
L 825.278936 154.253333 
L 827.881603 166.62 
L 830.48427 125.397778 
L 835.689603 108.908889 
L 838.29227 105.535135 
L 840.894937 71.808889 
L 843.497603 92.42 
L 846.10027 22.342222 
L 848.702937 101.269643 
L 851.305603 26.464444 
L 853.90827 30.586667 
L 856.510937 47.075556 
L 859.113603 26.464444 
L 861.71627 166.62 
L 866.921604 166.62 
L 869.52427 125.397778 
L 872.126937 125.397778 
L 874.729604 108.908889 
L 877.33227 133.642222 
L 879.934937 129.52 
L 885.14027 129.52 
L 887.742937 125.397778 
L 890.345604 129.52 
L 892.948271 125.397778 
L 895.550937 117.153333 
L 898.153604 117.153333 
L 900.756271 121.275556 
L 903.358937 121.275556 
L 905.961604 96.542222 
L 908.564271 121.275556 
L 911.166937 166.62 
L 913.769604 71.808889 
L 916.372271 166.62 
L 918.974937 96.189169 
L 921.577604 158.375556 
L 924.180271 158.375556 
L 926.782938 166.62 
L 929.385604 166.62 
L 931.988271 121.275556 
L 934.590938 108.908889 
L 937.193604 121.275556 
L 939.796271 166.62 
L 942.398938 121.275556 
L 945.001604 104.786667 
L 947.604271 125.397778 
L 952.809605 125.397778 
L 955.412271 117.153333 
L 958.014938 121.275556 
L 960.617605 117.153333 
L 963.220271 115.98854 
L 965.822938 115.09454 
L 968.425605 166.62 
L 971.028271 101.316378 
L 973.630938 111.689276 
L 976.233605 133.642222 
L 978.836272 158.375556 
L 981.438938 26.464444 
L 984.041605 18.22 
L 986.644272 166.62 
L 989.246938 166.62 
L 991.849605 71.808889 
L 994.452272 166.62 
L 997.054938 42.953333 
L 999.657605 121.275556 
L 1002.260272 141.886667 
L 1004.862939 133.642222 
L 1007.465605 129.52 
L 1012.670939 129.52 
L 1015.273605 133.642222 
L 1023.081605 121.275556 
L 1025.684272 117.983855 
L 1028.286939 166.62 
L 1030.889606 166.62 
L 1033.492272 67.686667 
L 1036.094939 112.219913 
L 1038.697606 63.564444 
L 1038.697606 63.564444 
" clip-path="url(#pe7214be3bd)" style="fill: none; stroke: #1f77b4; stroke-width: 1.5; stroke-linecap: square"/>
   </g>
   <g id="patch_9">
    <path d="M 582.32 174.04 
L 582.32 10.8 
" style="fill: none; stroke: #000000; stroke-width: 0.8; stroke-linejoin: miter; stroke-linecap: square"/>
   </g>
   <g id="patch_10">
    <path d="M 1060.429873 174.04 
L 1060.429873 10.8 
" style="fill: none; stroke: #000000; stroke-width: 0.8; stroke-linejoin: miter; stroke-linecap: square"/>
   </g>
   <g id="patch_11">
    <path d="M 582.32 174.04 
L 1060.429873 174.04 
" style="fill: none; stroke: #000000; stroke-width: 0.8; stroke-linejoin: miter; stroke-linecap: square"/>
   </g>
   <g id="patch_12">
    <path d="M 582.32 10.8 
L 1060.429873 10.8 
" style="fill: none; stroke: #000000; stroke-width: 0.8; stroke-linejoin: miter; stroke-linecap: square"/>
   </g>
   <g id="legend_2">
    <g id="patch_13">
     <path d="M 950.79081 33.478125 
L 1053.429873 33.478125 
Q 1055.429873 33.478125 1055.429873 31.478125 
L 1055.429873 17.8 
Q 1055.429873 15.8 1053.429873 15.8 
L 950.79081 15.8 
Q 948.79081 15.8 948.79081 17.8 
L 948.79081 31.478125 
Q 948.79081 33.478125 950.79081 33.478125 
z
" style="fill: #ffffff; opacity: 0.8; stroke: #cccccc; stroke-linejoin: miter"/>
    </g>
    <g id="line2d_36">
     <path d="M 952.79081 23.898437 
L 962.79081 23.898437 
L 972.79081 23.898437 
" style="fill: none; stroke: #1f77b4; stroke-width: 1.5; stroke-linecap: square"/>
    </g>
    <g id="text_36">
     <!-- wind direction -->
     <g transform="translate(980.79081 27.398437) scale(0.1 -0.1)">
      <defs>
       <path id="DejaVuSans-63" d="M 3122 3366 
L 3122 2828 
Q 2878 2963 2633 3030 
Q 2388 3097 2138 3097 
Q 1578 3097 1268 2742 
Q 959 2388 959 1747 
Q 959 1106 1268 751 
Q 1578 397 2138 397 
Q 2388 397 2633 464 
Q 2878 531 3122 666 
L 3122 134 
Q 2881 22 2623 -34 
Q 2366 -91 2075 -91 
Q 1284 -91 818 406 
Q 353 903 353 1747 
Q 353 2603 823 3093 
Q 1294 3584 2113 3584 
Q 2378 3584 2631 3529 
Q 2884 3475 3122 3366 
z
" transform="scale(0.015625)"/>
       <path id="DejaVuSans-6f" d="M 1959 3097 
Q 1497 3097 1228 2736 
Q 959 2375 959 1747 
Q 959 1119 1226 758 
Q 1494 397 1959 397 
Q 2419 397 2687 759 
Q 2956 1122 2956 1747 
Q 2956 2369 2687 2733 
Q 2419 3097 1959 3097 
z
M 1959 3584 
Q 2709 3584 3137 3096 
Q 3566 2609 3566 1747 
Q 3566 888 3137 398 
Q 2709 -91 1959 -91 
Q 1206 -91 779 398 
Q 353 888 353 1747 
Q 353 2609 779 3096 
Q 1206 3584 1959 3584 
z
" transform="scale(0.015625)"/>
      </defs>
      <use xlink:href="#DejaVuSans-77"/>
      <use xlink:href="#DejaVuSans-69" x="81.787109"/>
      <use xlink:href="#DejaVuSans-6e" x="109.570312"/>
      <use xlink:href="#DejaVuSans-64" x="172.949219"/>
      <use xlink:href="#DejaVuSans-20" x="236.425781"/>
      <use xlink:href="#DejaVuSans-64" x="268.212891"/>
      <use xlink:href="#DejaVuSans-69" x="331.689453"/>
      <use xlink:href="#DejaVuSans-72" x="359.472656"/>
      <use xlink:href="#DejaVuSans-65" x="398.335938"/>
      <use xlink:href="#DejaVuSans-63" x="459.859375"/>
      <use xlink:href="#DejaVuSans-74" x="514.839844"/>
      <use xlink:href="#DejaVuSans-69" x="554.048828"/>
      <use xlink:href="#DejaVuSans-6f" x="581.832031"/>
      <use xlink:href="#DejaVuSans-6e" x="643.013672"/>
     </g>
    </g>
   </g>
  </g>
 </g>
 <defs>
  <clipPath id="p5eb65d6eee">
   <rect x="44.57" y="10.8" width="478.109873" height="163.24"/>
  </clipPath>
  <clipPath id="pe7214be3bd">
   <rect x="582.32" y="10.8" width="478.109873" height="163.24"/>
  </clipPath>
 </defs>
</svg>
