<?xml version="1.0" encoding="utf-8" standalone="no"?>
<!DOCTYPE svg PUBLIC "-//W3C//DTD SVG 1.1//EN"
  "http://www.w3.org/Graphics/SVG/1.1/DTD/svg11.dtd">
<svg xmlns:xlink="http://www.w3.org/1999/xlink" width="504pt" height="216pt" viewBox="0 0 504 216" xmlns="http://www.w3.org/2000/svg" version="1.1">
 <metadata>
  <rdf:RDF xmlns:dc="http://purl.org/dc/elements/1.1/" xmlns:cc="http://creativecommons.org/ns#" xmlns:rdf="http://www.w3.org/1999/02/22-rdf-syntax-ns#">
   <cc:Work>
    <dc:type rdf:resource="http://purl.org/dc/dcmitype/StillImage"/>
    <dc:date>2023-11-03T13:18:40.323343</dc:date>
    <dc:format>image/svg+xml</dc:format>
    <dc:creator>
     <cc:Agent>
      <dc:title>Matplotlib v3.7.1, https://matplotlib.org/</dc:title>
     </cc:Agent>
    </dc:creator>
   </cc:Work>
  </rdf:RDF>
 </metadata>
 <defs>
  <style type="text/css">*{stroke-linejoin: round; stroke-linecap: butt}</style>
 </defs>
 <g id="figure_1">
  <g id="patch_1">
   <path d="M 0 216 
L 504 216 
L 504 0 
L 0 0 
z
" style="fill: #ffffff"/>
  </g>
  <g id="axes_1">
   <g id="patch_2">
    <path d="M 63 192.24 
L 453.6 192.24 
L 453.6 25.92 
L 63 25.92 
z
" style="fill: #ffffff"/>
   </g>
   <g id="matplotlib.axis_1">
    <g id="xtick_1">
     <g id="line2d_1">
      <defs>
       <path id="m0bc945fc56" d="M 0 0 
L 0 3.5 
" style="stroke: #000000; stroke-width: 0.8"/>
      </defs>
      <g>
       <use xlink:href="#m0bc945fc56" x="80.754545" y="192.24" style="stroke: #000000; stroke-width: 0.8"/>
      </g>
     </g>
     <g id="text_1">
      <!-- 0 -->
      <g transform="translate(77.573295 206.838437) scale(0.1 -0.1)">
       <defs>
        <path id="DejaVuSans-30" d="M 2034 4250 
Q 1547 4250 1301 3770 
Q 1056 3291 1056 2328 
Q 1056 1369 1301 889 
Q 1547 409 2034 409 
Q 2525 409 2770 889 
Q 3016 1369 3016 2328 
Q 3016 3291 2770 3770 
Q 2525 4250 2034 4250 
z
M 2034 4750 
Q 2819 4750 3233 4129 
Q 3647 3509 3647 2328 
Q 3647 1150 3233 529 
Q 2819 -91 2034 -91 
Q 1250 -91 836 529 
Q 422 1150 422 2328 
Q 422 3509 836 4129 
Q 1250 4750 2034 4750 
z
" transform="scale(0.015625)"/>
       </defs>
       <use xlink:href="#DejaVuSans-30"/>
      </g>
     </g>
    </g>
    <g id="xtick_2">
     <g id="line2d_2">
      <g>
       <use xlink:href="#m0bc945fc56" x="133.911867" y="192.24" style="stroke: #000000; stroke-width: 0.8"/>
      </g>
     </g>
     <g id="text_2">
      <!-- 25 -->
      <g transform="translate(127.549367 206.838437) scale(0.1 -0.1)">
       <defs>
        <path id="DejaVuSans-32" d="M 1228 531 
L 3431 531 
L 3431 0 
L 469 0 
L 469 531 
Q 828 903 1448 1529 
Q 2069 2156 2228 2338 
Q 2531 2678 2651 2914 
Q 2772 3150 2772 3378 
Q 2772 3750 2511 3984 
Q 2250 4219 1831 4219 
Q 1534 4219 1204 4116 
Q 875 4013 500 3803 
L 500 4441 
Q 881 4594 1212 4672 
Q 1544 4750 1819 4750 
Q 2544 4750 2975 4387 
Q 3406 4025 3406 3419 
Q 3406 3131 3298 2873 
Q 3191 2616 2906 2266 
Q 2828 2175 2409 1742 
Q 1991 1309 1228 531 
z
" transform="scale(0.015625)"/>
        <path id="DejaVuSans-35" d="M 691 4666 
L 3169 4666 
L 3169 4134 
L 1269 4134 
L 1269 2991 
Q 1406 3038 1543 3061 
Q 1681 3084 1819 3084 
Q 2600 3084 3056 2656 
Q 3513 2228 3513 1497 
Q 3513 744 3044 326 
Q 2575 -91 1722 -91 
Q 1428 -91 1123 -41 
Q 819 9 494 109 
L 494 744 
Q 775 591 1075 516 
Q 1375 441 1709 441 
Q 2250 441 2565 725 
Q 2881 1009 2881 1497 
Q 2881 1984 2565 2268 
Q 2250 2553 1709 2553 
Q 1456 2553 1204 2497 
Q 953 2441 691 2322 
L 691 4666 
z
" transform="scale(0.015625)"/>
       </defs>
       <use xlink:href="#DejaVuSans-32"/>
       <use xlink:href="#DejaVuSans-35" x="63.623047"/>
      </g>
     </g>
    </g>
    <g id="xtick_3">
     <g id="line2d_3">
      <g>
       <use xlink:href="#m0bc945fc56" x="187.069189" y="192.24" style="stroke: #000000; stroke-width: 0.8"/>
      </g>
     </g>
     <g id="text_3">
      <!-- 50 -->
      <g transform="translate(180.706689 206.838437) scale(0.1 -0.1)">
       <use xlink:href="#DejaVuSans-35"/>
       <use xlink:href="#DejaVuSans-30" x="63.623047"/>
      </g>
     </g>
    </g>
    <g id="xtick_4">
     <g id="line2d_4">
      <g>
       <use xlink:href="#m0bc945fc56" x="240.226511" y="192.24" style="stroke: #000000; stroke-width: 0.8"/>
      </g>
     </g>
     <g id="text_4">
      <!-- 75 -->
      <g transform="translate(233.864011 206.838437) scale(0.1 -0.1)">
       <defs>
        <path id="DejaVuSans-37" d="M 525 4666 
L 3525 4666 
L 3525 4397 
L 1831 0 
L 1172 0 
L 2766 4134 
L 525 4134 
L 525 4666 
z
" transform="scale(0.015625)"/>
       </defs>
       <use xlink:href="#DejaVuSans-37"/>
       <use xlink:href="#DejaVuSans-35" x="63.623047"/>
      </g>
     </g>
    </g>
    <g id="xtick_5">
     <g id="line2d_5">
      <g>
       <use xlink:href="#m0bc945fc56" x="293.383832" y="192.24" style="stroke: #000000; stroke-width: 0.8"/>
      </g>
     </g>
     <g id="text_5">
      <!-- 100 -->
      <g transform="translate(283.840082 206.838437) scale(0.1 -0.1)">
       <defs>
        <path id="DejaVuSans-31" d="M 794 531 
L 1825 531 
L 1825 4091 
L 703 3866 
L 703 4441 
L 1819 4666 
L 2450 4666 
L 2450 531 
L 3481 531 
L 3481 0 
L 794 0 
L 794 531 
z
" transform="scale(0.015625)"/>
       </defs>
       <use xlink:href="#DejaVuSans-31"/>
       <use xlink:href="#DejaVuSans-30" x="63.623047"/>
       <use xlink:href="#DejaVuSans-30" x="127.246094"/>
      </g>
     </g>
    </g>
    <g id="xtick_6">
     <g id="line2d_6">
      <g>
       <use xlink:href="#m0bc945fc56" x="346.541154" y="192.24" style="stroke: #000000; stroke-width: 0.8"/>
      </g>
     </g>
     <g id="text_6">
      <!-- 125 -->
      <g transform="translate(336.997404 206.838437) scale(0.1 -0.1)">
       <use xlink:href="#DejaVuSans-31"/>
       <use xlink:href="#DejaVuSans-32" x="63.623047"/>
       <use xlink:href="#DejaVuSans-35" x="127.246094"/>
      </g>
     </g>
    </g>
    <g id="xtick_7">
     <g id="line2d_7">
      <g>
       <use xlink:href="#m0bc945fc56" x="399.698476" y="192.24" style="stroke: #000000; stroke-width: 0.8"/>
      </g>
     </g>
     <g id="text_7">
      <!-- 150 -->
      <g transform="translate(390.154726 206.838437) scale(0.1 -0.1)">
       <use xlink:href="#DejaVuSans-31"/>
       <use xlink:href="#DejaVuSans-35" x="63.623047"/>
       <use xlink:href="#DejaVuSans-30" x="127.246094"/>
      </g>
     </g>
    </g>
    <g id="xtick_8">
     <g id="line2d_8">
      <g>
       <use xlink:href="#m0bc945fc56" x="452.855797" y="192.24" style="stroke: #000000; stroke-width: 0.8"/>
      </g>
     </g>
     <g id="text_8">
      <!-- 175 -->
      <g transform="translate(443.312047 206.838437) scale(0.1 -0.1)">
       <use xlink:href="#DejaVuSans-31"/>
       <use xlink:href="#DejaVuSans-37" x="63.623047"/>
       <use xlink:href="#DejaVuSans-35" x="127.246094"/>
      </g>
     </g>
    </g>
   </g>
   <g id="matplotlib.axis_2">
    <g id="ytick_1">
     <g id="line2d_9">
      <defs>
       <path id="mdda5689de3" d="M 0 0 
L -3.5 0 
" style="stroke: #000000; stroke-width: 0.8"/>
      </defs>
      <g>
       <use xlink:href="#mdda5689de3" x="63" y="184.980497" style="stroke: #000000; stroke-width: 0.8"/>
      </g>
     </g>
     <g id="text_9">
      <!-- 0 -->
      <g transform="translate(49.6375 188.779716) scale(0.1 -0.1)">
       <use xlink:href="#DejaVuSans-30"/>
      </g>
     </g>
    </g>
    <g id="ytick_2">
     <g id="line2d_10">
      <g>
       <use xlink:href="#mdda5689de3" x="63" y="159.939092" style="stroke: #000000; stroke-width: 0.8"/>
      </g>
     </g>
     <g id="text_10">
      <!-- 20 -->
      <g transform="translate(43.275 163.738311) scale(0.1 -0.1)">
       <use xlink:href="#DejaVuSans-32"/>
       <use xlink:href="#DejaVuSans-30" x="63.623047"/>
      </g>
     </g>
    </g>
    <g id="ytick_3">
     <g id="line2d_11">
      <g>
       <use xlink:href="#mdda5689de3" x="63" y="134.897688" style="stroke: #000000; stroke-width: 0.8"/>
      </g>
     </g>
     <g id="text_11">
      <!-- 40 -->
      <g transform="translate(43.275 138.696907) scale(0.1 -0.1)">
       <defs>
        <path id="DejaVuSans-34" d="M 2419 4116 
L 825 1625 
L 2419 1625 
L 2419 4116 
z
M 2253 4666 
L 3047 4666 
L 3047 1625 
L 3713 1625 
L 3713 1100 
L 3047 1100 
L 3047 0 
L 2419 0 
L 2419 1100 
L 313 1100 
L 313 1709 
L 2253 4666 
z
" transform="scale(0.015625)"/>
       </defs>
       <use xlink:href="#DejaVuSans-34"/>
       <use xlink:href="#DejaVuSans-30" x="63.623047"/>
      </g>
     </g>
    </g>
    <g id="ytick_4">
     <g id="line2d_12">
      <g>
       <use xlink:href="#mdda5689de3" x="63" y="109.856284" style="stroke: #000000; stroke-width: 0.8"/>
      </g>
     </g>
     <g id="text_12">
      <!-- 60 -->
      <g transform="translate(43.275 113.655502) scale(0.1 -0.1)">
       <defs>
        <path id="DejaVuSans-36" d="M 2113 2584 
Q 1688 2584 1439 2293 
Q 1191 2003 1191 1497 
Q 1191 994 1439 701 
Q 1688 409 2113 409 
Q 2538 409 2786 701 
Q 3034 994 3034 1497 
Q 3034 2003 2786 2293 
Q 2538 2584 2113 2584 
z
M 3366 4563 
L 3366 3988 
Q 3128 4100 2886 4159 
Q 2644 4219 2406 4219 
Q 1781 4219 1451 3797 
Q 1122 3375 1075 2522 
Q 1259 2794 1537 2939 
Q 1816 3084 2150 3084 
Q 2853 3084 3261 2657 
Q 3669 2231 3669 1497 
Q 3669 778 3244 343 
Q 2819 -91 2113 -91 
Q 1303 -91 875 529 
Q 447 1150 447 2328 
Q 447 3434 972 4092 
Q 1497 4750 2381 4750 
Q 2619 4750 2861 4703 
Q 3103 4656 3366 4563 
z
" transform="scale(0.015625)"/>
       </defs>
       <use xlink:href="#DejaVuSans-36"/>
       <use xlink:href="#DejaVuSans-30" x="63.623047"/>
      </g>
     </g>
    </g>
    <g id="ytick_5">
     <g id="line2d_13">
      <g>
       <use xlink:href="#mdda5689de3" x="63" y="84.814879" style="stroke: #000000; stroke-width: 0.8"/>
      </g>
     </g>
     <g id="text_13">
      <!-- 80 -->
      <g transform="translate(43.275 88.614098) scale(0.1 -0.1)">
       <defs>
        <path id="DejaVuSans-38" d="M 2034 2216 
Q 1584 2216 1326 1975 
Q 1069 1734 1069 1313 
Q 1069 891 1326 650 
Q 1584 409 2034 409 
Q 2484 409 2743 651 
Q 3003 894 3003 1313 
Q 3003 1734 2745 1975 
Q 2488 2216 2034 2216 
z
M 1403 2484 
Q 997 2584 770 2862 
Q 544 3141 544 3541 
Q 544 4100 942 4425 
Q 1341 4750 2034 4750 
Q 2731 4750 3128 4425 
Q 3525 4100 3525 3541 
Q 3525 3141 3298 2862 
Q 3072 2584 2669 2484 
Q 3125 2378 3379 2068 
Q 3634 1759 3634 1313 
Q 3634 634 3220 271 
Q 2806 -91 2034 -91 
Q 1263 -91 848 271 
Q 434 634 434 1313 
Q 434 1759 690 2068 
Q 947 2378 1403 2484 
z
M 1172 3481 
Q 1172 3119 1398 2916 
Q 1625 2713 2034 2713 
Q 2441 2713 2670 2916 
Q 2900 3119 2900 3481 
Q 2900 3844 2670 4047 
Q 2441 4250 2034 4250 
Q 1625 4250 1398 4047 
Q 1172 3844 1172 3481 
z
" transform="scale(0.015625)"/>
       </defs>
       <use xlink:href="#DejaVuSans-38"/>
       <use xlink:href="#DejaVuSans-30" x="63.623047"/>
      </g>
     </g>
    </g>
    <g id="ytick_6">
     <g id="line2d_14">
      <g>
       <use xlink:href="#mdda5689de3" x="63" y="59.773475" style="stroke: #000000; stroke-width: 0.8"/>
      </g>
     </g>
     <g id="text_14">
      <!-- 100 -->
      <g transform="translate(36.9125 63.572693) scale(0.1 -0.1)">
       <use xlink:href="#DejaVuSans-31"/>
       <use xlink:href="#DejaVuSans-30" x="63.623047"/>
       <use xlink:href="#DejaVuSans-30" x="127.246094"/>
      </g>
     </g>
    </g>
    <g id="ytick_7">
     <g id="line2d_15">
      <g>
       <use xlink:href="#mdda5689de3" x="63" y="34.73207" style="stroke: #000000; stroke-width: 0.8"/>
      </g>
     </g>
     <g id="text_15">
      <!-- 120 -->
      <g transform="translate(36.9125 38.531289) scale(0.1 -0.1)">
       <use xlink:href="#DejaVuSans-31"/>
       <use xlink:href="#DejaVuSans-32" x="63.623047"/>
       <use xlink:href="#DejaVuSans-30" x="127.246094"/>
      </g>
     </g>
    </g>
   </g>
   <g id="line2d_16">
    <path d="M 80.754545 184.454627 
L 82.880838 184.492189 
L 85.007131 184.654959 
L 93.512303 184.654959 
L 95.638596 184.454627 
L 99.891181 183.07735 
L 102.017474 183.715906 
L 104.143767 184.179172 
L 106.27006 184.442107 
L 108.396353 184.404545 
L 110.522646 184.529752 
L 119.027817 184.429586 
L 121.15411 184.454627 
L 123.280403 184.3169 
L 127.532989 184.454627 
L 131.785574 184.454627 
L 136.03816 184.617396 
L 140.290746 184.667479 
L 146.669624 184.15413 
L 148.795917 183.953799 
L 150.92221 183.866154 
L 155.174796 182.050653 
L 157.301089 181.599907 
L 159.427382 182.676688 
L 161.553674 184.066486 
L 163.679967 183.240119 
L 165.80626 183.478013 
L 167.932553 184.279338 
L 170.058846 184.3169 
L 172.185139 183.866154 
L 176.437725 184.166651 
L 178.564017 184.129089 
L 182.816603 183.490533 
L 184.942896 182.488877 
L 187.069189 182.726771 
L 189.195482 183.340285 
L 191.321775 184.216734 
L 195.57436 184.554793 
L 201.953239 184.567314 
L 204.079532 184.517231 
L 208.332118 183.841113 
L 210.45841 184.116568 
L 212.584703 183.878675 
L 214.710996 183.79103 
L 216.837289 184.229255 
L 218.963582 184.366982 
L 221.089875 184.379503 
L 227.468753 183.265161 
L 229.595046 183.503054 
L 231.721339 183.866154 
L 233.847632 184.392024 
L 248.731682 184.554793 
L 250.857975 184.32942 
L 252.984268 183.653302 
L 255.110561 183.42793 
L 257.236854 184.028923 
L 263.615732 183.690865 
L 265.742025 183.515575 
L 267.868318 183.690865 
L 272.120904 183.327764 
L 274.247197 182.977184 
L 276.373489 182.989705 
L 278.499782 182.589043 
L 280.626075 182.513918 
L 282.752368 182.651646 
L 284.878661 183.25264 
L 287.004954 183.42793 
L 291.257539 183.465492 
L 293.383832 183.853634 
L 295.510125 183.61574 
L 297.636418 183.978841 
L 299.762711 183.841113 
L 301.889004 183.816072 
L 310.394175 183.177516 
L 312.520468 183.553137 
L 314.646761 183.114912 
L 316.773054 183.42793 
L 318.899347 184.091527 
L 323.151932 183.765989 
L 325.278225 183.565658 
L 327.404518 183.215078 
L 331.657104 183.365326 
L 333.783397 183.778509 
L 338.035983 184.191693 
L 342.288568 184.279338 
L 348.667447 184.629917 
L 355.046326 184.479669 
L 359.298911 184.354462 
L 365.67779 184.366982 
L 374.182961 184.392024 
L 376.309254 184.216734 
L 378.435547 184.204213 
L 380.56184 183.866154 
L 382.688133 184.15413 
L 384.814426 184.091527 
L 386.940719 183.653302 
L 389.067011 184.079006 
L 391.193304 184.379503 
L 393.319597 184.379503 
L 395.44589 184.617396 
L 399.698476 184.629917 
L 401.824769 184.567314 
L 403.951062 184.229255 
L 408.203647 183.828592 
L 410.32994 184.116568 
L 414.582526 183.928758 
L 416.708819 183.528095 
L 418.835112 183.390368 
L 420.961404 183.578178 
L 423.087697 183.61574 
L 425.21399 183.302723 
L 427.340283 182.864498 
L 429.466576 183.465492 
L 431.592869 183.841113 
L 433.719162 183.953799 
L 435.845455 183.765989 
L 435.845455 183.765989 
" clip-path="url(#p2a8b362a7e)" style="fill: none; stroke: #1f77b4; stroke-width: 1.5; stroke-linecap: square"/>
   </g>
   <g id="line2d_17">
    <path d="M 80.754545 122.589835 
L 82.880838 135.749096 
L 85.007131 160.690335 
L 87.133424 166.938165 
L 89.259717 166.349692 
L 91.38601 162.781292 
L 93.512303 143.912595 
L 95.638596 106.801234 
L 97.764888 66.559693 
L 99.891181 60.737565 
L 102.017474 91.626144 
L 104.143767 99.789638 
L 106.27006 132.343464 
L 108.396353 140.068739 
L 110.522646 149.997654 
L 112.648938 144.263173 
L 114.775231 146.529421 
L 116.901524 135.486163 
L 119.027817 116.842838 
L 121.15411 120.286031 
L 123.280403 107.364662 
L 125.406696 111.884636 
L 127.532989 118.70842 
L 129.659281 113.988114 
L 131.785574 117.569036 
L 133.911867 138.428526 
L 136.03816 147.94426 
L 138.164453 152.664565 
L 140.290746 159.438265 
L 142.417039 144.501064 
L 146.669624 90.837334 
L 148.795917 85.278149 
L 150.92221 85.215541 
L 153.048503 71.179835 
L 155.174796 54.890399 
L 157.301089 33.48 
L 159.427382 47.628397 
L 161.553674 100.415673 
L 163.679967 62.640717 
L 165.80626 50.633358 
L 167.932553 96.246277 
L 170.058846 97.861449 
L 172.185139 76.651385 
L 174.311432 90.53684 
L 176.437725 100.891456 
L 178.564017 103.032505 
L 180.69031 96.321407 
L 182.816603 97.435749 
L 184.942896 80.307428 
L 187.069189 82.523588 
L 189.195482 96.133595 
L 193.448068 132.005404 
L 195.57436 147.130415 
L 197.700653 154.00428 
L 199.826946 143.236475 
L 201.953239 147.393348 
L 204.079532 147.981823 
L 206.205825 147.556119 
L 208.332118 142.297423 
L 210.45841 136.362608 
L 212.584703 117.78189 
L 214.710996 105.198581 
L 216.837289 129.588908 
L 218.963582 120.887024 
L 221.089875 103.746184 
L 223.216168 84.539422 
L 225.342461 79.794075 
L 227.468753 79.067881 
L 229.595046 80.144653 
L 231.721339 93.316437 
L 233.847632 112.748567 
L 235.973925 120.110737 
L 238.100218 124.593151 
L 240.226511 124.029718 
L 242.352803 139.192289 
L 244.479096 141.658869 
L 246.605389 137.251581 
L 248.731682 133.219914 
L 250.857975 120.99971 
L 252.984268 106.150157 
L 255.110561 108.028262 
L 257.236854 120.373675 
L 261.489439 91.07523 
L 263.615732 76.413489 
L 265.742025 68.963666 
L 267.868318 64.493775 
L 269.994611 56.142469 
L 272.120904 62.390297 
L 274.247197 57.519744 
L 276.373489 56.643299 
L 278.499782 48.254432 
L 280.626075 61.038068 
L 282.752368 64.456215 
L 284.878661 80.833295 
L 287.004954 89.347377 
L 289.131247 89.197125 
L 291.257539 93.804744 
L 293.383832 107.6276 
L 295.510125 98.662773 
L 297.636418 105.323791 
L 299.762711 106.087554 
L 301.889004 109.180164 
L 304.015297 112.523194 
L 306.14159 107.064168 
L 308.267882 95.482513 
L 310.394175 85.203018 
L 312.520468 90.524316 
L 314.646761 66.409451 
L 318.899347 95.670326 
L 321.02564 94.656152 
L 325.278225 79.430973 
L 327.404518 75.825015 
L 329.530811 77.45271 
L 331.657104 82.874166 
L 333.783397 95.870661 
L 335.90969 113.449724 
L 338.035983 128.90027 
L 340.162275 125.482119 
L 342.288568 131.216603 
L 344.414861 138.491128 
L 346.541154 149.071123 
L 348.667447 156.258005 
L 350.79374 162.919018 
L 352.920033 164.809645 
L 355.046326 162.806334 
L 357.172618 150.398316 
L 359.298911 154.3799 
L 361.425204 159.037603 
L 363.551497 154.880728 
L 365.67779 156.796396 
L 367.804083 154.517628 
L 369.930376 155.306432 
L 372.056668 149.947573 
L 374.182961 135.398518 
L 376.309254 111.834557 
L 378.435547 100.540878 
L 380.56184 84.476824 
L 382.688133 96.346445 
L 384.814426 97.272974 
L 386.940719 80.532801 
L 389.067011 105.135978 
L 391.193304 118.357841 
L 393.319597 119.033961 
L 395.44589 154.417463 
L 397.572183 159.788843 
L 399.698476 158.636938 
L 401.824769 142.685566 
L 403.951062 105.987386 
L 406.077354 96.121072 
L 408.203647 91.137838 
L 410.32994 110.882981 
L 412.456233 113.625013 
L 414.582526 104.497425 
L 416.708819 75.036214 
L 418.835112 81.296565 
L 420.961404 75.975266 
L 423.087697 87.732205 
L 425.21399 71.993683 
L 427.340283 65.37023 
L 429.466576 73.195669 
L 431.592869 89.096957 
L 433.719162 83.92591 
L 435.845455 93.554333 
L 435.845455 93.554333 
" clip-path="url(#p2a8b362a7e)" style="fill: none; stroke: #ff7f0e; stroke-width: 1.5; stroke-linecap: square"/>
   </g>
   <g id="line2d_18">
    <path d="M 80.754545 164.471588 
L 82.880838 166.750354 
L 85.007131 171.595867 
L 87.133424 173.123392 
L 89.259717 173.411368 
L 91.38601 173.511534 
L 93.512303 172.860457 
L 95.638596 170.193547 
L 97.764888 159.313057 
L 99.891181 152.389108 
L 102.017474 157.096892 
L 104.143767 159.338099 
L 106.27006 159.363141 
L 108.396353 156.771354 
L 110.522646 162.956581 
L 112.648938 160.414878 
L 114.775231 160.565128 
L 116.901524 156.458336 
L 119.027817 155.193745 
L 121.15411 160.552607 
L 123.280403 154.617794 
L 125.406696 158.136111 
L 127.532989 162.793813 
L 129.659281 164.809645 
L 131.785574 165.936509 
L 133.911867 169.267015 
L 136.03816 171.48318 
L 138.164453 171.295369 
L 144.543332 171.145121 
L 146.669624 164.671919 
L 148.795917 160.527565 
L 150.92221 154.680397 
L 153.048503 125.757576 
L 155.174796 72.043767 
L 157.301089 45.750292 
L 159.427382 93.379035 
L 161.553674 130.32763 
L 163.679967 127.635682 
L 165.80626 130.515442 
L 167.932553 128.537169 
L 170.058846 129.789239 
L 172.185139 112.898815 
L 174.311432 136.988643 
L 176.437725 147.155457 
L 178.564017 148.13207 
L 180.69031 146.128757 
L 182.816603 147.831573 
L 184.942896 141.558701 
L 187.069189 138.741543 
L 189.195482 148.044425 
L 191.321775 162.042571 
L 193.448068 166.099278 
L 195.57436 168.390566 
L 197.700653 169.717761 
L 199.826946 169.767844 
L 201.953239 170.068341 
L 204.079532 167.701928 
L 206.205825 157.197058 
L 208.332118 129.701595 
L 210.45841 120.548964 
L 212.584703 118.307758 
L 214.710996 134.972814 
L 216.837289 129.801763 
L 221.089875 129.839323 
L 223.216168 129.063041 
L 225.342461 105.348833 
L 227.468753 111.97228 
L 229.595046 125.194144 
L 231.721339 139.192289 
L 233.847632 156.32061 
L 235.973925 162.368109 
L 238.100218 165.110143 
L 240.226511 165.886426 
L 242.352803 167.764531 
L 244.479096 168.390566 
L 246.605389 169.392223 
L 248.731682 170.093381 
L 250.857975 166.938165 
L 252.984268 159.788843 
L 255.110561 158.261318 
L 257.236854 144.463504 
L 259.363146 136.600504 
L 261.489439 139.805801 
L 263.615732 141.308286 
L 265.742025 138.503652 
L 267.868318 137.777449 
L 272.120904 140.60713 
L 274.247197 130.377714 
L 276.373489 128.299277 
L 278.499782 117.180892 
L 280.626075 120.949626 
L 282.752368 135.13558 
L 284.878661 143.261517 
L 287.004954 149.071123 
L 289.131247 150.986791 
L 291.257539 154.367379 
L 293.383832 159.713719 
L 295.510125 158.937437 
L 297.636418 162.40567 
L 299.762711 162.530877 
L 301.889004 163.269599 
L 304.015297 161.69199 
L 306.14159 158.261318 
L 308.267882 140.469401 
L 310.394175 126.258402 
L 312.520468 133.132269 
L 314.646761 134.321737 
L 316.773054 135.974469 
L 318.899347 134.947772 
L 321.02564 141.433496 
L 323.151932 142.410109 
L 325.278225 143.036144 
L 327.404518 138.804146 
L 329.530811 141.533659 
L 331.657104 141.871719 
L 333.783397 148.29484 
L 338.035983 161.929884 
L 340.162275 163.46993 
L 342.288568 163.532535 
L 344.414861 164.659398 
L 346.541154 166.224485 
L 348.667447 169.404744 
L 350.79374 168.941477 
L 352.920033 168.716105 
L 355.046326 168.152674 
L 357.172618 165.823822 
L 359.298911 160.815543 
L 363.551497 157.434952 
L 365.67779 159.613554 
L 367.804083 159.225413 
L 369.930376 156.583544 
L 374.182961 154.317297 
L 376.309254 150.185464 
L 378.435547 144.188047 
L 380.56184 138.653899 
L 382.688133 143.374204 
L 384.814426 142.748169 
L 386.940719 148.545253 
L 389.067011 155.682054 
L 391.193304 160.565128 
L 393.319597 160.565128 
L 395.44589 164.396462 
L 397.572183 166.362213 
L 399.698476 166.938165 
L 401.824769 165.648533 
L 403.951062 161.278807 
L 406.077354 158.273839 
L 410.32994 140.945189 
L 412.456233 136.88848 
L 416.708819 132.08053 
L 418.835112 131.291724 
L 420.961404 127.147375 
L 423.087697 137.552076 
L 425.21399 138.265755 
L 427.340283 130.089738 
L 429.466576 129.188246 
L 431.592869 138.966916 
L 433.719162 143.173873 
L 435.845455 150.723855 
L 435.845455 150.723855 
" clip-path="url(#p2a8b362a7e)" style="fill: none; stroke: #2ca02c; stroke-width: 1.5; stroke-linecap: square"/>
   </g>
   <g id="patch_3">
    <path d="M 63 192.24 
L 63 25.92 
" style="fill: none; stroke: #000000; stroke-width: 0.8; stroke-linejoin: miter; stroke-linecap: square"/>
   </g>
   <g id="patch_4">
    <path d="M 453.6 192.24 
L 453.6 25.92 
" style="fill: none; stroke: #000000; stroke-width: 0.8; stroke-linejoin: miter; stroke-linecap: square"/>
   </g>
   <g id="patch_5">
    <path d="M 63 192.24 
L 453.6 192.24 
" style="fill: none; stroke: #000000; stroke-width: 0.8; stroke-linejoin: miter; stroke-linecap: square"/>
   </g>
   <g id="patch_6">
    <path d="M 63 25.92 
L 453.6 25.92 
" style="fill: none; stroke: #000000; stroke-width: 0.8; stroke-linejoin: miter; stroke-linecap: square"/>
   </g>
   <g id="legend_1">
    <g id="patch_7">
     <path d="M 300.71875 77.954375 
L 446.6 77.954375 
Q 448.6 77.954375 448.6 75.954375 
L 448.6 32.92 
Q 448.6 30.92 446.6 30.92 
L 300.71875 30.92 
Q 298.71875 30.92 298.71875 32.92 
L 298.71875 75.954375 
Q 298.71875 77.954375 300.71875 77.954375 
z
" style="fill: #ffffff; opacity: 0.8; stroke: #cccccc; stroke-linejoin: miter"/>
    </g>
    <g id="line2d_19">
     <path d="M 302.71875 39.018438 
L 312.71875 39.018438 
L 322.71875 39.018438 
" style="fill: none; stroke: #1f77b4; stroke-width: 1.5; stroke-linecap: square"/>
    </g>
    <g id="text_16">
     <!-- sulphur dioxide level -->
     <g transform="translate(330.71875 42.518438) scale(0.1 -0.1)">
      <defs>
       <path id="DejaVuSans-73" d="M 2834 3397 
L 2834 2853 
Q 2591 2978 2328 3040 
Q 2066 3103 1784 3103 
Q 1356 3103 1142 2972 
Q 928 2841 928 2578 
Q 928 2378 1081 2264 
Q 1234 2150 1697 2047 
L 1894 2003 
Q 2506 1872 2764 1633 
Q 3022 1394 3022 966 
Q 3022 478 2636 193 
Q 2250 -91 1575 -91 
Q 1294 -91 989 -36 
Q 684 19 347 128 
L 347 722 
Q 666 556 975 473 
Q 1284 391 1588 391 
Q 1994 391 2212 530 
Q 2431 669 2431 922 
Q 2431 1156 2273 1281 
Q 2116 1406 1581 1522 
L 1381 1569 
Q 847 1681 609 1914 
Q 372 2147 372 2553 
Q 372 3047 722 3315 
Q 1072 3584 1716 3584 
Q 2034 3584 2315 3537 
Q 2597 3491 2834 3397 
z
" transform="scale(0.015625)"/>
       <path id="DejaVuSans-75" d="M 544 1381 
L 544 3500 
L 1119 3500 
L 1119 1403 
Q 1119 906 1312 657 
Q 1506 409 1894 409 
Q 2359 409 2629 706 
Q 2900 1003 2900 1516 
L 2900 3500 
L 3475 3500 
L 3475 0 
L 2900 0 
L 2900 538 
Q 2691 219 2414 64 
Q 2138 -91 1772 -91 
Q 1169 -91 856 284 
Q 544 659 544 1381 
z
M 1991 3584 
L 1991 3584 
z
" transform="scale(0.015625)"/>
       <path id="DejaVuSans-6c" d="M 603 4863 
L 1178 4863 
L 1178 0 
L 603 0 
L 603 4863 
z
" transform="scale(0.015625)"/>
       <path id="DejaVuSans-70" d="M 1159 525 
L 1159 -1331 
L 581 -1331 
L 581 3500 
L 1159 3500 
L 1159 2969 
Q 1341 3281 1617 3432 
Q 1894 3584 2278 3584 
Q 2916 3584 3314 3078 
Q 3713 2572 3713 1747 
Q 3713 922 3314 415 
Q 2916 -91 2278 -91 
Q 1894 -91 1617 61 
Q 1341 213 1159 525 
z
M 3116 1747 
Q 3116 2381 2855 2742 
Q 2594 3103 2138 3103 
Q 1681 3103 1420 2742 
Q 1159 2381 1159 1747 
Q 1159 1113 1420 752 
Q 1681 391 2138 391 
Q 2594 391 2855 752 
Q 3116 1113 3116 1747 
z
" transform="scale(0.015625)"/>
       <path id="DejaVuSans-68" d="M 3513 2113 
L 3513 0 
L 2938 0 
L 2938 2094 
Q 2938 2591 2744 2837 
Q 2550 3084 2163 3084 
Q 1697 3084 1428 2787 
Q 1159 2491 1159 1978 
L 1159 0 
L 581 0 
L 581 4863 
L 1159 4863 
L 1159 2956 
Q 1366 3272 1645 3428 
Q 1925 3584 2291 3584 
Q 2894 3584 3203 3211 
Q 3513 2838 3513 2113 
z
" transform="scale(0.015625)"/>
       <path id="DejaVuSans-72" d="M 2631 2963 
Q 2534 3019 2420 3045 
Q 2306 3072 2169 3072 
Q 1681 3072 1420 2755 
Q 1159 2438 1159 1844 
L 1159 0 
L 581 0 
L 581 3500 
L 1159 3500 
L 1159 2956 
Q 1341 3275 1631 3429 
Q 1922 3584 2338 3584 
Q 2397 3584 2469 3576 
Q 2541 3569 2628 3553 
L 2631 2963 
z
" transform="scale(0.015625)"/>
       <path id="DejaVuSans-20" transform="scale(0.015625)"/>
       <path id="DejaVuSans-64" d="M 2906 2969 
L 2906 4863 
L 3481 4863 
L 3481 0 
L 2906 0 
L 2906 525 
Q 2725 213 2448 61 
Q 2172 -91 1784 -91 
Q 1150 -91 751 415 
Q 353 922 353 1747 
Q 353 2572 751 3078 
Q 1150 3584 1784 3584 
Q 2172 3584 2448 3432 
Q 2725 3281 2906 2969 
z
M 947 1747 
Q 947 1113 1208 752 
Q 1469 391 1925 391 
Q 2381 391 2643 752 
Q 2906 1113 2906 1747 
Q 2906 2381 2643 2742 
Q 2381 3103 1925 3103 
Q 1469 3103 1208 2742 
Q 947 2381 947 1747 
z
" transform="scale(0.015625)"/>
       <path id="DejaVuSans-69" d="M 603 3500 
L 1178 3500 
L 1178 0 
L 603 0 
L 603 3500 
z
M 603 4863 
L 1178 4863 
L 1178 4134 
L 603 4134 
L 603 4863 
z
" transform="scale(0.015625)"/>
       <path id="DejaVuSans-6f" d="M 1959 3097 
Q 1497 3097 1228 2736 
Q 959 2375 959 1747 
Q 959 1119 1226 758 
Q 1494 397 1959 397 
Q 2419 397 2687 759 
Q 2956 1122 2956 1747 
Q 2956 2369 2687 2733 
Q 2419 3097 1959 3097 
z
M 1959 3584 
Q 2709 3584 3137 3096 
Q 3566 2609 3566 1747 
Q 3566 888 3137 398 
Q 2709 -91 1959 -91 
Q 1206 -91 779 398 
Q 353 888 353 1747 
Q 353 2609 779 3096 
Q 1206 3584 1959 3584 
z
" transform="scale(0.015625)"/>
       <path id="DejaVuSans-78" d="M 3513 3500 
L 2247 1797 
L 3578 0 
L 2900 0 
L 1881 1375 
L 863 0 
L 184 0 
L 1544 1831 
L 300 3500 
L 978 3500 
L 1906 2253 
L 2834 3500 
L 3513 3500 
z
" transform="scale(0.015625)"/>
       <path id="DejaVuSans-65" d="M 3597 1894 
L 3597 1613 
L 953 1613 
Q 991 1019 1311 708 
Q 1631 397 2203 397 
Q 2534 397 2845 478 
Q 3156 559 3463 722 
L 3463 178 
Q 3153 47 2828 -22 
Q 2503 -91 2169 -91 
Q 1331 -91 842 396 
Q 353 884 353 1716 
Q 353 2575 817 3079 
Q 1281 3584 2069 3584 
Q 2775 3584 3186 3129 
Q 3597 2675 3597 1894 
z
M 3022 2063 
Q 3016 2534 2758 2815 
Q 2500 3097 2075 3097 
Q 1594 3097 1305 2825 
Q 1016 2553 972 2059 
L 3022 2063 
z
" transform="scale(0.015625)"/>
       <path id="DejaVuSans-76" d="M 191 3500 
L 800 3500 
L 1894 563 
L 2988 3500 
L 3597 3500 
L 2284 0 
L 1503 0 
L 191 3500 
z
" transform="scale(0.015625)"/>
      </defs>
      <use xlink:href="#DejaVuSans-73"/>
      <use xlink:href="#DejaVuSans-75" x="52.099609"/>
      <use xlink:href="#DejaVuSans-6c" x="115.478516"/>
      <use xlink:href="#DejaVuSans-70" x="143.261719"/>
      <use xlink:href="#DejaVuSans-68" x="206.738281"/>
      <use xlink:href="#DejaVuSans-75" x="270.117188"/>
      <use xlink:href="#DejaVuSans-72" x="333.496094"/>
      <use xlink:href="#DejaVuSans-20" x="374.609375"/>
      <use xlink:href="#DejaVuSans-64" x="406.396484"/>
      <use xlink:href="#DejaVuSans-69" x="469.873047"/>
      <use xlink:href="#DejaVuSans-6f" x="497.65625"/>
      <use xlink:href="#DejaVuSans-78" x="555.712891"/>
      <use xlink:href="#DejaVuSans-69" x="614.892578"/>
      <use xlink:href="#DejaVuSans-64" x="642.675781"/>
      <use xlink:href="#DejaVuSans-65" x="706.152344"/>
      <use xlink:href="#DejaVuSans-20" x="767.675781"/>
      <use xlink:href="#DejaVuSans-6c" x="799.462891"/>
      <use xlink:href="#DejaVuSans-65" x="827.246094"/>
      <use xlink:href="#DejaVuSans-76" x="888.769531"/>
      <use xlink:href="#DejaVuSans-65" x="947.949219"/>
      <use xlink:href="#DejaVuSans-6c" x="1009.472656"/>
     </g>
    </g>
    <g id="line2d_20">
     <path d="M 302.71875 53.696562 
L 312.71875 53.696562 
L 322.71875 53.696562 
" style="fill: none; stroke: #ff7f0e; stroke-width: 1.5; stroke-linecap: square"/>
    </g>
    <g id="text_17">
     <!-- carbon monoxide level -->
     <g transform="translate(330.71875 57.196562) scale(0.1 -0.1)">
      <defs>
       <path id="DejaVuSans-63" d="M 3122 3366 
L 3122 2828 
Q 2878 2963 2633 3030 
Q 2388 3097 2138 3097 
Q 1578 3097 1268 2742 
Q 959 2388 959 1747 
Q 959 1106 1268 751 
Q 1578 397 2138 397 
Q 2388 397 2633 464 
Q 2878 531 3122 666 
L 3122 134 
Q 2881 22 2623 -34 
Q 2366 -91 2075 -91 
Q 1284 -91 818 406 
Q 353 903 353 1747 
Q 353 2603 823 3093 
Q 1294 3584 2113 3584 
Q 2378 3584 2631 3529 
Q 2884 3475 3122 3366 
z
" transform="scale(0.015625)"/>
       <path id="DejaVuSans-61" d="M 2194 1759 
Q 1497 1759 1228 1600 
Q 959 1441 959 1056 
Q 959 750 1161 570 
Q 1363 391 1709 391 
Q 2188 391 2477 730 
Q 2766 1069 2766 1631 
L 2766 1759 
L 2194 1759 
z
M 3341 1997 
L 3341 0 
L 2766 0 
L 2766 531 
Q 2569 213 2275 61 
Q 1981 -91 1556 -91 
Q 1019 -91 701 211 
Q 384 513 384 1019 
Q 384 1609 779 1909 
Q 1175 2209 1959 2209 
L 2766 2209 
L 2766 2266 
Q 2766 2663 2505 2880 
Q 2244 3097 1772 3097 
Q 1472 3097 1187 3025 
Q 903 2953 641 2809 
L 641 3341 
Q 956 3463 1253 3523 
Q 1550 3584 1831 3584 
Q 2591 3584 2966 3190 
Q 3341 2797 3341 1997 
z
" transform="scale(0.015625)"/>
       <path id="DejaVuSans-62" d="M 3116 1747 
Q 3116 2381 2855 2742 
Q 2594 3103 2138 3103 
Q 1681 3103 1420 2742 
Q 1159 2381 1159 1747 
Q 1159 1113 1420 752 
Q 1681 391 2138 391 
Q 2594 391 2855 752 
Q 3116 1113 3116 1747 
z
M 1159 2969 
Q 1341 3281 1617 3432 
Q 1894 3584 2278 3584 
Q 2916 3584 3314 3078 
Q 3713 2572 3713 1747 
Q 3713 922 3314 415 
Q 2916 -91 2278 -91 
Q 1894 -91 1617 61 
Q 1341 213 1159 525 
L 1159 0 
L 581 0 
L 581 4863 
L 1159 4863 
L 1159 2969 
z
" transform="scale(0.015625)"/>
       <path id="DejaVuSans-6e" d="M 3513 2113 
L 3513 0 
L 2938 0 
L 2938 2094 
Q 2938 2591 2744 2837 
Q 2550 3084 2163 3084 
Q 1697 3084 1428 2787 
Q 1159 2491 1159 1978 
L 1159 0 
L 581 0 
L 581 3500 
L 1159 3500 
L 1159 2956 
Q 1366 3272 1645 3428 
Q 1925 3584 2291 3584 
Q 2894 3584 3203 3211 
Q 3513 2838 3513 2113 
z
" transform="scale(0.015625)"/>
       <path id="DejaVuSans-6d" d="M 3328 2828 
Q 3544 3216 3844 3400 
Q 4144 3584 4550 3584 
Q 5097 3584 5394 3201 
Q 5691 2819 5691 2113 
L 5691 0 
L 5113 0 
L 5113 2094 
Q 5113 2597 4934 2840 
Q 4756 3084 4391 3084 
Q 3944 3084 3684 2787 
Q 3425 2491 3425 1978 
L 3425 0 
L 2847 0 
L 2847 2094 
Q 2847 2600 2669 2842 
Q 2491 3084 2119 3084 
Q 1678 3084 1418 2786 
Q 1159 2488 1159 1978 
L 1159 0 
L 581 0 
L 581 3500 
L 1159 3500 
L 1159 2956 
Q 1356 3278 1631 3431 
Q 1906 3584 2284 3584 
Q 2666 3584 2933 3390 
Q 3200 3197 3328 2828 
z
" transform="scale(0.015625)"/>
      </defs>
      <use xlink:href="#DejaVuSans-63"/>
      <use xlink:href="#DejaVuSans-61" x="54.980469"/>
      <use xlink:href="#DejaVuSans-72" x="116.259766"/>
      <use xlink:href="#DejaVuSans-62" x="157.373047"/>
      <use xlink:href="#DejaVuSans-6f" x="220.849609"/>
      <use xlink:href="#DejaVuSans-6e" x="282.03125"/>
      <use xlink:href="#DejaVuSans-20" x="345.410156"/>
      <use xlink:href="#DejaVuSans-6d" x="377.197266"/>
      <use xlink:href="#DejaVuSans-6f" x="474.609375"/>
      <use xlink:href="#DejaVuSans-6e" x="535.791016"/>
      <use xlink:href="#DejaVuSans-6f" x="599.169922"/>
      <use xlink:href="#DejaVuSans-78" x="657.226562"/>
      <use xlink:href="#DejaVuSans-69" x="716.40625"/>
      <use xlink:href="#DejaVuSans-64" x="744.189453"/>
      <use xlink:href="#DejaVuSans-65" x="807.666016"/>
      <use xlink:href="#DejaVuSans-20" x="869.189453"/>
      <use xlink:href="#DejaVuSans-6c" x="900.976562"/>
      <use xlink:href="#DejaVuSans-65" x="928.759766"/>
      <use xlink:href="#DejaVuSans-76" x="990.283203"/>
      <use xlink:href="#DejaVuSans-65" x="1049.462891"/>
      <use xlink:href="#DejaVuSans-6c" x="1110.986328"/>
     </g>
    </g>
    <g id="line2d_21">
     <path d="M 302.71875 68.374687 
L 312.71875 68.374687 
L 322.71875 68.374687 
" style="fill: none; stroke: #2ca02c; stroke-width: 1.5; stroke-linecap: square"/>
    </g>
    <g id="text_18">
     <!-- nitric oxide level -->
     <g transform="translate(330.71875 71.874687) scale(0.1 -0.1)">
      <defs>
       <path id="DejaVuSans-74" d="M 1172 4494 
L 1172 3500 
L 2356 3500 
L 2356 3053 
L 1172 3053 
L 1172 1153 
Q 1172 725 1289 603 
Q 1406 481 1766 481 
L 2356 481 
L 2356 0 
L 1766 0 
Q 1100 0 847 248 
Q 594 497 594 1153 
L 594 3053 
L 172 3053 
L 172 3500 
L 594 3500 
L 594 4494 
L 1172 4494 
z
" transform="scale(0.015625)"/>
      </defs>
      <use xlink:href="#DejaVuSans-6e"/>
      <use xlink:href="#DejaVuSans-69" x="63.378906"/>
      <use xlink:href="#DejaVuSans-74" x="91.162109"/>
      <use xlink:href="#DejaVuSans-72" x="130.371094"/>
      <use xlink:href="#DejaVuSans-69" x="171.484375"/>
      <use xlink:href="#DejaVuSans-63" x="199.267578"/>
      <use xlink:href="#DejaVuSans-20" x="254.248047"/>
      <use xlink:href="#DejaVuSans-6f" x="286.035156"/>
      <use xlink:href="#DejaVuSans-78" x="344.091797"/>
      <use xlink:href="#DejaVuSans-69" x="403.271484"/>
      <use xlink:href="#DejaVuSans-64" x="431.054688"/>
      <use xlink:href="#DejaVuSans-65" x="494.53125"/>
      <use xlink:href="#DejaVuSans-20" x="556.054688"/>
      <use xlink:href="#DejaVuSans-6c" x="587.841797"/>
      <use xlink:href="#DejaVuSans-65" x="615.625"/>
      <use xlink:href="#DejaVuSans-76" x="677.148438"/>
      <use xlink:href="#DejaVuSans-65" x="736.328125"/>
      <use xlink:href="#DejaVuSans-6c" x="797.851562"/>
     </g>
    </g>
   </g>
  </g>
 </g>
 <defs>
  <clipPath id="p2a8b362a7e">
   <rect x="63" y="25.92" width="390.6" height="166.32"/>
  </clipPath>
 </defs>
</svg>
