<?xml version="1.0" encoding="utf-8" standalone="no"?>
<!DOCTYPE svg PUBLIC "-//W3C//DTD SVG 1.1//EN"
  "http://www.w3.org/Graphics/SVG/1.1/DTD/svg11.dtd">
<svg xmlns:xlink="http://www.w3.org/1999/xlink" width="720pt" height="216pt" viewBox="0 0 720 216" xmlns="http://www.w3.org/2000/svg" version="1.1">
 <metadata>
  <rdf:RDF xmlns:dc="http://purl.org/dc/elements/1.1/" xmlns:cc="http://creativecommons.org/ns#" xmlns:rdf="http://www.w3.org/1999/02/22-rdf-syntax-ns#">
   <cc:Work>
    <dc:type rdf:resource="http://purl.org/dc/dcmitype/StillImage"/>
    <dc:date>2023-11-03T14:19:13.821527</dc:date>
    <dc:format>image/svg+xml</dc:format>
    <dc:creator>
     <cc:Agent>
      <dc:title>Matplotlib v3.7.1, https://matplotlib.org/</dc:title>
     </cc:Agent>
    </dc:creator>
   </cc:Work>
  </rdf:RDF>
 </metadata>
 <defs>
  <style type="text/css">*{stroke-linejoin: round; stroke-linecap: butt}</style>
 </defs>
 <g id="figure_1">
  <g id="patch_1">
   <path d="M 0 216 
L 720 216 
L 720 0 
L 0 0 
z
" style="fill: #ffffff"/>
  </g>
  <g id="axes_1">
   <g id="patch_2">
    <path d="M 90 192.24 
L 254.117647 192.24 
L 254.117647 25.92 
L 90 25.92 
z
" style="fill: #ffffff"/>
   </g>
   <g id="matplotlib.axis_1">
    <g id="xtick_1">
     <g id="line2d_1">
      <defs>
       <path id="m8497f8d88e" d="M 0 0 
L 0 3.5 
" style="stroke: #000000; stroke-width: 0.8"/>
      </defs>
      <g>
       <use xlink:href="#m8497f8d88e" x="97.459893" y="192.24" style="stroke: #000000; stroke-width: 0.8"/>
      </g>
     </g>
     <g id="text_1">
      <!-- 0 -->
      <g transform="translate(94.278643 206.838437) scale(0.1 -0.1)">
       <defs>
        <path id="DejaVuSans-30" d="M 2034 4250 
Q 1547 4250 1301 3770 
Q 1056 3291 1056 2328 
Q 1056 1369 1301 889 
Q 1547 409 2034 409 
Q 2525 409 2770 889 
Q 3016 1369 3016 2328 
Q 3016 3291 2770 3770 
Q 2525 4250 2034 4250 
z
M 2034 4750 
Q 2819 4750 3233 4129 
Q 3647 3509 3647 2328 
Q 3647 1150 3233 529 
Q 2819 -91 2034 -91 
Q 1250 -91 836 529 
Q 422 1150 422 2328 
Q 422 3509 836 4129 
Q 1250 4750 2034 4750 
z
" transform="scale(0.015625)"/>
       </defs>
       <use xlink:href="#DejaVuSans-30"/>
      </g>
     </g>
    </g>
    <g id="xtick_2">
     <g id="line2d_2">
      <g>
       <use xlink:href="#m8497f8d88e" x="148.035439" y="192.24" style="stroke: #000000; stroke-width: 0.8"/>
      </g>
     </g>
     <g id="text_2">
      <!-- 20 -->
      <g transform="translate(141.672939 206.838437) scale(0.1 -0.1)">
       <defs>
        <path id="DejaVuSans-32" d="M 1228 531 
L 3431 531 
L 3431 0 
L 469 0 
L 469 531 
Q 828 903 1448 1529 
Q 2069 2156 2228 2338 
Q 2531 2678 2651 2914 
Q 2772 3150 2772 3378 
Q 2772 3750 2511 3984 
Q 2250 4219 1831 4219 
Q 1534 4219 1204 4116 
Q 875 4013 500 3803 
L 500 4441 
Q 881 4594 1212 4672 
Q 1544 4750 1819 4750 
Q 2544 4750 2975 4387 
Q 3406 4025 3406 3419 
Q 3406 3131 3298 2873 
Q 3191 2616 2906 2266 
Q 2828 2175 2409 1742 
Q 1991 1309 1228 531 
z
" transform="scale(0.015625)"/>
       </defs>
       <use xlink:href="#DejaVuSans-32"/>
       <use xlink:href="#DejaVuSans-30" x="63.623047"/>
      </g>
     </g>
    </g>
    <g id="xtick_3">
     <g id="line2d_3">
      <g>
       <use xlink:href="#m8497f8d88e" x="198.610985" y="192.24" style="stroke: #000000; stroke-width: 0.8"/>
      </g>
     </g>
     <g id="text_3">
      <!-- 40 -->
      <g transform="translate(192.248485 206.838437) scale(0.1 -0.1)">
       <defs>
        <path id="DejaVuSans-34" d="M 2419 4116 
L 825 1625 
L 2419 1625 
L 2419 4116 
z
M 2253 4666 
L 3047 4666 
L 3047 1625 
L 3713 1625 
L 3713 1100 
L 3047 1100 
L 3047 0 
L 2419 0 
L 2419 1100 
L 313 1100 
L 313 1709 
L 2253 4666 
z
" transform="scale(0.015625)"/>
       </defs>
       <use xlink:href="#DejaVuSans-34"/>
       <use xlink:href="#DejaVuSans-30" x="63.623047"/>
      </g>
     </g>
    </g>
    <g id="xtick_4">
     <g id="line2d_4">
      <g>
       <use xlink:href="#m8497f8d88e" x="249.186531" y="192.24" style="stroke: #000000; stroke-width: 0.8"/>
      </g>
     </g>
     <g id="text_4">
      <!-- 60 -->
      <g transform="translate(242.824031 206.838437) scale(0.1 -0.1)">
       <defs>
        <path id="DejaVuSans-36" d="M 2113 2584 
Q 1688 2584 1439 2293 
Q 1191 2003 1191 1497 
Q 1191 994 1439 701 
Q 1688 409 2113 409 
Q 2538 409 2786 701 
Q 3034 994 3034 1497 
Q 3034 2003 2786 2293 
Q 2538 2584 2113 2584 
z
M 3366 4563 
L 3366 3988 
Q 3128 4100 2886 4159 
Q 2644 4219 2406 4219 
Q 1781 4219 1451 3797 
Q 1122 3375 1075 2522 
Q 1259 2794 1537 2939 
Q 1816 3084 2150 3084 
Q 2853 3084 3261 2657 
Q 3669 2231 3669 1497 
Q 3669 778 3244 343 
Q 2819 -91 2113 -91 
Q 1303 -91 875 529 
Q 447 1150 447 2328 
Q 447 3434 972 4092 
Q 1497 4750 2381 4750 
Q 2619 4750 2861 4703 
Q 3103 4656 3366 4563 
z
" transform="scale(0.015625)"/>
       </defs>
       <use xlink:href="#DejaVuSans-36"/>
       <use xlink:href="#DejaVuSans-30" x="63.623047"/>
      </g>
     </g>
    </g>
   </g>
   <g id="matplotlib.axis_2">
    <g id="ytick_1">
     <g id="line2d_5">
      <defs>
       <path id="m7b4c5ecc90" d="M 0 0 
L -3.5 0 
" style="stroke: #000000; stroke-width: 0.8"/>
      </defs>
      <g>
       <use xlink:href="#m7b4c5ecc90" x="90" y="178.643681" style="stroke: #000000; stroke-width: 0.8"/>
      </g>
     </g>
     <g id="text_5">
      <!-- 124 -->
      <g transform="translate(63.9125 182.4429) scale(0.1 -0.1)">
       <defs>
        <path id="DejaVuSans-31" d="M 794 531 
L 1825 531 
L 1825 4091 
L 703 3866 
L 703 4441 
L 1819 4666 
L 2450 4666 
L 2450 531 
L 3481 531 
L 3481 0 
L 794 0 
L 794 531 
z
" transform="scale(0.015625)"/>
       </defs>
       <use xlink:href="#DejaVuSans-31"/>
       <use xlink:href="#DejaVuSans-32" x="63.623047"/>
       <use xlink:href="#DejaVuSans-34" x="127.246094"/>
      </g>
     </g>
    </g>
    <g id="ytick_2">
     <g id="line2d_6">
      <g>
       <use xlink:href="#m7b4c5ecc90" x="90" y="139.307787" style="stroke: #000000; stroke-width: 0.8"/>
      </g>
     </g>
     <g id="text_6">
      <!-- 126 -->
      <g transform="translate(63.9125 143.107006) scale(0.1 -0.1)">
       <use xlink:href="#DejaVuSans-31"/>
       <use xlink:href="#DejaVuSans-32" x="63.623047"/>
       <use xlink:href="#DejaVuSans-36" x="127.246094"/>
      </g>
     </g>
    </g>
    <g id="ytick_3">
     <g id="line2d_7">
      <g>
       <use xlink:href="#m7b4c5ecc90" x="90" y="99.971893" style="stroke: #000000; stroke-width: 0.8"/>
      </g>
     </g>
     <g id="text_7">
      <!-- 128 -->
      <g transform="translate(63.9125 103.771112) scale(0.1 -0.1)">
       <defs>
        <path id="DejaVuSans-38" d="M 2034 2216 
Q 1584 2216 1326 1975 
Q 1069 1734 1069 1313 
Q 1069 891 1326 650 
Q 1584 409 2034 409 
Q 2484 409 2743 651 
Q 3003 894 3003 1313 
Q 3003 1734 2745 1975 
Q 2488 2216 2034 2216 
z
M 1403 2484 
Q 997 2584 770 2862 
Q 544 3141 544 3541 
Q 544 4100 942 4425 
Q 1341 4750 2034 4750 
Q 2731 4750 3128 4425 
Q 3525 4100 3525 3541 
Q 3525 3141 3298 2862 
Q 3072 2584 2669 2484 
Q 3125 2378 3379 2068 
Q 3634 1759 3634 1313 
Q 3634 634 3220 271 
Q 2806 -91 2034 -91 
Q 1263 -91 848 271 
Q 434 634 434 1313 
Q 434 1759 690 2068 
Q 947 2378 1403 2484 
z
M 1172 3481 
Q 1172 3119 1398 2916 
Q 1625 2713 2034 2713 
Q 2441 2713 2670 2916 
Q 2900 3119 2900 3481 
Q 2900 3844 2670 4047 
Q 2441 4250 2034 4250 
Q 1625 4250 1398 4047 
Q 1172 3844 1172 3481 
z
" transform="scale(0.015625)"/>
       </defs>
       <use xlink:href="#DejaVuSans-31"/>
       <use xlink:href="#DejaVuSans-32" x="63.623047"/>
       <use xlink:href="#DejaVuSans-38" x="127.246094"/>
      </g>
     </g>
    </g>
    <g id="ytick_4">
     <g id="line2d_8">
      <g>
       <use xlink:href="#m7b4c5ecc90" x="90" y="60.635999" style="stroke: #000000; stroke-width: 0.8"/>
      </g>
     </g>
     <g id="text_8">
      <!-- 130 -->
      <g transform="translate(63.9125 64.435218) scale(0.1 -0.1)">
       <defs>
        <path id="DejaVuSans-33" d="M 2597 2516 
Q 3050 2419 3304 2112 
Q 3559 1806 3559 1356 
Q 3559 666 3084 287 
Q 2609 -91 1734 -91 
Q 1441 -91 1130 -33 
Q 819 25 488 141 
L 488 750 
Q 750 597 1062 519 
Q 1375 441 1716 441 
Q 2309 441 2620 675 
Q 2931 909 2931 1356 
Q 2931 1769 2642 2001 
Q 2353 2234 1838 2234 
L 1294 2234 
L 1294 2753 
L 1863 2753 
Q 2328 2753 2575 2939 
Q 2822 3125 2822 3475 
Q 2822 3834 2567 4026 
Q 2313 4219 1838 4219 
Q 1578 4219 1281 4162 
Q 984 4106 628 3988 
L 628 4550 
Q 988 4650 1302 4700 
Q 1616 4750 1894 4750 
Q 2613 4750 3031 4423 
Q 3450 4097 3450 3541 
Q 3450 3153 3228 2886 
Q 3006 2619 2597 2516 
z
" transform="scale(0.015625)"/>
       </defs>
       <use xlink:href="#DejaVuSans-31"/>
       <use xlink:href="#DejaVuSans-33" x="63.623047"/>
       <use xlink:href="#DejaVuSans-30" x="127.246094"/>
      </g>
     </g>
    </g>
   </g>
   <g id="line2d_9">
    <path d="M 97.459893 154.859509 
L 99.98867 153.225593 
L 102.517448 147.650499 
L 105.046225 143.246223 
L 107.575002 142.951159 
L 110.10378 146.27672 
L 112.632557 152.919738 
L 115.161334 158.570524 
L 117.690111 160.624559 
L 120.218889 160.576352 
L 122.747666 160.30927 
L 125.276443 162.224294 
L 127.805221 167.400386 
L 130.333998 174.530733 
L 132.862775 181.950949 
L 135.391553 184.68 
L 137.92033 180.368442 
L 140.449107 171.387723 
L 142.977885 159.558744 
L 145.506662 150.060077 
L 148.035439 145.73497 
L 150.564216 142.764333 
L 153.092994 138.338114 
L 155.621771 135.191341 
L 158.150548 135.257486 
L 160.679326 133.751184 
L 163.208103 128.265199 
L 165.73688 121.47729 
L 168.265658 116.057443 
L 170.794435 109.372245 
L 173.323212 100.722117 
L 175.851989 91.662217 
L 178.380767 83.582028 
L 180.909544 75.921496 
L 183.438321 68.985259 
L 185.967099 64.348197 
L 188.495876 62.989825 
L 191.024653 62.232289 
L 193.553431 59.100711 
L 196.082208 54.918917 
L 198.610985 50.21948 
L 201.139763 45.64752 
L 203.66854 43.702783 
L 206.197317 43.735279 
L 208.726094 44.950291 
L 211.254872 46.25627 
L 213.783649 46.718819 
L 216.312426 46.109315 
L 218.841204 43.517338 
L 221.369981 40.341265 
L 223.898758 38.49994 
L 226.427536 37.136913 
L 228.956313 36.178012 
L 231.48509 34.218451 
L 234.013867 33.48 
L 236.542645 33.78466 
L 239.071422 35.072233 
L 241.600199 36.646536 
L 244.128977 38.198688 
L 246.657754 39.445655 
" clip-path="url(#p6a7f0aa6d8)" style="fill: none; stroke: #1f77b4; stroke-width: 1.5; stroke-linecap: square"/>
   </g>
   <g id="patch_3">
    <path d="M 90 192.24 
L 90 25.92 
" style="fill: none; stroke: #000000; stroke-width: 0.8; stroke-linejoin: miter; stroke-linecap: square"/>
   </g>
   <g id="patch_4">
    <path d="M 254.117647 192.24 
L 254.117647 25.92 
" style="fill: none; stroke: #000000; stroke-width: 0.8; stroke-linejoin: miter; stroke-linecap: square"/>
   </g>
   <g id="patch_5">
    <path d="M 90 192.24 
L 254.117647 192.24 
" style="fill: none; stroke: #000000; stroke-width: 0.8; stroke-linejoin: miter; stroke-linecap: square"/>
   </g>
   <g id="patch_6">
    <path d="M 90 25.92 
L 254.117647 25.92 
" style="fill: none; stroke: #000000; stroke-width: 0.8; stroke-linejoin: miter; stroke-linecap: square"/>
   </g>
   <g id="legend_1">
    <g id="patch_7">
     <path d="M 97 48.598125 
L 175.88125 48.598125 
Q 177.88125 48.598125 177.88125 46.598125 
L 177.88125 32.92 
Q 177.88125 30.92 175.88125 30.92 
L 97 30.92 
Q 95 30.92 95 32.92 
L 95 46.598125 
Q 95 48.598125 97 48.598125 
z
" style="fill: #ffffff; opacity: 0.8; stroke: #cccccc; stroke-linejoin: miter"/>
    </g>
    <g id="line2d_10">
     <path d="M 99 39.018437 
L 109 39.018437 
L 119 39.018437 
" style="fill: none; stroke: #1f77b4; stroke-width: 1.5; stroke-linecap: square"/>
    </g>
    <g id="text_9">
     <!-- q-Voltage -->
     <g transform="translate(127 42.518437) scale(0.1 -0.1)">
      <defs>
       <path id="DejaVuSans-71" d="M 947 1747 
Q 947 1113 1208 752 
Q 1469 391 1925 391 
Q 2381 391 2643 752 
Q 2906 1113 2906 1747 
Q 2906 2381 2643 2742 
Q 2381 3103 1925 3103 
Q 1469 3103 1208 2742 
Q 947 2381 947 1747 
z
M 2906 525 
Q 2725 213 2448 61 
Q 2172 -91 1784 -91 
Q 1150 -91 751 415 
Q 353 922 353 1747 
Q 353 2572 751 3078 
Q 1150 3584 1784 3584 
Q 2172 3584 2448 3432 
Q 2725 3281 2906 2969 
L 2906 3500 
L 3481 3500 
L 3481 -1331 
L 2906 -1331 
L 2906 525 
z
" transform="scale(0.015625)"/>
       <path id="DejaVuSans-2d" d="M 313 2009 
L 1997 2009 
L 1997 1497 
L 313 1497 
L 313 2009 
z
" transform="scale(0.015625)"/>
       <path id="DejaVuSans-56" d="M 1831 0 
L 50 4666 
L 709 4666 
L 2188 738 
L 3669 4666 
L 4325 4666 
L 2547 0 
L 1831 0 
z
" transform="scale(0.015625)"/>
       <path id="DejaVuSans-6f" d="M 1959 3097 
Q 1497 3097 1228 2736 
Q 959 2375 959 1747 
Q 959 1119 1226 758 
Q 1494 397 1959 397 
Q 2419 397 2687 759 
Q 2956 1122 2956 1747 
Q 2956 2369 2687 2733 
Q 2419 3097 1959 3097 
z
M 1959 3584 
Q 2709 3584 3137 3096 
Q 3566 2609 3566 1747 
Q 3566 888 3137 398 
Q 2709 -91 1959 -91 
Q 1206 -91 779 398 
Q 353 888 353 1747 
Q 353 2609 779 3096 
Q 1206 3584 1959 3584 
z
" transform="scale(0.015625)"/>
       <path id="DejaVuSans-6c" d="M 603 4863 
L 1178 4863 
L 1178 0 
L 603 0 
L 603 4863 
z
" transform="scale(0.015625)"/>
       <path id="DejaVuSans-74" d="M 1172 4494 
L 1172 3500 
L 2356 3500 
L 2356 3053 
L 1172 3053 
L 1172 1153 
Q 1172 725 1289 603 
Q 1406 481 1766 481 
L 2356 481 
L 2356 0 
L 1766 0 
Q 1100 0 847 248 
Q 594 497 594 1153 
L 594 3053 
L 172 3053 
L 172 3500 
L 594 3500 
L 594 4494 
L 1172 4494 
z
" transform="scale(0.015625)"/>
       <path id="DejaVuSans-61" d="M 2194 1759 
Q 1497 1759 1228 1600 
Q 959 1441 959 1056 
Q 959 750 1161 570 
Q 1363 391 1709 391 
Q 2188 391 2477 730 
Q 2766 1069 2766 1631 
L 2766 1759 
L 2194 1759 
z
M 3341 1997 
L 3341 0 
L 2766 0 
L 2766 531 
Q 2569 213 2275 61 
Q 1981 -91 1556 -91 
Q 1019 -91 701 211 
Q 384 513 384 1019 
Q 384 1609 779 1909 
Q 1175 2209 1959 2209 
L 2766 2209 
L 2766 2266 
Q 2766 2663 2505 2880 
Q 2244 3097 1772 3097 
Q 1472 3097 1187 3025 
Q 903 2953 641 2809 
L 641 3341 
Q 956 3463 1253 3523 
Q 1550 3584 1831 3584 
Q 2591 3584 2966 3190 
Q 3341 2797 3341 1997 
z
" transform="scale(0.015625)"/>
       <path id="DejaVuSans-67" d="M 2906 1791 
Q 2906 2416 2648 2759 
Q 2391 3103 1925 3103 
Q 1463 3103 1205 2759 
Q 947 2416 947 1791 
Q 947 1169 1205 825 
Q 1463 481 1925 481 
Q 2391 481 2648 825 
Q 2906 1169 2906 1791 
z
M 3481 434 
Q 3481 -459 3084 -895 
Q 2688 -1331 1869 -1331 
Q 1566 -1331 1297 -1286 
Q 1028 -1241 775 -1147 
L 775 -588 
Q 1028 -725 1275 -790 
Q 1522 -856 1778 -856 
Q 2344 -856 2625 -561 
Q 2906 -266 2906 331 
L 2906 616 
Q 2728 306 2450 153 
Q 2172 0 1784 0 
Q 1141 0 747 490 
Q 353 981 353 1791 
Q 353 2603 747 3093 
Q 1141 3584 1784 3584 
Q 2172 3584 2450 3431 
Q 2728 3278 2906 2969 
L 2906 3500 
L 3481 3500 
L 3481 434 
z
" transform="scale(0.015625)"/>
       <path id="DejaVuSans-65" d="M 3597 1894 
L 3597 1613 
L 953 1613 
Q 991 1019 1311 708 
Q 1631 397 2203 397 
Q 2534 397 2845 478 
Q 3156 559 3463 722 
L 3463 178 
Q 3153 47 2828 -22 
Q 2503 -91 2169 -91 
Q 1331 -91 842 396 
Q 353 884 353 1716 
Q 353 2575 817 3079 
Q 1281 3584 2069 3584 
Q 2775 3584 3186 3129 
Q 3597 2675 3597 1894 
z
M 3022 2063 
Q 3016 2534 2758 2815 
Q 2500 3097 2075 3097 
Q 1594 3097 1305 2825 
Q 1016 2553 972 2059 
L 3022 2063 
z
" transform="scale(0.015625)"/>
      </defs>
      <use xlink:href="#DejaVuSans-71"/>
      <use xlink:href="#DejaVuSans-2d" x="63.476562"/>
      <use xlink:href="#DejaVuSans-56" x="93.685547"/>
      <use xlink:href="#DejaVuSans-6f" x="154.34375"/>
      <use xlink:href="#DejaVuSans-6c" x="215.525391"/>
      <use xlink:href="#DejaVuSans-74" x="243.308594"/>
      <use xlink:href="#DejaVuSans-61" x="282.517578"/>
      <use xlink:href="#DejaVuSans-67" x="343.796875"/>
      <use xlink:href="#DejaVuSans-65" x="407.273438"/>
     </g>
    </g>
   </g>
  </g>
  <g id="axes_2">
   <g id="patch_8">
    <path d="M 286.941176 192.24 
L 451.058824 192.24 
L 451.058824 25.92 
L 286.941176 25.92 
z
" style="fill: #ffffff"/>
   </g>
   <g id="matplotlib.axis_3">
    <g id="xtick_5">
     <g id="line2d_11">
      <g>
       <use xlink:href="#m8497f8d88e" x="294.40107" y="192.24" style="stroke: #000000; stroke-width: 0.8"/>
      </g>
     </g>
     <g id="text_10">
      <!-- 0 -->
      <g transform="translate(291.21982 206.838437) scale(0.1 -0.1)">
       <use xlink:href="#DejaVuSans-30"/>
      </g>
     </g>
    </g>
    <g id="xtick_6">
     <g id="line2d_12">
      <g>
       <use xlink:href="#m8497f8d88e" x="344.976616" y="192.24" style="stroke: #000000; stroke-width: 0.8"/>
      </g>
     </g>
     <g id="text_11">
      <!-- 20 -->
      <g transform="translate(338.614116 206.838437) scale(0.1 -0.1)">
       <use xlink:href="#DejaVuSans-32"/>
       <use xlink:href="#DejaVuSans-30" x="63.623047"/>
      </g>
     </g>
    </g>
    <g id="xtick_7">
     <g id="line2d_13">
      <g>
       <use xlink:href="#m8497f8d88e" x="395.552162" y="192.24" style="stroke: #000000; stroke-width: 0.8"/>
      </g>
     </g>
     <g id="text_12">
      <!-- 40 -->
      <g transform="translate(389.189662 206.838437) scale(0.1 -0.1)">
       <use xlink:href="#DejaVuSans-34"/>
       <use xlink:href="#DejaVuSans-30" x="63.623047"/>
      </g>
     </g>
    </g>
    <g id="xtick_8">
     <g id="line2d_14">
      <g>
       <use xlink:href="#m8497f8d88e" x="446.127708" y="192.24" style="stroke: #000000; stroke-width: 0.8"/>
      </g>
     </g>
     <g id="text_13">
      <!-- 60 -->
      <g transform="translate(439.765208 206.838437) scale(0.1 -0.1)">
       <use xlink:href="#DejaVuSans-36"/>
       <use xlink:href="#DejaVuSans-30" x="63.623047"/>
      </g>
     </g>
    </g>
   </g>
   <g id="matplotlib.axis_4">
    <g id="ytick_5">
     <g id="line2d_15">
      <g>
       <use xlink:href="#m7b4c5ecc90" x="286.941176" y="178.742353" style="stroke: #000000; stroke-width: 0.8"/>
      </g>
     </g>
     <g id="text_14">
      <!-- 10 -->
      <g transform="translate(267.216176 182.541571) scale(0.1 -0.1)">
       <use xlink:href="#DejaVuSans-31"/>
       <use xlink:href="#DejaVuSans-30" x="63.623047"/>
      </g>
     </g>
    </g>
    <g id="ytick_6">
     <g id="line2d_16">
      <g>
       <use xlink:href="#m7b4c5ecc90" x="286.941176" y="157.811978" style="stroke: #000000; stroke-width: 0.8"/>
      </g>
     </g>
     <g id="text_15">
      <!-- 15 -->
      <g transform="translate(267.216176 161.611196) scale(0.1 -0.1)">
       <defs>
        <path id="DejaVuSans-35" d="M 691 4666 
L 3169 4666 
L 3169 4134 
L 1269 4134 
L 1269 2991 
Q 1406 3038 1543 3061 
Q 1681 3084 1819 3084 
Q 2600 3084 3056 2656 
Q 3513 2228 3513 1497 
Q 3513 744 3044 326 
Q 2575 -91 1722 -91 
Q 1428 -91 1123 -41 
Q 819 9 494 109 
L 494 744 
Q 775 591 1075 516 
Q 1375 441 1709 441 
Q 2250 441 2565 725 
Q 2881 1009 2881 1497 
Q 2881 1984 2565 2268 
Q 2250 2553 1709 2553 
Q 1456 2553 1204 2497 
Q 953 2441 691 2322 
L 691 4666 
z
" transform="scale(0.015625)"/>
       </defs>
       <use xlink:href="#DejaVuSans-31"/>
       <use xlink:href="#DejaVuSans-35" x="63.623047"/>
      </g>
     </g>
    </g>
    <g id="ytick_7">
     <g id="line2d_17">
      <g>
       <use xlink:href="#m7b4c5ecc90" x="286.941176" y="136.881602" style="stroke: #000000; stroke-width: 0.8"/>
      </g>
     </g>
     <g id="text_16">
      <!-- 20 -->
      <g transform="translate(267.216176 140.680821) scale(0.1 -0.1)">
       <use xlink:href="#DejaVuSans-32"/>
       <use xlink:href="#DejaVuSans-30" x="63.623047"/>
      </g>
     </g>
    </g>
    <g id="ytick_8">
     <g id="line2d_18">
      <g>
       <use xlink:href="#m7b4c5ecc90" x="286.941176" y="115.951227" style="stroke: #000000; stroke-width: 0.8"/>
      </g>
     </g>
     <g id="text_17">
      <!-- 25 -->
      <g transform="translate(267.216176 119.750446) scale(0.1 -0.1)">
       <use xlink:href="#DejaVuSans-32"/>
       <use xlink:href="#DejaVuSans-35" x="63.623047"/>
      </g>
     </g>
    </g>
    <g id="ytick_9">
     <g id="line2d_19">
      <g>
       <use xlink:href="#m7b4c5ecc90" x="286.941176" y="95.020852" style="stroke: #000000; stroke-width: 0.8"/>
      </g>
     </g>
     <g id="text_18">
      <!-- 30 -->
      <g transform="translate(267.216176 98.820071) scale(0.1 -0.1)">
       <use xlink:href="#DejaVuSans-33"/>
       <use xlink:href="#DejaVuSans-30" x="63.623047"/>
      </g>
     </g>
    </g>
    <g id="ytick_10">
     <g id="line2d_20">
      <g>
       <use xlink:href="#m7b4c5ecc90" x="286.941176" y="74.090477" style="stroke: #000000; stroke-width: 0.8"/>
      </g>
     </g>
     <g id="text_19">
      <!-- 35 -->
      <g transform="translate(267.216176 77.889696) scale(0.1 -0.1)">
       <use xlink:href="#DejaVuSans-33"/>
       <use xlink:href="#DejaVuSans-35" x="63.623047"/>
      </g>
     </g>
    </g>
    <g id="ytick_11">
     <g id="line2d_21">
      <g>
       <use xlink:href="#m7b4c5ecc90" x="286.941176" y="53.160102" style="stroke: #000000; stroke-width: 0.8"/>
      </g>
     </g>
     <g id="text_20">
      <!-- 40 -->
      <g transform="translate(267.216176 56.95932) scale(0.1 -0.1)">
       <use xlink:href="#DejaVuSans-34"/>
       <use xlink:href="#DejaVuSans-30" x="63.623047"/>
      </g>
     </g>
    </g>
    <g id="ytick_12">
     <g id="line2d_22">
      <g>
       <use xlink:href="#m7b4c5ecc90" x="286.941176" y="32.229726" style="stroke: #000000; stroke-width: 0.8"/>
      </g>
     </g>
     <g id="text_21">
      <!-- 45 -->
      <g transform="translate(267.216176 36.028945) scale(0.1 -0.1)">
       <use xlink:href="#DejaVuSans-34"/>
       <use xlink:href="#DejaVuSans-35" x="63.623047"/>
      </g>
     </g>
    </g>
   </g>
   <g id="line2d_23">
    <path d="M 294.40107 100.808165 
L 296.929847 101.004895 
L 299.458624 101.276887 
L 301.987401 101.598309 
L 304.516179 101.918033 
L 307.044956 102.123746 
L 309.573733 102.272878 
L 312.102511 102.505002 
L 314.631288 102.735385 
L 317.160065 102.807501 
L 319.688843 102.842913 
L 322.21762 102.844771 
L 324.746397 102.821353 
L 327.275174 102.827813 
L 329.803952 102.858456 
L 332.332729 102.88511 
L 334.861506 102.938905 
L 337.390284 102.997832 
L 339.919061 103.032309 
L 342.447838 103.091379 
L 344.976616 102.93605 
L 347.505393 102.775888 
L 350.03417 102.631043 
L 352.562948 102.530392 
L 355.091725 102.542414 
L 357.620502 102.519957 
L 360.149279 102.472633 
L 362.678057 102.433889 
L 365.206834 102.363026 
L 367.735611 102.406614 
L 370.264389 102.529184 
L 372.793166 102.52053 
L 375.321943 102.640232 
L 377.850721 102.77289 
L 380.379498 102.865445 
L 382.908275 102.941488 
L 385.437052 102.98386 
L 387.96583 103.009853 
L 390.494607 103.015567 
L 393.023384 102.978812 
L 395.552162 102.985195 
L 398.080939 103.018887 
L 400.609716 103.024952 
L 403.138494 103.044929 
L 405.667271 103.073802 
L 408.196048 103.066085 
L 410.724826 102.990314 
L 413.253603 102.985498 
L 415.78238 103.032345 
L 418.311157 103.040418 
L 420.839935 103.086998 
L 423.368712 103.093012 
L 425.897489 103.063835 
L 428.426267 103.102321 
L 430.955044 103.163383 
L 433.483821 103.178731 
L 436.012599 103.202119 
L 438.541376 103.234891 
L 441.070153 103.160248 
L 443.59893 103.115996 
" clip-path="url(#p8fc53936d5)" style="fill: none; stroke: #1f77b4; stroke-width: 1.5; stroke-linecap: square"/>
   </g>
   <g id="line2d_24">
    <path d="M 294.40107 46.998023 
L 296.929847 46.942193 
L 299.458624 46.88522 
L 301.987401 46.788218 
L 304.516179 46.604775 
L 307.044956 46.410902 
L 309.573733 46.148569 
L 312.102511 45.864017 
L 314.631288 45.642027 
L 317.160065 45.779915 
L 319.688843 46.068208 
L 322.21762 46.341395 
L 324.746397 46.567685 
L 327.275174 46.926459 
L 329.803952 47.280346 
L 332.332729 47.546063 
L 334.861506 47.735731 
L 337.390284 47.864847 
L 339.919061 47.86908 
L 342.447838 47.76014 
L 344.976616 47.570769 
L 347.505393 47.382061 
L 350.03417 47.237176 
L 352.562948 47.107022 
L 355.091725 46.980124 
L 357.620502 46.81368 
L 360.149279 46.612071 
L 362.678057 46.377388 
L 365.206834 46.279371 
L 367.735611 46.359383 
L 370.264389 46.487683 
L 372.793166 46.615004 
L 375.321943 46.733853 
L 377.850721 46.859033 
L 380.379498 46.982879 
L 382.908275 47.064617 
L 385.437052 47.053943 
L 387.96583 47.012357 
L 390.494607 46.968515 
L 393.023384 46.935202 
L 395.552162 46.872591 
L 398.080939 46.803972 
L 400.609716 46.708657 
L 403.138494 46.516028 
L 405.667271 46.322573 
L 408.196048 46.069591 
L 410.724826 45.7797 
L 413.253603 45.569168 
L 415.78238 45.619363 
L 418.311157 45.892081 
L 420.839935 46.171053 
L 423.368712 46.438801 
L 425.897489 46.665719 
L 428.426267 46.936659 
L 430.955044 47.215959 
L 433.483821 47.405584 
L 436.012599 47.545939 
L 438.541376 47.598503 
L 441.070153 47.561226 
L 443.59893 47.448562 
" clip-path="url(#p8fc53936d5)" style="fill: none; stroke: #ff7f0e; stroke-width: 1.5; stroke-linecap: square"/>
   </g>
   <g id="line2d_25">
    <path d="M 294.40107 51.73272 
L 296.929847 52.710428 
L 299.458624 56.546828 
L 301.987401 59.613115 
L 304.516179 59.982864 
L 307.044956 57.644052 
L 309.573733 53.037758 
L 312.102511 49.128195 
L 314.631288 47.843056 
L 317.160065 47.758582 
L 319.688843 48.053623 
L 322.21762 47.052488 
L 324.746397 43.785344 
L 327.275174 39.612192 
L 329.803952 35.177129 
L 332.332729 33.48 
L 334.861506 36.098268 
L 337.390284 42.077161 
L 339.919061 49.995585 
L 342.447838 56.627959 
L 344.976616 59.350416 
L 347.505393 61.428714 
L 350.03417 64.498773 
L 352.562948 66.573864 
L 355.091725 66.204444 
L 357.620502 67.132215 
L 360.149279 71.452962 
L 362.678057 76.522862 
L 365.206834 80.723528 
L 367.735611 86.244879 
L 370.264389 94.108746 
L 372.793166 102.589383 
L 375.321943 111.032017 
L 377.850721 119.28193 
L 380.379498 127.607258 
L 382.908275 133.253453 
L 385.437052 134.177289 
L 387.96583 135.357632 
L 390.494607 139.792361 
L 393.023384 146.882134 
L 395.552162 156.11899 
L 398.080939 163.169663 
L 400.609716 164.712162 
L 403.138494 163.127876 
L 405.667271 160.008139 
L 408.196048 157.24698 
L 410.724826 156.263655 
L 413.253603 158.68414 
L 415.78238 164.68173 
L 418.311157 170.668431 
L 420.839935 173.994904 
L 423.368712 176.994778 
L 425.897489 181.476716 
L 428.426267 184.487779 
L 430.955044 184.68 
L 433.483821 183.02858 
L 436.012599 179.867287 
L 438.541376 176.170047 
L 441.070153 173.010272 
L 443.59893 169.991709 
" clip-path="url(#p8fc53936d5)" style="fill: none; stroke: #2ca02c; stroke-width: 1.5; stroke-linecap: square"/>
   </g>
   <g id="patch_9">
    <path d="M 286.941176 192.24 
L 286.941176 25.92 
" style="fill: none; stroke: #000000; stroke-width: 0.8; stroke-linejoin: miter; stroke-linecap: square"/>
   </g>
   <g id="patch_10">
    <path d="M 451.058824 192.24 
L 451.058824 25.92 
" style="fill: none; stroke: #000000; stroke-width: 0.8; stroke-linejoin: miter; stroke-linecap: square"/>
   </g>
   <g id="patch_11">
    <path d="M 286.941176 192.24 
L 451.058824 192.24 
" style="fill: none; stroke: #000000; stroke-width: 0.8; stroke-linejoin: miter; stroke-linecap: square"/>
   </g>
   <g id="patch_12">
    <path d="M 286.941176 25.92 
L 451.058824 25.92 
" style="fill: none; stroke: #000000; stroke-width: 0.8; stroke-linejoin: miter; stroke-linecap: square"/>
   </g>
   <g id="legend_2">
    <g id="patch_13">
     <path d="M 297.61875 187.24 
L 440.38125 187.24 
Q 442.38125 187.24 442.38125 185.24 
L 442.38125 142.205625 
Q 442.38125 140.205625 440.38125 140.205625 
L 297.61875 140.205625 
Q 295.61875 140.205625 295.61875 142.205625 
L 295.61875 185.24 
Q 295.61875 187.24 297.61875 187.24 
z
" style="fill: #ffffff; opacity: 0.8; stroke: #cccccc; stroke-linejoin: miter"/>
    </g>
    <g id="line2d_26">
     <path d="M 299.61875 148.304062 
L 309.61875 148.304062 
L 319.61875 148.304062 
" style="fill: none; stroke: #1f77b4; stroke-width: 1.5; stroke-linecap: square"/>
    </g>
    <g id="text_22">
     <!-- Ambient temperature -->
     <g transform="translate(327.61875 151.804062) scale(0.1 -0.1)">
      <defs>
       <path id="DejaVuSans-41" d="M 2188 4044 
L 1331 1722 
L 3047 1722 
L 2188 4044 
z
M 1831 4666 
L 2547 4666 
L 4325 0 
L 3669 0 
L 3244 1197 
L 1141 1197 
L 716 0 
L 50 0 
L 1831 4666 
z
" transform="scale(0.015625)"/>
       <path id="DejaVuSans-6d" d="M 3328 2828 
Q 3544 3216 3844 3400 
Q 4144 3584 4550 3584 
Q 5097 3584 5394 3201 
Q 5691 2819 5691 2113 
L 5691 0 
L 5113 0 
L 5113 2094 
Q 5113 2597 4934 2840 
Q 4756 3084 4391 3084 
Q 3944 3084 3684 2787 
Q 3425 2491 3425 1978 
L 3425 0 
L 2847 0 
L 2847 2094 
Q 2847 2600 2669 2842 
Q 2491 3084 2119 3084 
Q 1678 3084 1418 2786 
Q 1159 2488 1159 1978 
L 1159 0 
L 581 0 
L 581 3500 
L 1159 3500 
L 1159 2956 
Q 1356 3278 1631 3431 
Q 1906 3584 2284 3584 
Q 2666 3584 2933 3390 
Q 3200 3197 3328 2828 
z
" transform="scale(0.015625)"/>
       <path id="DejaVuSans-62" d="M 3116 1747 
Q 3116 2381 2855 2742 
Q 2594 3103 2138 3103 
Q 1681 3103 1420 2742 
Q 1159 2381 1159 1747 
Q 1159 1113 1420 752 
Q 1681 391 2138 391 
Q 2594 391 2855 752 
Q 3116 1113 3116 1747 
z
M 1159 2969 
Q 1341 3281 1617 3432 
Q 1894 3584 2278 3584 
Q 2916 3584 3314 3078 
Q 3713 2572 3713 1747 
Q 3713 922 3314 415 
Q 2916 -91 2278 -91 
Q 1894 -91 1617 61 
Q 1341 213 1159 525 
L 1159 0 
L 581 0 
L 581 4863 
L 1159 4863 
L 1159 2969 
z
" transform="scale(0.015625)"/>
       <path id="DejaVuSans-69" d="M 603 3500 
L 1178 3500 
L 1178 0 
L 603 0 
L 603 3500 
z
M 603 4863 
L 1178 4863 
L 1178 4134 
L 603 4134 
L 603 4863 
z
" transform="scale(0.015625)"/>
       <path id="DejaVuSans-6e" d="M 3513 2113 
L 3513 0 
L 2938 0 
L 2938 2094 
Q 2938 2591 2744 2837 
Q 2550 3084 2163 3084 
Q 1697 3084 1428 2787 
Q 1159 2491 1159 1978 
L 1159 0 
L 581 0 
L 581 3500 
L 1159 3500 
L 1159 2956 
Q 1366 3272 1645 3428 
Q 1925 3584 2291 3584 
Q 2894 3584 3203 3211 
Q 3513 2838 3513 2113 
z
" transform="scale(0.015625)"/>
       <path id="DejaVuSans-20" transform="scale(0.015625)"/>
       <path id="DejaVuSans-70" d="M 1159 525 
L 1159 -1331 
L 581 -1331 
L 581 3500 
L 1159 3500 
L 1159 2969 
Q 1341 3281 1617 3432 
Q 1894 3584 2278 3584 
Q 2916 3584 3314 3078 
Q 3713 2572 3713 1747 
Q 3713 922 3314 415 
Q 2916 -91 2278 -91 
Q 1894 -91 1617 61 
Q 1341 213 1159 525 
z
M 3116 1747 
Q 3116 2381 2855 2742 
Q 2594 3103 2138 3103 
Q 1681 3103 1420 2742 
Q 1159 2381 1159 1747 
Q 1159 1113 1420 752 
Q 1681 391 2138 391 
Q 2594 391 2855 752 
Q 3116 1113 3116 1747 
z
" transform="scale(0.015625)"/>
       <path id="DejaVuSans-72" d="M 2631 2963 
Q 2534 3019 2420 3045 
Q 2306 3072 2169 3072 
Q 1681 3072 1420 2755 
Q 1159 2438 1159 1844 
L 1159 0 
L 581 0 
L 581 3500 
L 1159 3500 
L 1159 2956 
Q 1341 3275 1631 3429 
Q 1922 3584 2338 3584 
Q 2397 3584 2469 3576 
Q 2541 3569 2628 3553 
L 2631 2963 
z
" transform="scale(0.015625)"/>
       <path id="DejaVuSans-75" d="M 544 1381 
L 544 3500 
L 1119 3500 
L 1119 1403 
Q 1119 906 1312 657 
Q 1506 409 1894 409 
Q 2359 409 2629 706 
Q 2900 1003 2900 1516 
L 2900 3500 
L 3475 3500 
L 3475 0 
L 2900 0 
L 2900 538 
Q 2691 219 2414 64 
Q 2138 -91 1772 -91 
Q 1169 -91 856 284 
Q 544 659 544 1381 
z
M 1991 3584 
L 1991 3584 
z
" transform="scale(0.015625)"/>
      </defs>
      <use xlink:href="#DejaVuSans-41"/>
      <use xlink:href="#DejaVuSans-6d" x="68.408203"/>
      <use xlink:href="#DejaVuSans-62" x="165.820312"/>
      <use xlink:href="#DejaVuSans-69" x="229.296875"/>
      <use xlink:href="#DejaVuSans-65" x="257.080078"/>
      <use xlink:href="#DejaVuSans-6e" x="318.603516"/>
      <use xlink:href="#DejaVuSans-74" x="381.982422"/>
      <use xlink:href="#DejaVuSans-20" x="421.191406"/>
      <use xlink:href="#DejaVuSans-74" x="452.978516"/>
      <use xlink:href="#DejaVuSans-65" x="492.1875"/>
      <use xlink:href="#DejaVuSans-6d" x="553.710938"/>
      <use xlink:href="#DejaVuSans-70" x="651.123047"/>
      <use xlink:href="#DejaVuSans-65" x="714.599609"/>
      <use xlink:href="#DejaVuSans-72" x="776.123047"/>
      <use xlink:href="#DejaVuSans-61" x="817.236328"/>
      <use xlink:href="#DejaVuSans-74" x="878.515625"/>
      <use xlink:href="#DejaVuSans-75" x="917.724609"/>
      <use xlink:href="#DejaVuSans-72" x="981.103516"/>
      <use xlink:href="#DejaVuSans-65" x="1019.966797"/>
     </g>
    </g>
    <g id="line2d_27">
     <path d="M 299.61875 162.982188 
L 309.61875 162.982188 
L 319.61875 162.982188 
" style="fill: none; stroke: #ff7f0e; stroke-width: 1.5; stroke-linecap: square"/>
    </g>
    <g id="text_23">
     <!-- Coolant tempperature -->
     <g transform="translate(327.61875 166.482188) scale(0.1 -0.1)">
      <defs>
       <path id="DejaVuSans-43" d="M 4122 4306 
L 4122 3641 
Q 3803 3938 3442 4084 
Q 3081 4231 2675 4231 
Q 1875 4231 1450 3742 
Q 1025 3253 1025 2328 
Q 1025 1406 1450 917 
Q 1875 428 2675 428 
Q 3081 428 3442 575 
Q 3803 722 4122 1019 
L 4122 359 
Q 3791 134 3420 21 
Q 3050 -91 2638 -91 
Q 1578 -91 968 557 
Q 359 1206 359 2328 
Q 359 3453 968 4101 
Q 1578 4750 2638 4750 
Q 3056 4750 3426 4639 
Q 3797 4528 4122 4306 
z
" transform="scale(0.015625)"/>
      </defs>
      <use xlink:href="#DejaVuSans-43"/>
      <use xlink:href="#DejaVuSans-6f" x="69.824219"/>
      <use xlink:href="#DejaVuSans-6f" x="131.005859"/>
      <use xlink:href="#DejaVuSans-6c" x="192.1875"/>
      <use xlink:href="#DejaVuSans-61" x="219.970703"/>
      <use xlink:href="#DejaVuSans-6e" x="281.25"/>
      <use xlink:href="#DejaVuSans-74" x="344.628906"/>
      <use xlink:href="#DejaVuSans-20" x="383.837891"/>
      <use xlink:href="#DejaVuSans-74" x="415.625"/>
      <use xlink:href="#DejaVuSans-65" x="454.833984"/>
      <use xlink:href="#DejaVuSans-6d" x="516.357422"/>
      <use xlink:href="#DejaVuSans-70" x="613.769531"/>
      <use xlink:href="#DejaVuSans-70" x="677.246094"/>
      <use xlink:href="#DejaVuSans-65" x="740.722656"/>
      <use xlink:href="#DejaVuSans-72" x="802.246094"/>
      <use xlink:href="#DejaVuSans-61" x="843.359375"/>
      <use xlink:href="#DejaVuSans-74" x="904.638672"/>
      <use xlink:href="#DejaVuSans-75" x="943.847656"/>
      <use xlink:href="#DejaVuSans-72" x="1007.226562"/>
      <use xlink:href="#DejaVuSans-65" x="1046.089844"/>
     </g>
    </g>
    <g id="line2d_28">
     <path d="M 299.61875 177.660313 
L 309.61875 177.660313 
L 319.61875 177.660313 
" style="fill: none; stroke: #2ca02c; stroke-width: 1.5; stroke-linecap: square"/>
    </g>
    <g id="text_24">
     <!-- d-Voltage -->
     <g transform="translate(327.61875 181.160313) scale(0.1 -0.1)">
      <defs>
       <path id="DejaVuSans-64" d="M 2906 2969 
L 2906 4863 
L 3481 4863 
L 3481 0 
L 2906 0 
L 2906 525 
Q 2725 213 2448 61 
Q 2172 -91 1784 -91 
Q 1150 -91 751 415 
Q 353 922 353 1747 
Q 353 2572 751 3078 
Q 1150 3584 1784 3584 
Q 2172 3584 2448 3432 
Q 2725 3281 2906 2969 
z
M 947 1747 
Q 947 1113 1208 752 
Q 1469 391 1925 391 
Q 2381 391 2643 752 
Q 2906 1113 2906 1747 
Q 2906 2381 2643 2742 
Q 2381 3103 1925 3103 
Q 1469 3103 1208 2742 
Q 947 2381 947 1747 
z
" transform="scale(0.015625)"/>
      </defs>
      <use xlink:href="#DejaVuSans-64"/>
      <use xlink:href="#DejaVuSans-2d" x="63.476562"/>
      <use xlink:href="#DejaVuSans-56" x="93.685547"/>
      <use xlink:href="#DejaVuSans-6f" x="154.34375"/>
      <use xlink:href="#DejaVuSans-6c" x="215.525391"/>
      <use xlink:href="#DejaVuSans-74" x="243.308594"/>
      <use xlink:href="#DejaVuSans-61" x="282.517578"/>
      <use xlink:href="#DejaVuSans-67" x="343.796875"/>
      <use xlink:href="#DejaVuSans-65" x="407.273438"/>
     </g>
    </g>
   </g>
  </g>
  <g id="axes_3">
   <g id="patch_14">
    <path d="M 483.882353 192.24 
L 648 192.24 
L 648 25.92 
L 483.882353 25.92 
z
" style="fill: #ffffff"/>
   </g>
   <g id="matplotlib.axis_5">
    <g id="xtick_9">
     <g id="line2d_29">
      <g>
       <use xlink:href="#m8497f8d88e" x="491.342246" y="192.24" style="stroke: #000000; stroke-width: 0.8"/>
      </g>
     </g>
     <g id="text_25">
      <!-- 0 -->
      <g transform="translate(488.160996 206.838437) scale(0.1 -0.1)">
       <use xlink:href="#DejaVuSans-30"/>
      </g>
     </g>
    </g>
    <g id="xtick_10">
     <g id="line2d_30">
      <g>
       <use xlink:href="#m8497f8d88e" x="541.917792" y="192.24" style="stroke: #000000; stroke-width: 0.8"/>
      </g>
     </g>
     <g id="text_26">
      <!-- 20 -->
      <g transform="translate(535.555292 206.838437) scale(0.1 -0.1)">
       <use xlink:href="#DejaVuSans-32"/>
       <use xlink:href="#DejaVuSans-30" x="63.623047"/>
      </g>
     </g>
    </g>
    <g id="xtick_11">
     <g id="line2d_31">
      <g>
       <use xlink:href="#m8497f8d88e" x="592.493338" y="192.24" style="stroke: #000000; stroke-width: 0.8"/>
      </g>
     </g>
     <g id="text_27">
      <!-- 40 -->
      <g transform="translate(586.130838 206.838437) scale(0.1 -0.1)">
       <use xlink:href="#DejaVuSans-34"/>
       <use xlink:href="#DejaVuSans-30" x="63.623047"/>
      </g>
     </g>
    </g>
    <g id="xtick_12">
     <g id="line2d_32">
      <g>
       <use xlink:href="#m8497f8d88e" x="643.068884" y="192.24" style="stroke: #000000; stroke-width: 0.8"/>
      </g>
     </g>
     <g id="text_28">
      <!-- 60 -->
      <g transform="translate(636.706384 206.838437) scale(0.1 -0.1)">
       <use xlink:href="#DejaVuSans-36"/>
       <use xlink:href="#DejaVuSans-30" x="63.623047"/>
      </g>
     </g>
    </g>
   </g>
   <g id="matplotlib.axis_6">
    <g id="ytick_13">
     <g id="line2d_33">
      <g>
       <use xlink:href="#m7b4c5ecc90" x="483.882353" y="163.685933" style="stroke: #000000; stroke-width: 0.8"/>
      </g>
     </g>
     <g id="text_29">
      <!-- −50 -->
      <g transform="translate(455.777665 167.485152) scale(0.1 -0.1)">
       <defs>
        <path id="DejaVuSans-2212" d="M 678 2272 
L 4684 2272 
L 4684 1741 
L 678 1741 
L 678 2272 
z
" transform="scale(0.015625)"/>
       </defs>
       <use xlink:href="#DejaVuSans-2212"/>
       <use xlink:href="#DejaVuSans-35" x="83.789062"/>
       <use xlink:href="#DejaVuSans-30" x="147.412109"/>
      </g>
     </g>
    </g>
    <g id="ytick_14">
     <g id="line2d_34">
      <g>
       <use xlink:href="#m7b4c5ecc90" x="483.882353" y="132.427637" style="stroke: #000000; stroke-width: 0.8"/>
      </g>
     </g>
     <g id="text_30">
      <!-- −40 -->
      <g transform="translate(455.777665 136.226856) scale(0.1 -0.1)">
       <use xlink:href="#DejaVuSans-2212"/>
       <use xlink:href="#DejaVuSans-34" x="83.789062"/>
       <use xlink:href="#DejaVuSans-30" x="147.412109"/>
      </g>
     </g>
    </g>
    <g id="ytick_15">
     <g id="line2d_35">
      <g>
       <use xlink:href="#m7b4c5ecc90" x="483.882353" y="101.169341" style="stroke: #000000; stroke-width: 0.8"/>
      </g>
     </g>
     <g id="text_31">
      <!-- −30 -->
      <g transform="translate(455.777665 104.96856) scale(0.1 -0.1)">
       <use xlink:href="#DejaVuSans-2212"/>
       <use xlink:href="#DejaVuSans-33" x="83.789062"/>
       <use xlink:href="#DejaVuSans-30" x="147.412109"/>
      </g>
     </g>
    </g>
    <g id="ytick_16">
     <g id="line2d_36">
      <g>
       <use xlink:href="#m7b4c5ecc90" x="483.882353" y="69.911045" style="stroke: #000000; stroke-width: 0.8"/>
      </g>
     </g>
     <g id="text_32">
      <!-- −20 -->
      <g transform="translate(455.777665 73.710263) scale(0.1 -0.1)">
       <use xlink:href="#DejaVuSans-2212"/>
       <use xlink:href="#DejaVuSans-32" x="83.789062"/>
       <use xlink:href="#DejaVuSans-30" x="147.412109"/>
      </g>
     </g>
    </g>
    <g id="ytick_17">
     <g id="line2d_37">
      <g>
       <use xlink:href="#m7b4c5ecc90" x="483.882353" y="38.652748" style="stroke: #000000; stroke-width: 0.8"/>
      </g>
     </g>
     <g id="text_33">
      <!-- −10 -->
      <g transform="translate(455.777665 42.451967) scale(0.1 -0.1)">
       <use xlink:href="#DejaVuSans-2212"/>
       <use xlink:href="#DejaVuSans-31" x="83.789062"/>
       <use xlink:href="#DejaVuSans-30" x="147.412109"/>
      </g>
     </g>
    </g>
   </g>
   <g id="line2d_38">
    <path d="M 491.342246 118.871611 
L 493.871023 118.260951 
L 496.399801 115.976138 
L 498.928578 114.129899 
L 501.457355 114.071981 
L 503.986133 115.798973 
L 506.51491 119.119049 
L 509.043687 121.796643 
L 511.572464 122.585981 
L 514.101242 122.601507 
L 516.630019 122.432854 
L 519.158796 122.888481 
L 521.687574 124.581945 
L 524.216351 126.821632 
L 526.745128 129.2004 
L 529.273906 129.906715 
L 531.802683 127.748478 
L 534.33146 123.669985 
L 536.860237 118.294071 
L 539.389015 113.822332 
L 541.917792 111.653313 
L 544.446569 109.995352 
L 546.975347 107.701702 
L 549.504124 106.07639 
L 552.032901 106.013503 
L 554.561679 105.4326 
L 557.090456 102.869806 
L 559.619233 99.645034 
L 562.148011 96.780494 
L 564.676788 93.301514 
L 567.205565 88.546365 
L 569.734342 83.432483 
L 572.26312 78.542913 
L 574.791897 73.646463 
L 577.320674 68.598978 
L 579.849452 65.151513 
L 582.378229 64.373582 
L 584.907006 63.460414 
L 587.435784 60.632906 
L 589.964561 56.254555 
L 592.493338 50.607147 
L 595.022115 46.389997 
L 597.550893 45.262845 
L 600.07967 46.067463 
L 602.608447 47.948947 
L 605.137225 49.492385 
L 607.666002 49.867054 
L 610.194779 48.491197 
L 612.723557 45.020202 
L 615.252334 41.592673 
L 617.781111 39.565419 
L 620.309889 37.738873 
L 622.838666 35.325381 
L 625.367443 33.636347 
L 627.89622 33.48 
L 630.424998 34.407915 
L 632.953775 36.126197 
L 635.482552 38.022297 
L 638.01133 39.733136 
L 640.540107 41.351444 
" clip-path="url(#p426bdbf06e)" style="fill: none; stroke: #1f77b4; stroke-width: 1.5; stroke-linecap: square"/>
   </g>
   <g id="line2d_39">
    <path d="M 491.342246 131.215924 
L 493.871023 128.641845 
L 496.399801 124.367006 
L 498.928578 120.05373 
L 501.457355 116.494919 
L 503.986133 113.82729 
L 506.51491 113.352268 
L 509.043687 114.669678 
L 511.572464 116.032724 
L 514.101242 117.187741 
L 516.630019 119.551577 
L 519.158796 123.943192 
L 521.687574 129.528176 
L 524.216351 135.62931 
L 526.745128 141.353495 
L 529.273906 145.431432 
L 531.802683 147.778746 
L 534.33146 148.871044 
L 536.860237 149.557875 
L 539.389015 150.848078 
L 541.917792 153.068569 
L 544.446569 155.435584 
L 546.975347 157.254254 
L 549.504124 159.041873 
L 552.032901 160.114935 
L 554.561679 159.322433 
L 557.090456 158.276542 
L 559.619233 158.452104 
L 562.148011 158.501238 
L 564.676788 157.220005 
L 567.205565 154.678516 
L 569.734342 151.522986 
L 572.26312 148.836879 
L 574.791897 146.931826 
L 577.320674 146.416611 
L 579.849452 147.703451 
L 582.378229 150.260718 
L 584.907006 153.225209 
L 587.435784 156.079012 
L 589.964561 158.852542 
L 592.493338 161.345226 
L 595.022115 163.652337 
L 597.550893 165.125255 
L 600.07967 165.217141 
L 602.608447 165.949863 
L 605.137225 167.927877 
L 607.666002 169.464652 
L 610.194779 169.674368 
L 612.723557 169.681945 
L 615.252334 170.369596 
L 617.781111 171.345441 
L 620.309889 171.985718 
L 622.838666 172.861966 
L 625.367443 174.315894 
L 627.89622 176.498046 
L 630.424998 179.292965 
L 632.953775 181.863422 
L 635.482552 183.904664 
L 638.01133 184.68 
L 640.540107 184.188725 
" clip-path="url(#p426bdbf06e)" style="fill: none; stroke: #ff7f0e; stroke-width: 1.5; stroke-linecap: square"/>
   </g>
   <g id="patch_15">
    <path d="M 483.882353 192.24 
L 483.882353 25.92 
" style="fill: none; stroke: #000000; stroke-width: 0.8; stroke-linejoin: miter; stroke-linecap: square"/>
   </g>
   <g id="patch_16">
    <path d="M 648 192.24 
L 648 25.92 
" style="fill: none; stroke: #000000; stroke-width: 0.8; stroke-linejoin: miter; stroke-linecap: square"/>
   </g>
   <g id="patch_17">
    <path d="M 483.882353 192.24 
L 648 192.24 
" style="fill: none; stroke: #000000; stroke-width: 0.8; stroke-linejoin: miter; stroke-linecap: square"/>
   </g>
   <g id="patch_18">
    <path d="M 483.882353 25.92 
L 648 25.92 
" style="fill: none; stroke: #000000; stroke-width: 0.8; stroke-linejoin: miter; stroke-linecap: square"/>
   </g>
   <g id="legend_3">
    <g id="patch_19">
     <path d="M 561.490625 125.258125 
L 641 125.258125 
Q 643 125.258125 643 123.258125 
L 643 94.901875 
Q 643 92.901875 641 92.901875 
L 561.490625 92.901875 
Q 559.490625 92.901875 559.490625 94.901875 
L 559.490625 123.258125 
Q 559.490625 125.258125 561.490625 125.258125 
z
" style="fill: #ffffff; opacity: 0.8; stroke: #cccccc; stroke-linejoin: miter"/>
    </g>
    <g id="line2d_40">
     <path d="M 563.490625 101.000312 
L 573.490625 101.000312 
L 583.490625 101.000312 
" style="fill: none; stroke: #1f77b4; stroke-width: 1.5; stroke-linecap: square"/>
    </g>
    <g id="text_34">
     <!-- q-Current -->
     <g transform="translate(591.490625 104.500312) scale(0.1 -0.1)">
      <use xlink:href="#DejaVuSans-71"/>
      <use xlink:href="#DejaVuSans-2d" x="63.476562"/>
      <use xlink:href="#DejaVuSans-43" x="99.560547"/>
      <use xlink:href="#DejaVuSans-75" x="169.384766"/>
      <use xlink:href="#DejaVuSans-72" x="232.763672"/>
      <use xlink:href="#DejaVuSans-72" x="272.126953"/>
      <use xlink:href="#DejaVuSans-65" x="310.990234"/>
      <use xlink:href="#DejaVuSans-6e" x="372.513672"/>
      <use xlink:href="#DejaVuSans-74" x="435.892578"/>
     </g>
    </g>
    <g id="line2d_41">
     <path d="M 563.490625 115.678438 
L 573.490625 115.678438 
L 583.490625 115.678438 
" style="fill: none; stroke: #ff7f0e; stroke-width: 1.5; stroke-linecap: square"/>
    </g>
    <g id="text_35">
     <!-- d-Current -->
     <g transform="translate(591.490625 119.178438) scale(0.1 -0.1)">
      <use xlink:href="#DejaVuSans-64"/>
      <use xlink:href="#DejaVuSans-2d" x="63.476562"/>
      <use xlink:href="#DejaVuSans-43" x="99.560547"/>
      <use xlink:href="#DejaVuSans-75" x="169.384766"/>
      <use xlink:href="#DejaVuSans-72" x="232.763672"/>
      <use xlink:href="#DejaVuSans-72" x="272.126953"/>
      <use xlink:href="#DejaVuSans-65" x="310.990234"/>
      <use xlink:href="#DejaVuSans-6e" x="372.513672"/>
      <use xlink:href="#DejaVuSans-74" x="435.892578"/>
     </g>
    </g>
   </g>
  </g>
 </g>
 <defs>
  <clipPath id="p6a7f0aa6d8">
   <rect x="90" y="25.92" width="164.117647" height="166.32"/>
  </clipPath>
  <clipPath id="p8fc53936d5">
   <rect x="286.941176" y="25.92" width="164.117647" height="166.32"/>
  </clipPath>
  <clipPath id="p426bdbf06e">
   <rect x="483.882353" y="25.92" width="164.117647" height="166.32"/>
  </clipPath>
 </defs>
</svg>
